<svg width="200" height="200" viewBox="0 0 200 200" fill="none" xmlns="http://www.w3.org/2000/svg">
    <style>
        @keyframes fadeIn {
        from {
        opacity: 0;
        transform: translateY(10px);
        }
        to {
        opacity: 1;
        transform: translateY(0);
        }
        }

        .anim-element {
        opacity: 0;
        animation: fadeIn 0.6s ease forwards;
        }

        .delay-1 { animation-delay: 0.1s; }
        .delay-2 { animation-delay: 0.6s; }
        .delay-3 { animation-delay: 0.9s; }
        .delay-4 { animation-delay: 1.2s; }
        .delay-5 { animation-delay: 1.5s; }
        .delay-6 { animation-delay: 1.8s; }
        .delay-7 { animation-delay: 2.1s; }
        .delay-8 { animation-delay: 2.4s; }
        .delay-9 { animation-delay: 2.7s; }
        .delay-10 { animation-delay: 3s; }
        .delay-11 { animation-delay: 3.3s; }
        .delay-12 { animation-delay: 3.6s; }
        .delay-13 { animation-delay: 3.9s; }
        .delay-14 { animation-delay: 4.2s; }
        .delay-15 { animation-delay: 4.5s; }
    </style>
<rect width="200" height="200" rx="100" fill="black"/>
<mask  id="mask0_1_682" style="mask-type:luminance" maskUnits="userSpaceOnUse" x="0" y="0" width="200" height="200">
<path d="M200 0H0V200H200V0Z" fill="white"/>
</mask>
<g  mask="url(#mask0_1_682)">
<g  opacity="0.2">
<path d="M172.727 101.818C172.727 141.982 140.164 174.545 100 174.545C59.8364 174.545 27.2727 141.982 27.2727 101.818C27.2727 61.6546 59.8364 29.0909 100 29.0909C140.164 29.0909 172.727 61.6546 172.727 101.818Z" fill="url(#paint0_radial_1_682)"/>
</g>
<mask id="mask1_1_682" style="mask-type:luminance" maskUnits="userSpaceOnUse" x="0" y="1" width="200" height="201">
<path d="M0 1.2182H200V201.218H0V1.2182Z" fill="white"/>
</mask>
<g mask="url(#mask1_1_682)">
<g opacity="0.4">
<mask id="mask2_1_682" style="mask-type:luminance" maskUnits="userSpaceOnUse" x="-30" y="-75" width="277" height="277">
<path d="M76.6788 201.215L-29.2162 31.5502L140.449 -74.3448L246.344 95.3205L76.6788 201.215Z" fill="white"/>
</mask>
<g mask="url(#mask2_1_682)">
<mask id="mask3_1_682" style="mask-type:luminance" maskUnits="userSpaceOnUse" x="-30" y="-75" width="277" height="277">
<path d="M76.6788 201.215L-29.2162 31.5502L140.449 -74.3448L246.344 95.3205L76.6788 201.215Z" fill="white"/>
</mask>
<g mask="url(#mask3_1_682)">
<path d="M38.7949 139.075L53.6473 129.7" stroke="#F2E6C4" stroke-width="1.14545"/>
<path d="M146.885 73.6694L161.976 64.81" stroke="#F2E6C4" stroke-width="1.14545"/>
<path d="M61.5932 40.6817L70.9729 55.5418" stroke="#F2E6C4" stroke-width="1.14545"/>
<path d="M128.555 146.784L138.051 161.828" stroke="#F2E6C4" stroke-width="1.14545"/>
<path d="M97.3088 29.4227L98.0066 47.2364" stroke="#F2E6C4" stroke-width="1.14545"/>
<path d="M101.843 154.952L102.362 172.652" stroke="#F2E6C4" stroke-width="1.14545"/>
<path d="M134.053 37.7823L125.635 53.5021" stroke="#F2E6C4" stroke-width="1.14545"/>
<path d="M74.4874 148.709L65.7968 164.439" stroke="#F2E6C4" stroke-width="1.14545"/>
<path d="M36.5333 66.4535L52.2072 75.1906" stroke="#F2E6C4" stroke-width="1.14545"/>
<path d="M147.971 126.354L163.6 134.475" stroke="#F2E6C4" stroke-width="1.14545"/>
<path d="M27.5522 103.832L45.3203 103.044" stroke="#F2E6C4" stroke-width="1.14545"/>
<path d="M154.38 99.3343L172.367 98.4844" stroke="#F2E6C4" stroke-width="1.14545"/>
<path d="M61.8915 41.5819C95.4187 20.4196 139.68 30.3214 160.75 63.7025C181.82 97.0836 171.722 141.307 138.195 162.469C104.668 183.632 60.3944 173.727 39.3244 140.346C18.2543 106.965 28.3643 62.7441 61.8915 41.5819Z" stroke="#F2E6C4" stroke-width="1.14545"/>
<path d="M71.251 56.5296C96.5217 40.5788 129.872 48.0466 145.75 73.202C161.628 98.3574 154.022 131.677 128.752 147.628C103.481 163.578 70.1228 156.115 54.2448 130.96C38.3668 105.805 45.9803 72.4803 71.251 56.5296Z" stroke="#F2E6C4" stroke-width="1.14545"/>
</g>
</g>
<g opacity="0.3">
<path  d="M56.1273 133.155L32.9 149.118" stroke="#F2E6C4" stroke-width="0.909091" stroke-linecap="round"/>
</g>
<g opacity="0.3">
<path d="M70.9727 147.836L56.1273 169.555" stroke="#F2E6C4" stroke-width="0.909091" stroke-linecap="round"/>
</g>
<g opacity="0.3">
<path d="M87.7364 154.227L80.6364 180.409" stroke="#F2E6C4" stroke-width="0.909091" stroke-linecap="round"/>
</g>
<g opacity="0.3">
<path d="M109.664 154.227L114.182 181.691" stroke="#F2E6C4" stroke-width="0.909091" stroke-linecap="round"/>
</g>
<g opacity="0.3">
<path d="M135.473 142.091L152.891 163.809" stroke="#F2E6C4" stroke-width="0.909091" stroke-linecap="round"/>
</g>
<g opacity="0.3">
<path d="M152.891 96.1091H185.791" stroke="#F2E6C4" stroke-width="0.909091" stroke-linecap="round"/>
</g>
<g opacity="0.3">
<path d="M14.2 96.1091H45.8091" stroke="#F2E6C4" stroke-width="0.909091" stroke-linecap="round"/>
</g>
<g opacity="0.3">
<path d="M141.927 66.1L163.218 48.8546" stroke="#F2E6C4" stroke-width="0.909091" stroke-linecap="round"/>
</g>
<g opacity="0.3">
<path d="M129.018 55.8728L143.218 32.2455" stroke="#F2E6C4" stroke-width="0.909091" stroke-linecap="round"/>
</g>
<g opacity="0.3">
<path d="M105.8 47.5819L109.027 20.1182" stroke="#F2E6C4" stroke-width="0.909091" stroke-linecap="round"/>
</g>
<g opacity="0.3">
<path d="M89.6818 48.2182L84.5182 21.3909" stroke="#F2E6C4" stroke-width="0.909091" stroke-linecap="round"/>
</g>
<g opacity="0.3">
<path d="M64.5182 59.7091L47.7455 38.6364" stroke="#F2E6C4" stroke-width="0.909091" stroke-linecap="round"/>
</g>
</g>
</g>
<mask id="mask4_1_682" style="mask-type:luminance" maskUnits="userSpaceOnUse" x="38" y="47" width="201" height="201">
<path d="M38.2545 47.5637H238.255V247.564H38.2545V47.5637Z" fill="white"/>
</mask>
<g mask="url(#mask4_1_682)">
<path class="anim-element delay-10" d="M158.445 99.1291L117.851 100.541L52.3676 102.823" stroke="#F27067" stroke-linecap="round"/>
<path class="anim-element delay-11" d="M74.7484 155.103L83.0801 115.339L96.5062 51.1888" stroke="#F27067" stroke-linecap="round"/>
<path class="anim-element delay-12" d="M147.837 72.0257L119.96 100.755L74.9893 147.103" stroke="#F27067" stroke-linecap="round"/>
<path class="anim-element delay-13" d="M101.282 148.945L98.0545 48.1545" stroke="#27BAA6" stroke-width="0.909091"/>
<path class="anim-element delay-14" d="M128.382 146.391L99.8636 50.4545" stroke="#27BAA6" stroke-width="0.909091"/>
<path class="anim-element delay-15" d="M148.183 127.26L43.6353 101.813" stroke="#14D5C2" stroke-width="0.909091"/>
</g>
<mask id="mask5_1_682" style="mask-type:luminance" maskUnits="userSpaceOnUse" x="90" y="39" width="201" height="201">
<path  d="M90.9091 39.0909H290.909V239.091H90.9091V39.0909Z" fill="white"/>
</mask>
<g class="anim-element delay-2" mask="url(#mask5_1_682)">
<path d="M105.455 46.3455C105.455 50.3546 102.2 53.6 98.1818 53.6C94.1636 53.6 90.9091 50.3546 90.9091 46.3455C90.9091 42.3364 94.1636 39.0818 98.1818 39.0818C102.2 39.0818 105.455 42.3364 105.455 46.3455Z" fill="#CCC1A3"/>
<path d="M96.3636 43.1818C97.1818 43.1818 97.8364 43.3727 98.2727 43.7636C98.7273 44.1636 98.8818 44.7273 98.7818 45.2909C98.6455 46.0636 98.0364 46.8455 97.1091 47.4273H98.7545L99.6545 43.4L100.536 43.5909L100.436 44.0364L99.6909 47.4273H101.055V48.3364H99.4818L99.1273 49.9364L98.2455 49.7364L98.3455 49.2909L98.5545 48.3364H95.3V47.2546L95.6 47.1455C97.0273 46.6455 97.7727 45.7546 97.8818 45.1273C97.9364 44.8364 97.8636 44.6182 97.6727 44.4455C97.4636 44.2636 97.0636 44.0909 96.3636 44.0909H95.9091V43.1818H96.3636Z" fill="black"/>
</g>
<mask id="mask6_1_682" style="mask-type:luminance" maskUnits="userSpaceOnUse" x="139" y="65" width="201" height="201">
<path d="M139.091 65.4546H339.091V265.455H139.091V65.4546Z" fill="white"/>
</mask>
<g class="anim-element delay-3" mask="url(#mask6_1_682)">
<path d="M153.636 72.7091C153.636 76.7182 150.382 79.9637 146.364 79.9637C142.345 79.9637 139.091 76.7182 139.091 72.7091C139.091 68.7 142.345 65.4455 146.364 65.4455C150.382 65.4455 153.636 68.7 153.636 72.7091Z" fill="#CCC1A3"/>
<path d="M149.855 72.7273C149.855 74.6546 148.291 76.2182 146.364 76.2182C144.436 76.2182 142.882 74.6546 142.882 72.7273C142.882 70.8 144.436 69.2455 146.364 69.2455C148.291 69.2455 149.855 70.8 149.855 72.7273ZM147.427 72.7273C147.427 73.3091 146.945 73.7909 146.364 73.7909C145.782 73.7909 145.309 73.3091 145.309 72.7273C145.309 72.1455 145.782 71.6728 146.364 71.6728C146.945 71.6728 147.427 72.1455 147.427 72.7273ZM146.518 72.7273C146.518 72.6455 146.445 72.5818 146.364 72.5818C146.282 72.5818 146.218 72.6455 146.218 72.7273C146.218 72.8091 146.282 72.8818 146.364 72.8818C146.445 72.8818 146.518 72.8091 146.518 72.7273ZM148.945 72.7273C148.945 71.3091 147.782 70.1546 146.364 70.1546C144.945 70.1546 143.791 71.3091 143.791 72.7273C143.791 74.1455 144.945 75.3091 146.364 75.3091C147.782 75.3091 148.945 74.1455 148.945 72.7273Z" fill="black"/>
</g>
<mask id="mask7_1_682" style="mask-type:luminance" maskUnits="userSpaceOnUse" x="146" y="91" width="201" height="201">
<path d="M146.364 91.8182H346.364V291.818H146.364V91.8182Z" fill="white"/>
</mask>
<g class="anim-element delay-4" mask="url(#mask7_1_682)">
<path d="M160.909 99.0728C160.909 103.082 157.655 106.327 153.636 106.327C149.618 106.327 146.364 103.082 146.364 99.0728C146.364 95.0637 149.618 91.8091 153.636 91.8091C157.655 91.8091 160.909 95.0637 160.909 99.0728Z" fill="#CCC1A3"/>
<path d="M155 97.2728C155 98.0273 154.391 98.6364 153.636 98.6364C152.882 98.6364 152.273 98.0273 152.273 97.2728C152.273 96.5182 152.882 95.9091 153.636 95.9091C154.391 95.9091 155 96.5182 155 97.2728ZM154.091 97.2728C154.091 97.0182 153.891 96.8182 153.636 96.8182C153.382 96.8182 153.182 97.0182 153.182 97.2728C153.182 97.5273 153.382 97.7273 153.636 97.7273C153.891 97.7273 154.091 97.5273 154.091 97.2728ZM153.182 101.364H151.964V100.455H153.182V100.118C151.809 99.9 150.755 98.7091 150.755 97.2728V96.8182H151.664V97.2728C151.664 98.3637 152.545 99.2455 153.636 99.2455C154.727 99.2455 155.6 98.3637 155.6 97.2728V96.8182H156.509V97.2728C156.509 98.7091 155.464 99.9 154.091 100.118V100.455H155.3V101.364H154.091V102.573H153.182V101.364Z" fill="black"/>
</g>
<mask id="mask8_1_682" style="mask-type:luminance" maskUnits="userSpaceOnUse" x="140" y="119" width="201" height="201">
<path d="M140.909 119.091H340.909V319.091H140.909V119.091Z" fill="white"/>
</mask>
<g class="anim-element delay-5" mask="url(#mask8_1_682)">
<path d="M155.455 126.345C155.455 130.355 152.2 133.6 148.182 133.6C144.164 133.6 140.909 130.355 140.909 126.345C140.909 122.336 144.164 119.082 148.182 119.082C152.2 119.082 155.455 122.336 155.455 126.345Z" fill="#CCC1A3"/>
<path d="M150.455 125.155C150.455 126.255 149.673 127.173 148.636 127.382V127.727H149.845V128.636H148.636V129.855H147.727V128.636H146.518V127.727H147.727V127.382C146.691 127.173 145.909 126.255 145.909 125.155C145.909 123.9 146.927 122.882 148.182 122.882C149.436 122.882 150.455 123.9 150.455 125.155ZM149.545 125.155C149.545 124.4 148.936 123.791 148.182 123.791C147.427 123.791 146.818 124.4 146.818 125.155C146.818 125.909 147.427 126.518 148.182 126.518C148.936 126.518 149.545 125.909 149.545 125.155Z" fill="black"/>
</g>
<mask id="mask9_1_682" style="mask-type:luminance" maskUnits="userSpaceOnUse" x="121" y="139" width="201" height="201">
<path d="M121.818 139.091H321.818V339.091H121.818V139.091Z" fill="white"/>
</mask>
<g class="anim-element delay-6" mask="url(#mask9_1_682)">
<path d="M136.364 146.345C136.364 150.355 133.109 153.6 129.091 153.6C125.073 153.6 121.818 150.355 121.818 146.345C121.818 142.336 125.073 139.082 129.091 139.082C133.109 139.082 136.364 142.336 136.364 146.345Z" fill="#CCC1A3"/>
<path d="M131.364 145.755C131.364 146.855 130.582 147.773 129.545 147.982V148.027H130.755V148.936H129.545V149.845H128.636V148.936H127.418V148.027H128.636V147.982C127.6 147.773 126.818 146.855 126.818 145.755C126.818 145.082 127.109 144.482 127.573 144.064C127.555 144.055 127.536 144.055 127.518 144.045C127.336 143.955 127.2 143.864 127.109 143.791C127.064 143.755 127.027 143.727 127 143.7C126.991 143.691 126.973 143.682 126.964 143.673L126.955 143.664L126.627 143.336L127.273 142.691L127.591 143.009C127.591 143.009 127.591 143.009 127.6 143.018C127.609 143.027 127.627 143.045 127.655 143.064C127.709 143.109 127.8 143.164 127.927 143.227C128.145 143.336 128.473 143.455 128.9 143.482H129.091H129.282C129.709 143.455 130.027 143.336 130.245 143.227C130.373 143.164 130.464 143.109 130.518 143.064C130.545 143.045 130.573 143.027 130.582 143.018L130.591 143.009L130.909 142.691L131.545 143.336L131.218 143.664L131.209 143.673C131.2 143.682 131.182 143.691 131.173 143.7C131.145 143.727 131.109 143.755 131.064 143.791C130.973 143.864 130.836 143.955 130.655 144.045C130.636 144.055 130.618 144.055 130.6 144.064C131.064 144.482 131.364 145.082 131.364 145.755ZM130.455 145.755C130.455 145 129.845 144.391 129.091 144.391C128.336 144.391 127.727 145 127.727 145.755C127.727 146.509 128.336 147.118 129.091 147.118C129.845 147.118 130.455 146.509 130.455 145.755Z" fill="black"/>
</g>
<mask id="mask10_1_682" style="mask-type:luminance" maskUnits="userSpaceOnUse" x="93" y="147" width="201" height="201">
<path d="M93.6364 147.273H293.636V347.273H93.6364V147.273Z" fill="white"/>
</mask>
<g class="anim-element delay-7" mask="url(#mask10_1_682)">
<path d="M108.182 154.527C108.182 158.536 104.927 161.782 100.909 161.782C96.8909 161.782 93.6364 158.536 93.6364 154.527C93.6364 150.518 96.8909 147.264 100.909 147.264C104.927 147.264 108.182 150.518 108.182 154.527Z" fill="#CCC1A3"/>
<path d="M103.182 152.918L101.891 154.2C102.127 154.564 102.273 154.991 102.273 155.455C102.273 156.709 101.255 157.727 100 157.727C98.7454 157.727 97.7273 156.709 97.7273 155.455C97.7273 154.2 98.7454 153.182 100 153.182C100.464 153.182 100.891 153.318 101.255 153.555L102.536 152.273H101.364V151.364H103.445L103.482 151.327L103.518 151.364H104.091V151.936L104.127 151.973L104.091 152.009V154.091H103.182V152.918ZM101.364 155.455C101.364 155.082 101.209 154.736 100.964 154.491C100.718 154.246 100.373 154.091 100 154.091C99.2454 154.091 98.6364 154.7 98.6364 155.455C98.6364 156.209 99.2454 156.818 100 156.818C100.755 156.818 101.364 156.209 101.364 155.455Z" fill="black"/>
</g>
<mask id="mask11_1_682" style="mask-type:luminance" maskUnits="userSpaceOnUse" x="67" y="141" width="201" height="201">
<path d="M67.2727 141.818H267.273V341.818H67.2727V141.818Z" fill="white"/>
</mask>
<g class="anim-element delay-8" mask="url(#mask11_1_682)">
<path d="M81.8182 149.073C81.8182 153.082 78.5636 156.327 74.5455 156.327C70.5273 156.327 67.2727 153.082 67.2727 149.073C67.2727 145.064 70.5273 141.809 74.5455 141.809C78.5636 141.809 81.8182 145.064 81.8182 149.073Z" fill="#CCC1A3"/>
<path d="M76.9727 150.155C76.9727 151.491 75.8818 152.573 74.5455 152.573C73.2091 152.573 72.1182 151.491 72.1182 150.155C72.1182 149.309 72.5546 148.564 73.2091 148.127C73 147.936 72.8364 147.727 72.7 147.545C72.3182 147.036 72.1546 146.818 71.8182 146.818H71.3636V145.909H71.8182C72.6909 145.909 73.1364 146.6 73.4364 147C73.7727 147.445 74.0273 147.727 74.5455 147.727C75.0636 147.727 75.3182 147.445 75.6546 147C75.9546 146.6 76.4 145.909 77.2727 145.909H77.7273V146.818H77.2727C76.9364 146.818 76.7727 147.036 76.3909 147.545C76.2546 147.727 76.0818 147.936 75.8727 148.127C76.5273 148.564 76.9727 149.309 76.9727 150.155ZM76.0636 150.155C76.0636 149.318 75.3818 148.636 74.5455 148.636C73.7091 148.636 73.0273 149.318 73.0273 150.155C73.0273 150.991 73.7091 151.664 74.5455 151.664C75.3818 151.664 76.0636 150.991 76.0636 150.155Z" fill="black"/>
</g>
<mask id="mask12_1_682" style="mask-type:luminance" maskUnits="userSpaceOnUse" x="38" y="95" width="201" height="201">
<path d="M38.1818 95.4546H238.182V295.455H38.1818V95.4546Z" fill="white"/>
</mask>
<g class="anim-element delay-9" mask="url(#mask12_1_682)">
<path d="M52.7273 102.709C52.7273 106.718 49.4727 109.964 45.4546 109.964C41.4364 109.964 38.1818 106.718 38.1818 102.709C38.1818 98.7 41.4364 95.4455 45.4546 95.4455C49.4727 95.4455 52.7273 98.7 52.7273 102.709Z" fill="#CCC1A3"/>
<path d="M46.3818 100.182C45.6182 100.073 44.8182 100.309 44.2273 100.909C43.2364 101.918 43.2364 103.546 44.2273 104.555C44.8182 105.155 45.6182 105.391 46.3818 105.282C46.1364 105.146 45.9 104.973 45.6909 104.764C44.5818 103.637 44.5818 101.828 45.6909 100.7C45.9 100.491 46.1364 100.318 46.3818 100.182ZM43.5818 100.273C44.7273 99.1094 46.4818 98.9367 47.8091 99.7548L48.0273 99.8912V100.737L47.6 100.764C47.1455 100.791 46.6909 100.982 46.3364 101.337C45.5727 102.109 45.5727 103.355 46.3364 104.128C46.6909 104.482 47.1455 104.673 47.6 104.7L48.0273 104.718V105.573L47.8091 105.7C46.4818 106.528 44.7273 106.355 43.5818 105.191C42.2364 103.828 42.2364 101.637 43.5818 100.273Z" fill="black"/>
</g>
<mask id="mask13_1_682" style="mask-type:luminance" maskUnits="userSpaceOnUse" x="33" y="34" width="201" height="201">
<path  d="M33.2909 34.3455H233.291V234.345H33.2909V34.3455Z" fill="white"/>
</mask>
<g class="anim-element delay-1" mask="url(#mask13_1_682)">
<g opacity="0.5">
<path fill-rule="evenodd" clip-rule="evenodd" d="M114.383 37.5484L113.368 41.9045C113.576 41.9338 113.79 41.974 114.021 42.0272C114.233 42.0762 114.435 42.1321 114.628 42.186L115.633 37.8742C115.615 37.8701 115.597 37.8661 115.58 37.862C115.462 37.8442 115.356 37.8197 115.232 37.7911C114.922 37.7195 114.643 37.6363 114.383 37.5484ZM116.722 38.0045L115.662 42.5554C116.194 42.8369 116.6 43.1824 116.854 43.5769C117.244 44.1895 117.143 44.7074 117.121 44.8048C117.042 45.1039 116.737 45.2947 116.427 45.2231L116.418 45.2211C116.108 45.1495 115.92 44.8354 115.998 44.5362C116.041 44.2289 115.631 43.4998 113.742 43.0731C111.8 42.6341 111.024 43.1267 110.884 43.4489C110.764 43.729 110.433 43.8673 110.14 43.7623C109.847 43.6573 109.692 43.3602 109.786 43.0741C109.809 43.0141 110.24 41.8353 112.195 41.7735L113.283 37.0986C111.745 36.2024 111.879 35.0577 111.885 34.9936C111.928 34.6863 112.21 34.4717 112.527 34.5167C112.845 34.5529 113.061 34.8268 113.029 35.1273C113.014 35.4782 113.502 36.2721 115.435 36.709C117.324 37.1358 118.012 36.6602 118.112 36.3475C118.206 36.0613 118.519 35.8814 118.818 35.9598C119.117 36.0382 119.303 36.3237 119.235 36.616C119.213 36.7135 119.076 37.2231 118.457 37.6026C118.01 37.882 117.421 38.0073 116.722 38.0045Z" fill="#D0B894"/>
<path fill-rule="evenodd" clip-rule="evenodd" d="M40.7441 124.736C41.2724 124.958 41.7746 125.16 41.9315 125.616C42.0262 125.891 41.8797 126.191 41.6046 126.286C41.3467 126.375 41.0638 126.251 40.9578 125.999C40.8707 125.914 40.556 125.782 40.3424 125.692L40.3338 125.695C39.7507 125.453 39.0867 125.172 38.8795 124.571C38.6664 123.952 39.0726 123.456 39.405 123.053L39.4021 123.045C39.5782 122.83 39.8169 122.546 39.7725 122.417C39.7459 122.34 39.4809 122.296 39.2679 122.264C38.7813 122.191 38.0298 122.075 37.7575 121.284C37.4941 120.519 37.983 119.956 38.3157 119.582C38.6 119.263 38.6964 119.124 38.6579 119.013C38.581 118.789 38.3327 118.682 37.9143 118.528C37.4959 118.374 36.9795 118.187 36.8019 117.671C36.7072 117.396 36.8567 117.104 37.1317 117.009C37.4068 116.915 37.7072 117.061 37.799 117.328C37.8514 117.396 38.1083 117.5 38.2727 117.559L38.2813 117.556C38.7545 117.729 39.4153 117.973 39.655 118.669C39.8977 119.374 39.4515 119.893 39.1188 120.267L39.1102 120.27C38.7918 120.63 38.6983 120.777 38.7575 120.949C38.8138 121.113 38.9264 121.16 39.4245 121.239L39.4331 121.236C39.8794 121.303 40.5387 121.403 40.7696 122.074C41.0004 122.744 40.5574 123.3 40.225 123.703L40.2164 123.706C40.0943 123.854 39.8671 124.144 39.8796 124.236C39.9358 124.399 40.4611 124.612 40.7441 124.736ZM41.2782 117.38C40.8598 117.226 40.3433 117.038 40.1657 116.522C40.071 116.247 40.2205 115.955 40.4956 115.861C40.7706 115.766 41.0711 115.913 41.1628 116.179C41.2152 116.248 41.4692 116.343 41.6336 116.402L41.6452 116.407C42.1184 116.581 42.7821 116.833 43.0218 117.529C43.2645 118.234 42.8153 118.744 42.4827 119.119C42.1642 119.478 42.0622 119.629 42.1214 119.801C42.1776 119.964 42.2988 120.009 42.7969 120.087C43.2346 120.158 43.9026 120.255 44.1334 120.925C44.3643 121.595 43.9213 122.152 43.5889 122.555L43.5833 122.566C43.4611 122.714 43.231 122.995 43.2434 123.087C43.2996 123.25 43.8365 123.469 44.1195 123.593C44.6478 123.815 45.1414 124.02 45.2983 124.476C45.393 124.751 45.2521 125.04 44.9771 125.134C44.7192 125.223 44.4276 125.102 44.3216 124.85C44.2346 124.765 43.9228 124.642 43.7092 124.552L43.6977 124.546C43.1145 124.304 42.4535 124.032 42.2463 123.43C42.0332 122.812 42.4451 122.304 42.7689 121.904C42.945 121.69 43.1807 121.397 43.1363 121.268C43.1097 121.191 42.8448 121.148 42.6317 121.115C42.1451 121.042 41.3966 120.935 41.1243 120.144C40.8609 119.379 41.3584 118.813 41.6911 118.439C41.9754 118.12 42.0603 117.976 42.0218 117.864C41.9448 117.64 41.6965 117.534 41.2782 117.38Z" fill="#D0B894"/>
<path fill-rule="evenodd" clip-rule="evenodd" d="M79.9374 43.1676C80.3369 44.328 81.6054 44.9681 82.74 44.5774C83.8832 44.1837 84.4774 42.9215 84.0692 41.7641C83.6696 40.6037 82.4128 39.9692 81.2696 40.3629C80.1349 40.7535 79.5378 42.0071 79.9374 43.1676ZM83.8626 35.9702L83.8712 35.9673C84.1634 35.8667 84.4899 36.0331 84.5935 36.3339C84.6971 36.6348 84.5479 36.9553 84.2556 37.056C84.1955 37.0767 83.1963 37.4977 82.8251 39.2119C83.8657 39.4978 84.7619 40.2853 85.1437 41.3941C85.7619 43.1619 84.8465 45.0827 83.1159 45.669C81.3852 46.2553 79.4812 45.3053 78.8629 43.5375C78.49 42.4545 78.6858 41.3198 79.2869 40.4687C77.9011 39.2921 76.8201 39.5874 76.7686 39.6051C76.4734 39.6972 76.1554 39.5278 76.0518 39.227C75.9483 38.9261 76.109 38.6112 76.4013 38.5105C76.4786 38.4839 78.1524 37.9556 80.0984 39.67C80.3382 39.5009 80.5985 39.3632 80.8907 39.2626C81.1486 39.1738 81.4213 39.128 81.6827 39.1053C82.1523 36.588 83.7852 35.9969 83.8626 35.9702Z" fill="#D0B894"/>
<path d="M55.0645 53.0159C53.7872 52.9687 52.5857 53.7474 52.135 54.9292C51.9461 55.4326 51.9203 55.9519 52.0468 56.4432C51.5683 56.4392 51.1026 56.5631 50.6708 56.8323C49.6011 57.5073 49.0748 58.8389 49.3731 60.0818C49.6675 61.2863 50.4426 61.8034 51.0521 62.0205C51.7153 62.258 52.5487 62.259 52.8795 62.0128C53.1316 61.8197 53.2053 61.4571 53.0109 61.1922C52.846 60.9632 52.5358 60.8972 52.2888 61.0122C52.1552 61.032 51.6479 61.0632 51.1881 60.7924C50.8383 60.5883 50.6177 60.2549 50.5079 59.8007C50.3303 59.0562 50.6677 58.2279 51.2998 57.829C51.8648 57.4691 52.5267 57.5647 53.1668 58.0888L56.8385 61.0951L56.8948 61.1412C57.148 61.3485 57.512 61.3058 57.7193 61.0525C57.9267 60.7993 57.8967 60.4341 57.6435 60.2268L57.5872 60.1807L53.9155 57.1744L53.8593 57.1283C53.2192 56.6042 52.9949 55.9741 53.2363 55.3492C53.5026 54.6508 54.2479 54.1567 55.0129 54.1838C55.4799 54.2019 55.8444 54.3594 56.1136 54.662C56.4697 55.0594 56.5463 55.5685 56.5462 55.6977C56.4822 55.9625 56.6138 56.2466 56.8709 56.3631C57.169 56.5013 57.5112 56.3703 57.6495 56.0723C57.8255 55.6995 57.6601 54.8826 57.2964 54.2793C56.9634 53.7246 56.3035 53.0668 55.0645 53.0159Z" fill="#D0B894"/>
<path d="M38.5926 82.8989L38.2945 84.996C36.2346 84.5012 35.5948 83.3176 35.5587 83.2482C35.4094 82.9423 35.0261 82.796 34.6958 82.9235C34.3655 83.051 34.205 83.4047 34.3531 83.7196C34.3879 83.798 35.2724 85.5857 38.1218 86.2111L37.9299 87.5612C35.0191 87.3678 33.6714 88.8382 33.6162 88.9038C33.3875 89.156 33.4341 89.5391 33.7158 89.7536C33.9975 89.9681 34.414 89.9446 34.6427 89.6925C34.6864 89.6436 35.6242 88.6659 37.7585 88.7672L37.5064 90.5403C37.4591 90.8733 37.7087 91.1843 38.0688 91.2354C38.4288 91.2866 38.7642 91.0588 38.8115 90.7258L39.0623 88.9617C40.8972 89.4245 41.0921 90.5082 41.0947 90.5545C41.1296 90.89 41.4602 91.1482 41.8228 91.1171C42.1287 91.0963 42.3626 90.8724 42.4009 90.6024C42.4073 90.5574 42.406 90.5022 42.4034 90.4559C42.3879 90.371 42.1436 88.408 39.235 87.7467L39.4281 86.3876C42.4058 86.5629 43.1862 84.7548 43.2248 84.6776C43.2402 84.6339 43.2568 84.5811 43.2632 84.5361C43.3016 84.2661 43.1459 84.0052 42.8591 83.891C42.5286 83.7614 42.1507 83.9005 42.0069 84.2015C41.9825 84.2439 41.4908 85.2483 39.5996 85.1815L39.8977 83.0844C39.945 82.7514 39.6864 82.4392 39.3263 82.388C38.9663 82.3368 38.6399 82.5659 38.5926 82.8989Z" fill="#D0B894"/>
<path fill-rule="evenodd" clip-rule="evenodd" d="M141.308 58.2637C140.97 58.5678 140.443 58.5403 140.139 58.2025C139.835 57.8647 139.862 57.3511 140.2 57.047C140.538 56.7428 141.064 56.7704 141.368 57.1082C141.672 57.446 141.645 57.9595 141.308 58.2637ZM144.73 53.5187C144.722 53.5504 144.422 56.0838 142.777 57.491C142.748 57.0646 142.583 56.6505 142.273 56.3059C141.518 55.481 140.221 55.4131 139.384 56.1545C138.547 56.896 138.48 58.1799 139.235 59.0048C139.911 59.7418 141.005 59.87 141.829 59.3596C142.569 59.1344 143.173 58.7735 143.673 58.3233C145.597 56.6153 145.919 53.7934 145.933 53.6461C145.97 53.3197 145.728 53.011 145.395 52.9807C145.056 52.9436 144.766 53.1923 144.73 53.5187ZM141.796 51.6462C142.134 51.3421 142.654 51.3629 142.958 51.7007C143.262 52.0385 143.235 52.5521 142.898 52.8562C142.56 53.1604 142.034 53.1328 141.729 52.795C141.425 52.4572 141.458 51.9504 141.796 51.6462ZM138.374 56.3913C138.384 56.321 138.69 53.8072 140.32 52.4122C140.35 52.8385 140.521 53.2595 140.831 53.604C141.586 54.4289 142.876 54.4901 143.713 53.7487C144.551 53.0072 144.618 51.7233 143.863 50.8984C143.187 50.1614 142.093 50.0332 141.268 50.5436C140.529 50.7688 139.924 51.1297 139.424 51.5799C137.5 53.2879 137.178 56.1226 137.164 56.2699C137.127 56.5963 137.369 56.8922 137.702 56.9225C138.042 56.9596 138.337 56.7176 138.374 56.3913Z" fill="#D0B894"/>
<path d="M161.026 81.9346C160.91 81.4297 160.382 81.1225 159.85 81.2452C159.319 81.3679 158.987 81.8735 159.104 82.3784C159.221 82.8833 159.751 83.1994 160.282 83.0767C160.814 82.954 161.143 82.4395 161.026 81.9346ZM165.455 82.2838C166.11 82.8602 166.339 83.731 166.142 84.8587C165.99 85.6123 165.578 86.1738 164.933 86.4907C163.311 87.3038 160.717 86.3351 159.669 85.8773C159.192 85.6702 158.306 85.9122 158.191 86.4239C158.076 86.9357 159.148 87.3785 159.224 87.3423C159.555 87.2006 159.941 87.3355 160.087 87.6468C160.234 87.9582 160.084 88.3194 159.755 88.47C158.941 88.8258 158.059 88.3577 157.541 87.8522C157.214 87.5265 156.76 86.6142 157.03 85.8803C157.712 84.5937 158.893 84.1718 160.219 84.7427C161.983 85.5112 163.599 85.7631 164.344 85.3951C164.52 85.3079 164.768 85.1293 164.865 84.6592C164.987 83.9778 164.884 83.4885 164.567 83.2071C163.983 82.6982 162.733 82.8189 162.19 82.9348C161.911 83.5869 161.322 84.1055 160.56 84.2814C159.329 84.5657 158.096 83.8333 157.826 82.664C157.557 81.4948 158.339 80.3159 159.57 80.0316C160.801 79.7474 162.034 80.4798 162.304 81.649L162.306 81.6579C163.082 81.544 164.532 81.4798 165.455 82.2838Z" fill="#D0B894"/>
<path d="M159.371 116.007C159.715 116.588 160.186 117.11 160.79 117.385C161.388 117.649 161.817 117.453 162.027 117.302C162.259 117.138 162.37 116.933 162.41 116.821L159.371 116.007ZM166.203 113.904C166.102 114.281 165.849 114.628 165.491 114.842L165.488 114.851C165.688 115.196 165.738 115.605 165.632 116C165.472 116.597 165.025 117.494 163.874 117.186L163.435 117.068C163.339 117.428 163.099 117.797 162.741 118.077C162.062 118.61 161.17 118.71 160.347 118.339C159.432 117.924 158.787 117.168 158.349 116.345C158.211 116.581 158.069 116.863 157.948 117.141C157.828 117.41 157.516 117.524 157.244 117.414C156.972 117.303 156.859 116.99 156.967 116.727C157.121 116.364 157.459 115.664 157.886 115.195C157.69 114.521 157.621 113.9 157.65 113.475C157.651 113.438 157.66 113.403 157.667 113.376C157.731 113.139 157.956 112.964 158.214 112.986C158.509 113.009 158.723 113.264 158.703 113.55C158.675 113.863 158.734 114.312 158.869 114.79C159.177 114.873 163.846 116.096 163.846 116.096C164.303 116.218 164.545 115.982 164.611 115.736C164.642 115.622 164.699 115.232 164.128 115.079L159.726 113.909C159.446 113.834 159.276 113.553 159.351 113.272C159.427 112.991 159.716 112.824 159.997 112.9C160.023 112.907 163.492 113.836 164.317 114.057C164.985 114.236 165.122 113.83 165.155 113.707C165.188 113.584 165.261 113.134 164.691 112.981L160.289 111.811C160.008 111.735 159.841 111.446 159.916 111.165C159.991 110.884 160.29 110.719 160.571 110.794L164.902 111.946C165.359 112.068 165.592 111.829 165.658 111.583C165.688 111.469 165.743 111.089 165.173 110.936C164.892 110.861 164.724 110.571 164.8 110.29C164.875 110.009 165.173 109.844 165.454 109.92C166.078 110.087 166.389 110.434 166.544 110.701C166.743 111.046 166.791 111.464 166.685 111.859C166.594 112.201 166.365 112.526 166.053 112.743L166.062 112.746C166.261 113.091 166.309 113.509 166.203 113.904Z" fill="#D0B894"/>
<path d="M149.914 145.308C148.834 146.452 147.707 146.407 146.965 146.163C146.451 145.995 146.03 145.713 145.719 145.461L144.59 146.658C144.373 146.891 144 146.904 143.768 146.687C143.535 146.47 143.529 146.116 143.746 145.883L145.253 144.281C145.47 144.048 145.83 144.035 146.063 144.252C146.282 144.457 146.767 144.897 147.327 145.083C147.964 145.292 148.524 145.118 149.07 144.533C149.448 144.128 149.621 143.755 149.608 143.369C149.577 142.657 148.906 142.043 148.58 141.752L148.501 141.678C148.268 141.461 148.249 141.108 148.466 140.875L150.005 139.252C150.222 139.019 150.581 139.007 150.814 139.224C151.047 139.441 151.053 139.794 150.836 140.027L149.694 141.237C150.141 141.691 150.719 142.404 150.758 143.323C150.782 144.017 150.503 144.689 149.914 145.308ZM142.643 144.867C142.426 145.1 142.066 145.112 141.833 144.895C141.601 144.678 141.589 144.331 141.806 144.099L148.057 137.461C148.274 137.228 148.634 137.216 148.867 137.433C149.1 137.65 149.118 138.003 148.901 138.236L142.643 144.867Z" fill="#D0B894"/>
<path d="M114.407 159.628L116.076 160.248C116.223 160.303 116.392 160.268 116.505 160.163C116.618 160.057 116.671 159.902 116.632 159.753L116.469 159.138C116.757 159.127 117.146 159.175 117.202 159.385L118.18 163.076C118.417 163.973 119.467 164.136 120.056 163.98C120.451 163.876 120.781 163.629 120.983 163.293C121.346 163.488 121.761 163.529 122.139 163.429C122.534 163.324 122.872 163.074 123.075 162.739L123.073 162.73C123.414 162.884 123.798 162.914 124.141 162.823C124.537 162.718 124.866 162.471 125.069 162.135C125.226 161.877 125.374 161.443 125.214 160.836C125.141 160.564 124.863 160.403 124.582 160.477C124.301 160.552 124.131 160.832 124.203 161.104C124.35 161.658 123.992 161.8 123.878 161.83C123.641 161.893 123.318 161.809 123.201 161.37L122.088 157.169C122.016 156.897 121.727 156.729 121.446 156.803C121.165 156.878 121.005 157.164 121.078 157.437L122.209 161.708C122.356 162.261 121.99 162.405 121.875 162.436C121.19 162.617 121.114 161.941 121.063 161.748C121.012 161.555 119.997 157.723 119.997 157.723C119.925 157.451 119.644 157.281 119.363 157.355C119.082 157.43 118.914 157.719 118.986 157.991L120.118 162.262C120.264 162.815 119.907 162.957 119.793 162.987C119.555 163.05 119.232 162.967 119.116 162.527L118.213 159.118C117.961 158.169 116.883 158.04 116.201 158.127L116.047 157.547C116.005 157.389 115.869 157.265 115.712 157.241C115.652 157.229 115.597 157.234 115.536 157.25C115.439 157.276 115.354 157.345 115.291 157.428L114.204 159.004C114.129 159.109 114.117 159.243 114.159 159.364C114.2 159.485 114.292 159.583 114.407 159.628Z" fill="#D0B894"/>
<path fill-rule="evenodd" clip-rule="evenodd" d="M57.3624 145.524C57.824 144.973 57.7871 144.183 57.2787 143.756C56.7634 143.324 55.9588 143.42 55.4971 143.97C55.0355 144.52 55.0665 145.318 55.5819 145.75C56.0902 146.177 56.9007 146.074 57.3624 145.524ZM56.8641 146.909C56.1896 147.091 55.4578 146.987 54.9146 146.531C53.9965 145.773 53.9303 144.353 54.767 143.37C55.6038 142.386 57.0209 142.211 57.9391 142.969C58.3221 143.291 58.5534 143.722 58.6391 144.186C59.4651 143.965 60.9347 143.798 62.2104 144.809L62.2174 144.815C62.4124 144.978 62.4393 145.286 62.2581 145.502C62.077 145.718 61.7649 145.764 61.5571 145.602C60.4473 144.718 59.1135 145.035 58.5809 145.217C58.4867 145.541 58.3332 145.852 58.0994 146.13C58.0877 146.144 58.0633 146.159 58.0516 146.173C58.0399 146.187 58.034 146.194 58.0223 146.208C57.9591 146.665 57.7078 147.997 56.7484 149.126C56.6666 149.224 56.6488 149.316 56.6775 149.423C56.7155 149.562 56.8255 149.713 56.9857 149.848C57.3339 150.14 57.7794 150.217 57.8963 150.078L60.6041 146.879C60.7853 146.663 61.1043 146.622 61.3063 146.792C61.5082 146.961 61.5223 147.27 61.3412 147.486L58.6206 150.685C58.5444 150.847 58.7945 151.567 59.2847 151.86C59.5635 152.023 59.7233 151.931 59.8869 151.736C60.0681 151.52 60.3871 151.479 60.5891 151.649C60.791 151.818 60.8051 152.127 60.624 152.343C60.2208 152.823 59.7781 152.927 59.4883 152.933C59.1461 152.93 58.7996 152.806 58.4932 152.549C58.1102 152.227 57.7652 151.677 57.6599 151.137C57.1896 151.146 56.6886 150.951 56.3126 150.636C55.5755 150.029 55.455 149.168 56.0113 148.52C56.4612 147.983 56.7182 147.38 56.8641 146.909Z" fill="#D0B894"/>
<path d="M81.478 164.975C81.4554 165.035 81.4381 165.106 81.441 165.175C81.4407 165.253 81.4638 165.32 81.4955 165.39L81.4922 165.399C81.5239 165.469 81.5672 165.534 81.6255 165.586C81.6838 165.637 81.7539 165.683 81.8219 165.709L84.7625 166.825C85.0685 166.941 85.4085 166.788 85.5247 166.482C85.6409 166.176 85.4847 165.845 85.1788 165.729L83.5725 165.119L87.1978 163.51L87.7701 164.846C87.8987 165.147 88.2471 165.28 88.5488 165.151C88.8504 165.022 88.988 164.686 88.8594 164.384L88.2733 163.033L92.3591 161.21C92.6523 161.079 92.7846 160.73 92.6528 160.437C92.5842 160.285 92.4676 160.182 92.3231 160.127C92.1786 160.072 92.0233 160.072 91.8709 160.14L87.8085 161.953L87.1466 160.418C87.078 160.265 86.9561 160.151 86.8116 160.096C86.6756 160.045 86.5171 160.052 86.3764 160.116C86.0747 160.244 85.9372 160.581 86.0657 160.883L86.7329 162.429L83.0842 164.049L83.6747 162.493C83.7909 162.187 83.638 161.847 83.332 161.731C83.026 161.615 82.686 161.768 82.5698 162.074L81.4792 164.947C81.4759 164.955 81.4812 164.967 81.478 164.975Z" fill="#D0B894"/>
</g>
</g>
<g opacity="0.35">
<path d="M23.3818 93.5545C23.0545 93.5545 22.7727 93.4818 22.5455 93.3454C22.3182 93.2091 22.1455 93.0182 22.0273 92.7818C21.9091 92.5454 21.8545 92.2909 21.8545 92C21.8545 91.7091 21.9091 91.4454 22.0273 91.2091C22.1455 90.9727 22.3182 90.7818 22.5455 90.6454C22.7727 90.5091 23.0545 90.4363 23.3818 90.4363C23.8909 90.4363 24.2182 90.5182 24.3636 90.6636C24.4364 90.7363 24.4818 90.8273 24.5 90.9454C24.5182 91.0636 24.5273 91.2727 24.5273 91.5545H24.3364C24.3182 91.2909 24.2364 91.0727 24.0909 90.9363C23.9455 90.7909 23.7273 90.7273 23.4727 90.7273C23.2364 90.7273 23.0545 90.8273 22.9182 91.0454C22.7818 91.2545 22.7091 91.5818 22.7091 92C22.7091 92.8454 22.9818 93.2727 23.5091 93.2727C23.7091 93.2727 23.8818 93.2273 24.0182 93.1363C24.1545 93.0454 24.2909 92.9091 24.4182 92.7363L24.6182 92.8909C24.4909 93.0818 24.3455 93.2363 24.1545 93.3636C23.9636 93.4909 23.7091 93.5545 23.3818 93.5545ZM20.1091 93.5545C19.6091 93.5545 19.2727 93.4636 19.0818 93.2909C19.0182 93.2273 18.9727 93.1454 18.9545 93.0273C18.9364 92.9091 18.9273 92.7454 18.9273 92.5363H19.1545C19.1909 92.7545 19.2727 92.9363 19.4091 93.0727C19.5455 93.2 19.7364 93.2727 19.9818 93.2727C20.4091 93.2727 20.6182 93.1273 20.6182 92.8363C20.6182 92.7273 20.5636 92.6363 20.4727 92.5636C20.3818 92.4909 20.2455 92.4091 20.0455 92.3182L19.7091 92.1818C19.4364 92.0636 19.2364 91.9273 19.1 91.7909C18.9636 91.6545 18.9 91.4818 18.9 91.2818C18.9 91.0182 19.0091 90.8091 19.2273 90.6636C19.4545 90.5182 19.7455 90.4363 20.1091 90.4363C20.6091 90.4363 20.9364 90.5273 21.1273 90.7C21.1909 90.7636 21.2364 90.8454 21.2545 90.9636C21.2727 91.0818 21.2818 91.2454 21.2818 91.4545H21.0636C21.0273 91.2363 20.9364 91.0545 20.8 90.9273C20.6636 90.7909 20.4818 90.7273 20.2364 90.7273C20.0545 90.7273 19.9182 90.7636 19.8273 90.8454C19.7364 90.9182 19.6909 91.0273 19.6909 91.1545C19.6909 91.2636 19.7273 91.3545 19.8 91.4273C19.8727 91.4909 19.9909 91.5636 20.1455 91.6273L20.5273 91.7818C20.8455 91.9091 21.0636 92.0545 21.2 92.1909C21.3364 92.3182 21.4091 92.4909 21.4091 92.7091C21.4091 92.9818 21.2909 93.1909 21.0455 93.3363C20.8091 93.4818 20.5 93.5545 20.1091 93.5545ZM15.5636 92.0454H17L16.3 90.3818L15.5636 92.0454ZM18.5273 93.5182C18.2636 93.5182 18.0182 93.4636 17.8 93.3545C17.5818 93.2363 17.4091 93.0182 17.2727 92.6909L17.1273 92.3363H15.4273L14.9091 93.4909H14.5818L16.4545 89.2909H16.7455L18.1636 92.6909C18.3273 93.0818 18.5455 93.3 18.8273 93.3273V93.4818C18.7545 93.5 18.6545 93.5182 18.5273 93.5182Z" fill="#F2E6C4"/>
</g>
<g opacity="0.35">
<path d="M38.4361 147.84C38.5298 147.963 38.5797 148.073 38.5932 148.166C38.5994 148.264 38.5746 148.351 38.5026 148.452C38.4307 148.552 38.2988 148.664 38.1253 148.797L35.4427 150.841L34.9413 150.183L37.6238 148.139C37.7974 148.006 37.9038 147.891 37.952 147.774C37.9929 147.663 37.9702 147.543 37.86 147.399L37.8214 147.348L37.9733 147.232L38.4361 147.84ZM39.6098 149.38C39.7035 149.503 39.7479 149.606 39.7613 149.699C39.7675 149.797 39.7428 149.884 39.6708 149.985C39.5988 150.085 39.4725 150.204 39.299 150.337L36.6164 152.381L36.115 151.723L38.7975 149.679C38.9711 149.546 39.0774 149.431 39.1256 149.314C39.1666 149.203 39.1439 149.083 39.0337 148.939L38.9951 148.888L39.1469 148.772L39.6098 149.38Z" fill="#F2E6C4"/>
</g>
<g opacity="0.35">
<path d="M60.063 166.35C60.1945 166.431 60.273 166.511 60.3187 166.593C60.3596 166.682 60.3678 166.773 60.3366 166.893C60.3054 167.012 60.2301 167.169 60.1154 167.354L58.3426 170.224L57.6389 169.789L59.4116 166.92C59.5263 166.734 59.5844 166.588 59.5876 166.462C59.586 166.343 59.5218 166.24 59.3672 166.144L59.313 166.111L59.4134 165.948L60.063 166.35ZM61.7026 167.363C61.8341 167.444 61.9203 167.529 61.966 167.611C62.0069 167.7 62.0151 167.791 61.9839 167.91C61.9527 168.03 61.8697 168.182 61.755 168.367L59.9822 171.237L59.2784 170.802L61.0512 167.933C61.1659 167.747 61.2239 167.601 61.2271 167.475C61.2256 167.356 61.1614 167.253 61.0067 167.157L60.9526 167.124L61.0529 166.961L61.7026 167.363ZM63.3499 168.38C63.4814 168.462 63.5598 168.542 63.6055 168.624C63.6465 168.713 63.6547 168.804 63.6235 168.923C63.5923 169.043 63.517 169.2 63.4023 169.385L61.6295 172.254L60.9257 171.82L62.6985 168.95C62.8132 168.765 62.8712 168.619 62.8744 168.493C62.8729 168.374 62.8087 168.27 62.654 168.175L62.5999 168.141L62.7003 167.979L63.3499 168.38Z" fill="#F2E6C4"/>
</g>
<g opacity="0.35">
<path d="M85.6732 180.453C85.7355 180.702 85.7999 180.878 85.8833 180.992C85.9576 181.105 86.0749 181.179 86.1978 181.217L86.1782 181.342L85.9073 181.309C85.6289 181.265 85.3948 181.174 85.2051 181.033C85.0154 180.893 84.8771 180.66 84.793 180.316L84.1646 177.806L82.3515 180.688L82.0372 180.639L84.5021 176.709L84.7535 176.748L85.6732 180.453ZM87.4741 177.239C87.6267 177.263 87.7303 177.307 87.8041 177.364C87.8765 177.431 87.9191 177.511 87.9368 177.633C87.9544 177.756 87.9457 177.929 87.9119 178.145L87.3901 181.477L86.5728 181.349L87.0946 178.017C87.1283 177.801 87.1253 177.644 87.0793 177.527C87.0319 177.418 86.9326 177.347 86.753 177.319L86.6901 177.309L86.7196 177.121L87.4741 177.239Z" fill="#F2E6C4"/>
</g>
<g opacity="0.35">
<path d="M119.033 179.911C119.179 180.121 119.302 180.263 119.421 180.34C119.53 180.419 119.657 180.448 119.785 180.44L119.811 180.564L119.555 180.628C119.28 180.686 119.019 180.685 118.792 180.621C118.565 180.557 118.353 180.388 118.152 180.096L116.675 177.972L116.01 181.308L115.69 181.375L116.61 176.825L116.859 176.772L119.033 179.911Z" fill="#F2E6C4"/>
</g>
<g opacity="0.35">
<path d="M151.85 159.16C151.969 159.061 152.077 159.007 152.169 158.989C152.267 158.979 152.355 159 152.459 159.068C152.562 159.136 152.679 159.263 152.819 159.431L154.973 162.026L154.336 162.554L152.182 159.959C152.043 159.791 151.93 159.684 151.811 159.641C151.699 159.604 151.573 159.638 151.433 159.754L151.384 159.795L151.262 159.648L151.85 159.16ZM157.645 158.84C157.872 158.958 158.047 159.026 158.188 159.039C158.322 159.058 158.447 159.024 158.557 158.957L158.638 159.055L158.441 159.23C158.224 159.41 157.994 159.531 157.763 159.58C157.532 159.63 157.266 159.579 156.952 159.415L154.654 158.226L155.623 161.486L155.371 161.695L154.062 157.242L154.257 157.079L157.645 158.84Z" fill="#F2E6C4"/>
</g>
<g opacity="0.35">
<path d="M186.5 104.391C186.173 104.391 185.891 104.318 185.664 104.182C185.436 104.046 185.264 103.855 185.145 103.618C185.027 103.382 184.973 103.127 184.973 102.836C184.973 102.546 185.027 102.282 185.145 102.046C185.264 101.809 185.436 101.618 185.664 101.482C185.891 101.346 186.173 101.273 186.5 101.273C187.009 101.273 187.345 101.355 187.491 101.5C187.564 101.573 187.6 101.664 187.618 101.782C187.636 101.9 187.645 102.109 187.645 102.391H187.455C187.436 102.127 187.355 101.909 187.209 101.773C187.064 101.627 186.855 101.564 186.6 101.564C186.364 101.564 186.173 101.664 186.036 101.882C185.9 102.091 185.836 102.418 185.836 102.836C185.836 103.682 186.1 104.109 186.627 104.109C186.827 104.109 187 104.064 187.136 103.973C187.273 103.882 187.409 103.746 187.536 103.573L187.736 103.727C187.609 103.918 187.464 104.073 187.273 104.2C187.082 104.327 186.827 104.391 186.5 104.391ZM183.227 104.391C182.727 104.391 182.391 104.3 182.2 104.127C182.136 104.064 182.091 103.982 182.073 103.864C182.055 103.746 182.045 103.582 182.045 103.373H182.273C182.309 103.591 182.391 103.773 182.527 103.909C182.664 104.036 182.855 104.109 183.1 104.109C183.527 104.109 183.736 103.964 183.736 103.673C183.736 103.564 183.682 103.473 183.591 103.4C183.5 103.327 183.364 103.246 183.164 103.155L182.827 103.018C182.555 102.9 182.355 102.764 182.218 102.627C182.082 102.491 182.018 102.318 182.018 102.118C182.018 101.855 182.127 101.646 182.345 101.5C182.573 101.355 182.864 101.273 183.227 101.273C183.727 101.273 184.055 101.364 184.245 101.536C184.309 101.6 184.355 101.682 184.373 101.8C184.391 101.918 184.4 102.082 184.4 102.291H184.182C184.145 102.073 184.055 101.891 183.918 101.764C183.782 101.627 183.6 101.564 183.355 101.564C183.173 101.564 183.036 101.6 182.945 101.682C182.855 101.755 182.809 101.864 182.809 101.991C182.809 102.1 182.845 102.191 182.918 102.264C182.991 102.327 183.109 102.4 183.264 102.464L183.645 102.618C183.964 102.746 184.182 102.891 184.318 103.027C184.455 103.155 184.527 103.327 184.527 103.546C184.527 103.818 184.409 104.027 184.164 104.173C183.927 104.318 183.618 104.391 183.227 104.391ZM179.055 104.073C179.355 104.073 179.618 104 179.845 103.855C180.082 103.709 180.255 103.491 180.382 103.209C180.509 102.927 180.582 102.6 180.582 102.227C180.582 101.855 180.509 101.536 180.382 101.264C180.255 100.982 180.082 100.764 179.845 100.609C179.609 100.455 179.345 100.382 179.045 100.382H178.991C178.855 100.382 178.736 100.391 178.655 100.409L178.518 100.427V104.027L178.655 104.055C178.745 104.064 178.855 104.073 178.991 104.073H179.055ZM177.691 100.955C177.691 100.736 177.664 100.582 177.6 100.482C177.536 100.373 177.427 100.318 177.245 100.318H177.182V100.127H178.909C179.764 100.127 180.418 100.309 180.864 100.673C181.309 101.036 181.536 101.546 181.536 102.2C181.536 102.618 181.445 103 181.255 103.318C181.064 103.636 180.782 103.882 180.409 104.064C180.036 104.246 179.591 104.327 179.073 104.327H177.691V100.955Z" fill="#F2E6C4"/>
</g>
<g opacity="0.35">
<path d="M166.823 60.6253C166.734 60.4991 166.688 60.3869 166.677 60.2939C166.675 60.1956 166.703 60.1091 166.778 60.0111C166.853 59.9131 166.989 59.8059 167.167 59.6798L169.92 57.7308L170.398 58.406L167.645 60.355C167.467 60.481 167.357 60.5926 167.305 60.7076C167.26 60.8173 167.278 60.9379 167.383 61.0863L167.42 61.1382L167.264 61.2485L166.823 60.6253ZM165.704 59.0449C165.615 58.9188 165.574 58.814 165.564 58.721C165.561 58.6227 165.589 58.5361 165.664 58.4382C165.74 58.3402 165.87 58.2255 166.048 58.0995L168.801 56.1505L169.279 56.8257L166.526 58.7746C166.348 58.9007 166.238 59.0123 166.186 59.1272C166.141 59.237 166.159 59.3575 166.264 59.5059L166.301 59.5578L166.145 59.6682L165.704 59.0449ZM164.59 57.472C164.501 57.3459 164.455 57.2337 164.445 57.1406C164.442 57.0423 164.47 56.9558 164.545 56.8578C164.621 56.7599 164.757 56.6526 164.935 56.5265L167.687 54.5776L168.165 55.2528L165.413 57.2017C165.235 57.3278 165.119 57.4319 165.067 57.5469C165.022 57.6566 165.046 57.7846 165.151 57.933L165.187 57.9849L165.032 58.0952L164.59 57.472ZM164.715 51.6696C164.85 51.4514 164.931 51.2827 164.955 51.1433C164.984 51.0113 164.96 50.8833 164.901 50.7689L165.005 50.6954L165.165 50.9053C165.328 51.1353 165.43 51.3746 165.462 51.6082C165.494 51.8419 165.423 52.1037 165.235 52.4041L163.874 54.604L167.199 53.8876L167.388 54.1547L162.847 55.1197L162.7 54.912L164.715 51.6696Z" fill="#F2E6C4"/>
</g>
<g opacity="0.35">
<path d="M146.863 37.3269L146.907 35.6658C146.921 35.4542 146.897 35.2496 146.84 35.0443C146.783 34.839 146.705 34.6964 146.603 34.6039L146.676 34.4992L147.251 34.8977C147.431 35.0219 147.559 35.1881 147.623 35.3985C147.695 35.6141 147.716 35.839 147.712 36.0684L147.674 37.0814L149.576 36.5072L149.912 36.7401L147.671 37.4218L147.618 39.2542C147.604 39.4658 147.621 39.6653 147.678 39.8706C147.735 40.0758 147.813 40.2184 147.915 40.311L147.842 40.4156L147.267 40.0172C147.088 39.8929 146.967 39.7319 146.895 39.5163C146.831 39.3059 146.809 39.0811 146.813 38.8517L146.854 37.6747L144.786 38.299L144.442 38.0609L146.863 37.3269ZM143.65 37.5123C143.522 37.4243 143.448 37.3398 143.407 37.2559C143.371 37.1644 143.367 37.0736 143.405 36.9557C143.442 36.8379 143.525 36.6855 143.65 36.5061L145.57 33.7333L146.25 34.2042L144.33 36.9771C144.206 37.1565 144.14 37.2991 144.13 37.425C144.126 37.5434 144.184 37.6504 144.334 37.7539L144.386 37.7901L144.277 37.947L143.65 37.5123Z" fill="#F2E6C4"/>
</g>
<g opacity="0.35">
<path d="M92.0492 24.4959C91.8961 24.5171 91.7753 24.5064 91.688 24.4726C91.5994 24.4298 91.5354 24.3653 91.4831 24.2533C91.4308 24.1412 91.3981 23.9714 91.368 23.7553L90.9039 20.4146L91.7233 20.3008L92.1874 23.6414C92.2175 23.8575 92.2567 24.0081 92.3348 24.1074C92.4116 24.1977 92.5361 24.2354 92.7162 24.2104L92.7793 24.2017L92.8055 24.3908L92.0492 24.4959ZM88.2827 23.0183L87.1999 21.7645C87.0668 21.5994 86.9105 21.4651 86.7296 21.3526C86.5488 21.24 86.3947 21.188 86.2571 21.1887L86.2396 21.0627L86.9329 20.9664C87.1491 20.9363 87.3469 20.9731 87.5368 21.0844C87.7356 21.1944 87.9034 21.3455 88.0558 21.5171L88.7227 22.2872L89.7243 20.5785L90.1385 20.521L88.9415 22.5413L90.1434 23.9254C90.2765 24.0905 90.4328 24.2248 90.6137 24.3373C90.7945 24.4499 90.9486 24.5019 91.0862 24.5012L91.1037 24.6272L90.4104 24.7235C90.1943 24.7536 89.9964 24.7168 89.7975 24.6068C89.6077 24.4955 89.4399 24.3444 89.2875 24.1728L88.5118 23.2802L87.4119 25.1401L87.0067 25.1964L88.2827 23.0183Z" fill="#F2E6C4"/>
</g>
<g opacity="0.35">
<path d="M57.7904 36.4229C57.6649 36.5131 57.5604 36.5546 57.4675 36.5654C57.3692 36.5689 57.2825 36.5416 57.184 36.4669C57.0855 36.3921 56.9699 36.2625 56.8426 36.0853L54.8745 33.3463L55.5463 32.8636L57.5144 35.6025C57.6417 35.7797 57.754 35.8893 57.8694 35.9408C57.9794 35.9848 58.0998 35.9655 58.2475 35.8594L58.2992 35.8222L58.4106 35.9773L57.7904 36.4229ZM56.2253 37.5475C56.0998 37.6377 55.9879 37.6845 55.895 37.6954C55.7967 37.6988 55.71 37.6716 55.6115 37.5968C55.513 37.5221 55.4048 37.3871 55.2775 37.2099L53.3094 34.471L53.9812 33.9882L55.9493 36.7272C56.0766 36.9044 56.1816 37.0192 56.2969 37.0707C56.4069 37.1148 56.5347 37.0901 56.6824 36.984L56.7341 36.9469L56.8455 37.1019L56.2253 37.5475ZM52.2044 37.9964L50.6619 37.3921C50.4672 37.3081 50.2663 37.2622 50.0538 37.2469C49.8414 37.2317 49.6808 37.2575 49.5595 37.3223L49.4852 37.2189L50.0536 36.8105C50.2308 36.6831 50.423 36.6234 50.6428 36.6334C50.8701 36.638 51.089 36.6934 51.3037 36.7742L52.2527 37.1445L52.3422 35.1659L52.6818 34.9219L52.5648 37.2673L54.2735 37.9314C54.4681 38.0154 54.6691 38.0613 54.8815 38.0766C55.094 38.0918 55.2545 38.066 55.3759 38.0012L55.4502 38.1045L54.8817 38.513C54.7045 38.6403 54.5124 38.7001 54.2851 38.6954C54.0653 38.6855 53.8464 38.6301 53.6316 38.5493L52.5292 38.1213L52.4233 40.2796L52.0911 40.5183L52.2044 37.9964Z" fill="#F2E6C4"/>
</g>
<g opacity="0.35">
<path d="M112.815 22.6107L112.089 21.1215C112.003 20.9278 111.886 20.758 111.74 20.6029C111.594 20.4478 111.458 20.3581 111.325 20.3236L111.34 20.1973L112.035 20.2816C112.252 20.3079 112.434 20.3941 112.589 20.5502C112.753 20.7075 112.876 20.8965 112.98 21.1014L113.427 22.0165L114.833 20.6211L115.248 20.6715L113.574 22.3182L114.381 23.9638C114.468 24.1575 114.585 24.3273 114.731 24.4824C114.877 24.6375 115.012 24.7272 115.145 24.7617L115.13 24.888L114.435 24.8037C114.219 24.7774 114.037 24.6912 113.873 24.534C113.718 24.3778 113.594 24.1888 113.491 23.9839L112.969 22.9225L111.43 24.439L111.024 24.3897L112.815 22.6107Z" fill="#F2E6C4"/>
</g>
</g>
<defs>
<radialGradient id="paint0_radial_1_682" cx="0" cy="0" r="1" gradientUnits="userSpaceOnUse" gradientTransform="translate(100 104.505) scale(70.0408)">
<stop stop-color="#F2E6C4"/>
<stop offset="1" stop-color="#F2E6C4" stop-opacity="0"/>
</radialGradient>
</defs>
</svg>
