<svg width="310" height="388" viewBox="0 0 310 388" fill="none" xmlns="http://www.w3.org/2000/svg">
<path d="M192.423 310.969C186.117 310.065 180.077 309.427 174.383 308.994C167.85 308.495 161.77 308.267 156.263 308.219C149.21 308.157 143.103 308.39 138.157 308.723C126.903 309.482 121.69 310.767 125.263 310.311C123.597 310.523 121.917 310.763 120.237 311.024C114.73 311.88 109.103 313.004 103.45 314.335C103.45 312.173 103.45 310.012 103.45 307.851C103.45 304.227 103.45 300.603 103.45 296.978C103.45 293.172 103.45 289.365 103.45 285.559C103.45 285.368 103.45 285.179 103.45 284.988C103.45 284.547 103.45 284.104 103.45 283.663C103.45 279.224 103.45 274.785 103.45 270.347C103.45 265.909 103.45 261.471 103.45 257.032C103.45 255.814 103.45 254.595 103.45 253.376C103.45 250.156 103.45 246.936 103.45 243.718C103.45 241.21 103.45 238.702 103.45 236.194C103.45 234.263 103.45 232.332 103.45 230.401C103.45 225.963 103.45 221.526 103.45 217.087C103.45 212.648 103.45 208.21 103.45 203.771C103.45 199.976 103.45 196.182 103.45 192.387C103.45 191.743 103.45 191.099 103.45 190.456C103.45 188.487 103.45 186.518 103.45 184.548C103.45 182.083 103.45 179.603 103.45 177.136C103.45 172.696 103.45 168.269 103.45 163.829C103.45 159.389 103.45 154.95 103.45 150.51C103.45 146.07 103.45 141.63 103.45 137.19C103.45 132.75 103.45 128.323 103.45 123.883C103.45 119.443 103.45 115.003 103.45 110.563C103.45 106.123 103.45 101.683 103.45 97.2429C103.45 92.8029 103.45 88.3761 103.45 83.9361C103.45 82.0161 103.45 80.0828 103.45 78.1628C103.45 76.2828 103.45 74.3895 103.45 72.4961C108.41 73.6428 113.477 74.6695 118.637 75.5495C124.53 76.5495 130.557 77.3762 136.69 77.9895C142.663 78.5762 148.757 78.9761 154.917 79.1361C160.957 79.2961 167.063 79.2296 173.237 78.9096C179.29 78.6029 185.397 78.0428 191.53 77.2295C196.383 76.5761 201.25 75.7628 206.143 74.7628C206.143 75.6295 206.143 76.4962 206.143 77.3495C206.143 79.5495 206.143 81.7361 206.143 83.9361C206.143 88.3761 206.143 92.8029 206.143 97.2429C206.143 101.683 206.143 106.123 206.143 110.563C206.143 115.003 206.143 119.443 206.143 123.883C206.143 128.323 206.143 132.75 206.143 137.19C206.143 141.63 206.143 146.07 206.143 150.51C206.143 154.95 206.143 159.389 206.143 163.829C206.143 168.269 206.143 172.696 206.143 177.136C206.143 181.576 206.143 186.018 206.143 190.456C206.143 194.895 206.143 199.332 206.143 203.771C206.143 208.21 206.143 212.648 206.143 217.087C206.143 221.526 206.143 225.963 206.143 230.401C206.143 234.84 206.143 239.279 206.143 243.718C206.143 248.155 206.143 252.595 206.143 257.032C206.143 261.471 206.143 265.909 206.143 270.347C206.143 274.785 206.143 279.224 206.143 283.663C206.143 288.101 206.143 292.539 206.143 296.978C206.143 300.168 206.143 303.357 206.143 306.547C206.143 308.797 206.143 311.05 206.143 313.3C201.45 312.379 196.863 311.605 192.423 310.969ZM238.863 296.978C238.863 292.539 238.863 288.101 238.863 283.663C238.863 279.224 238.863 274.785 238.863 270.347C238.863 265.909 238.863 261.471 238.863 257.032C238.863 252.595 238.863 248.155 238.863 243.718C238.863 239.279 238.863 234.84 238.863 230.401C238.863 225.963 238.863 221.526 238.863 217.087C238.863 212.648 238.863 208.21 238.863 203.771C238.863 199.332 238.863 194.895 238.863 190.456C238.863 186.018 238.863 181.576 238.863 177.136C238.863 172.696 238.863 168.269 238.863 163.829C238.863 159.389 238.863 154.95 238.863 150.51C238.863 146.07 238.863 141.63 238.863 137.19C238.863 132.75 238.863 128.323 238.863 123.883C238.863 119.443 238.863 115.003 238.863 110.563C238.863 106.123 238.863 101.683 238.863 97.2429C238.863 92.8029 238.863 88.3761 238.863 83.9361C238.863 80.4028 238.863 76.8695 238.863 73.3361C238.863 70.7095 238.863 68.0828 238.863 65.4695C240.65 64.8028 242.597 64.0828 244.663 63.2695C249.65 61.3361 255.33 59.0028 261.183 56.4028C266.53 54.0295 272.037 51.4295 277.303 48.7361C283.01 45.8161 288.437 42.7628 293.09 39.7361C299.65 35.4561 304.663 31.2161 306.73 27.4028C306.93 27.0428 307.103 26.6961 307.263 26.3628C308.383 24.0428 308.943 21.9095 309.077 19.9628C309.13 19.1095 309.103 18.2828 309.01 17.4961C308.917 16.7095 308.743 15.9496 308.503 15.2429C308.277 14.5229 307.983 13.8428 307.637 13.2028C307.303 12.5628 306.903 11.9496 306.477 11.3762C305.837 10.5229 305.103 9.73622 304.33 9.04289C303.557 8.33622 302.743 7.72289 301.903 7.17622C301.077 6.64289 300.237 6.17617 299.437 5.7895C298.623 5.40284 297.85 5.09612 297.13 4.86945C294.463 4.00279 291.957 4.02945 289.33 4.73612C285.65 5.72279 281.73 8.05622 276.743 11.1762C272.957 13.5496 268.557 16.3762 263.197 19.4162C258.997 21.8029 254.21 24.3096 248.65 26.8429C244.143 28.8829 239.143 30.9495 233.543 32.9628C228.903 34.6295 223.85 36.2562 218.343 37.8162C215.81 38.5229 213.183 39.2296 210.463 39.9096C207.997 40.5362 205.517 41.0962 203.037 41.6162C197.863 42.7095 192.663 43.5895 187.45 44.2829C182.197 44.9895 176.917 45.4828 171.65 45.7895C166.33 46.0962 161.023 46.2162 155.717 46.1495C150.37 46.0829 145.037 45.8162 139.743 45.3762C134.383 44.9229 129.05 44.2828 123.783 43.4695C118.45 42.6428 113.17 41.6296 107.957 40.4429C102.677 39.2429 97.4768 37.8561 92.3701 36.2961C87.1701 34.7228 82.09 32.9629 77.1167 31.0429C72.05 29.0829 67.1299 26.9495 62.3433 24.6695C57.4766 22.3361 52.7699 19.8428 48.2232 17.1895C43.6632 14.5228 39.2633 11.6962 35.0633 8.72284C32.9167 7.20284 30.8233 5.64284 28.7967 4.05617C26.7967 2.49617 24.7033 1.42956 22.5967 0.776223C19.8367 -0.0637774 17.0367 -0.197163 14.3967 0.256171C13.2633 0.456171 12.1433 0.74953 11.0766 1.14953C10.0099 1.54953 8.99655 2.04286 8.02322 2.6162C7.06322 3.18953 6.16994 3.84289 5.34327 4.57622C4.5166 5.29622 3.75676 6.0962 3.10342 6.94953C2.49009 7.74953 1.94342 8.58953 1.50342 9.48286C1.05009 10.3762 0.690092 11.2962 0.436758 12.2562C0.183425 13.2162 0.036602 14.2028 0.00993532 15.2028C-0.0300647 16.2161 0.0499874 17.2429 0.263321 18.2829C0.583321 19.8429 1.71671 21.7762 3.58337 23.9895C6.55671 27.5228 11.4233 31.7628 17.8766 36.2961C22.3299 39.4161 27.5299 42.6962 33.4099 45.9762C38.3566 48.7229 43.77 51.4829 49.5967 54.1762C54.8367 56.6029 60.4099 58.9495 66.2766 61.1895C67.7433 61.7495 69.2367 62.3096 70.73 62.8429C70.73 66.6162 70.73 70.3762 70.73 74.1495C70.73 77.4162 70.73 80.6695 70.73 83.9361C70.73 88.3761 70.73 92.8029 70.73 97.2429C70.73 97.6029 70.73 97.9362 70.73 98.2829C70.73 102.376 70.73 106.469 70.73 110.563C70.73 115.003 70.73 119.443 70.73 123.883C70.73 128.323 70.73 132.75 70.73 137.19C70.73 141.63 70.73 146.07 70.73 150.51C70.73 154.95 70.73 159.389 70.73 163.829C70.73 166.149 70.73 168.47 70.73 170.79C70.73 172.91 70.73 175.016 70.73 177.136C70.73 179.776 70.73 182.403 70.73 185.031C70.73 186.839 70.73 188.647 70.73 190.456C70.73 191.616 70.73 192.778 70.73 193.939C70.73 197.216 70.73 200.494 70.73 203.771C70.73 207.59 70.73 211.41 70.73 215.228C70.73 215.526 70.73 215.824 70.73 216.122C70.73 216.443 70.73 216.764 70.73 217.087C70.73 221.526 70.73 225.963 70.73 230.401C70.73 234.84 70.73 239.279 70.73 243.718C70.73 248.155 70.73 252.595 70.73 257.032C70.73 261.471 70.73 265.909 70.73 270.347C70.73 274.785 70.73 279.224 70.73 283.663C70.73 288.101 70.73 292.539 70.73 296.978C70.73 302.583 70.73 308.187 70.73 313.792C70.73 317.265 70.73 320.738 70.73 324.212C69.9167 324.508 69.1168 324.8 68.3034 325.101C62.6101 327.24 57.05 329.514 51.73 331.876C46.05 334.403 40.6234 337.028 35.5834 339.694C29.8367 342.728 24.5834 345.814 19.9834 348.86C13.9034 352.884 8.95665 356.84 5.52999 360.523C2.04999 364.244 0.116706 367.687 0.116706 370.635C0.116706 371.175 0.210039 371.789 0.383373 372.459C0.556706 373.128 0.809935 373.851 1.14327 374.607C1.4766 375.362 1.8766 376.149 2.34327 376.947C2.80994 377.745 3.33004 378.554 3.91671 379.35C4.73004 380.452 5.63655 381.532 6.62322 382.532C7.59655 383.532 8.66337 384.453 9.78337 385.236C10.9034 386.017 12.0633 386.663 13.2633 387.112C14.4633 387.562 15.6768 387.815 16.9034 387.815C19.4901 387.815 22.01 386.852 24.8633 385.257C27.49 383.792 30.3968 381.795 33.9034 379.5C35.0234 378.763 36.1565 378.038 37.2899 377.32C41.6899 374.519 46.1168 371.866 50.5701 369.368C55.1968 366.772 59.8499 364.342 64.5433 362.082C69.3433 359.766 74.1833 357.627 79.0633 355.674C84.0233 353.692 89.0233 351.899 94.0633 350.302C99.13 348.695 104.25 347.286 109.423 346.079C114.583 344.878 119.783 343.878 125.063 343.082C130.25 342.296 135.503 341.711 140.837 341.328C146.037 340.955 151.29 340.777 156.637 340.797C161.81 340.816 167.05 341.026 172.357 341.422C177.503 341.806 182.703 342.363 187.983 343.107C191.85 343.652 195.77 344.296 199.73 345.04C201.023 345.284 202.303 345.539 203.557 345.797C209.077 346.931 214.223 348.194 219.01 349.556C224.49 351.118 229.517 352.807 234.143 354.568C239.53 356.618 244.37 358.764 248.743 360.924C253.983 363.508 258.557 366.108 262.61 368.578C267.677 371.662 271.93 374.539 275.65 376.925C280.77 380.213 284.877 382.564 288.703 383.224C290.343 383.507 291.917 383.482 293.517 383.082C294.463 382.843 295.41 382.47 296.383 381.951C297.343 381.432 298.33 380.768 299.33 379.946C300.317 379.144 301.317 378.194 302.357 377.079C303.037 376.355 303.717 375.561 304.437 374.697C304.743 374.263 305.037 373.836 305.303 373.415C305.797 372.652 306.223 371.911 306.57 371.188C306.917 370.466 307.21 369.763 307.423 369.078C307.65 368.392 307.81 367.724 307.903 367.071C307.997 366.419 308.037 365.783 308.023 365.16C307.97 363.46 307.49 361.864 306.677 360.336C304.303 355.932 299.05 352.09 292.65 347.944C291.917 347.467 291.17 346.986 290.41 346.499C286.01 343.702 281.597 341.106 277.183 338.688C271.837 335.771 266.49 333.12 261.17 330.715C255.623 328.212 250.09 325.974 244.623 323.976C242.69 323.274 240.77 322.611 238.863 321.967C238.863 318.678 238.863 315.389 238.863 312.101C238.863 307.06 238.863 302.019 238.863 296.978Z" fill="#61EAF3"/>
</svg>
