<svg width="302" height="480" viewBox="0 0 302 480" fill="none" xmlns="http://www.w3.org/2000/svg">
<path d="M90.1806 352.419C82.2873 354.556 73.954 354.677 66.0874 352.757C61.4874 351.636 57.0607 349.821 52.954 347.3C50.3007 345.667 47.9141 343.797 45.7941 341.741C39.8208 335.944 35.9539 328.645 34.1139 320.883C32.2873 313.169 32.4741 305 34.5941 297.391C36.6208 290.12 40.4073 283.363 45.9139 278.008C52.3273 271.773 59.8344 267.889 67.6077 266.153C75.1677 264.46 82.954 264.807 90.2207 266.98C96.954 269.012 103.234 272.623 108.434 277.683C119.221 288.189 125.341 304.924 121.208 326.575C118.568 331.972 115.167 336.587 111.261 340.405C105.207 346.316 97.9006 350.329 90.1806 352.419ZM300.181 384.028C298.914 375.151 296.634 367.668 294.074 362.828C292.861 360.519 291.581 358.807 290.327 357.836C289.367 357.097 288.207 356.653 286.927 356.452C285.647 356.251 284.247 356.292 282.794 356.521C281.341 356.749 279.834 357.168 278.341 357.72C276.848 358.271 275.381 358.957 273.994 359.724C273.021 360.267 272.074 360.851 271.208 361.455C270.341 362.059 269.541 362.684 268.834 363.312C268.141 363.939 267.528 364.569 267.034 365.181C266.541 365.795 266.168 366.391 265.941 366.951C264.928 369.472 265.154 372.309 265.874 375.736C266.608 379.271 267.861 383.437 268.794 388.544C269.487 392.317 270.008 396.601 270.008 401.528C270.008 406.544 269.434 411.219 268.394 415.515C266.221 424.523 261.967 431.856 256.514 437.145C250.741 442.747 243.621 446.056 236.181 446.624C229.794 447.111 223.168 445.573 216.968 441.725C213.581 439.621 210.314 436.829 207.287 433.299C204.781 430.368 202.608 427.356 200.768 424.265C195.941 416.205 193.274 407.605 192.301 398.469C191.368 389.559 192.048 380.139 193.901 370.213C195.674 360.839 198.488 351.015 202.008 340.745C205.341 331.013 209.301 320.88 213.594 310.351C217.674 300.3 222.047 289.889 226.461 279.12C230.701 268.716 234.981 257.98 239.034 246.913C242.994 236.1 246.741 224.98 250.061 213.54C253.314 202.313 256.154 190.793 258.368 178.967C260.501 167.567 262.047 155.9 262.821 143.94C263.181 138.3 263.381 132.58 263.381 126.82C263.381 120.14 263.034 113.687 262.368 107.46C260.941 94.0066 258.034 81.62 253.901 70.4067C249.061 57.2333 242.514 45.6999 234.701 35.9666C226.021 25.1932 215.781 16.6466 204.527 10.58C192.341 4.0333 178.967 0.406554 165.114 0.0332208C152.007 -0.326779 138.474 2.23325 125.114 7.99325C113.674 12.9266 102.354 20.1932 91.541 29.9932C91.0077 30.4599 90.4876 30.9399 89.9676 31.4332C80.6876 40.0999 73.9806 51.0733 69.3139 63.0466C64.5406 75.3266 61.9141 88.6733 60.8608 101.673C60.7541 103.073 60.6476 104.487 60.5676 105.873C60.0342 118.513 61.2208 129.9 63.7275 140.633C66.5675 152.847 71.114 164.22 76.754 175.673C81.6874 185.687 87.461 195.767 93.6744 206.487C98.9144 215.527 104.461 225.033 110.074 235.353C111.314 237.633 112.541 239.953 113.781 242.3C111.501 240.807 108.981 239.447 106.261 238.26C103.274 236.953 100.047 235.847 96.6473 234.967C85.6073 232.113 72.6873 231.673 59.7806 234.66C45.8339 237.9 31.9275 245.14 20.4608 257.673C11.9008 267.02 6.22082 277.411 3.06082 288.125C-0.96585 301.753 -0.899288 315.903 2.55405 329.089C6.03405 342.401 12.9674 354.732 22.6207 364.557C32.154 374.259 44.3407 381.517 58.4874 384.863C67.3007 386.949 76.8873 387.515 87.0473 386.201C91.1273 385.676 95.1406 384.845 99.0473 383.733C112.194 380 124.261 373.031 134.074 363.248C143.274 354.075 150.488 342.431 154.741 328.667C155.088 327.553 155.421 326.427 155.727 325.285C158.981 313.133 160.127 301.607 159.727 290.573C159.234 277.605 156.581 265.313 152.568 253.513C148.714 242.167 143.621 231.26 138.021 220.62C132.674 210.46 126.888 200.553 121.274 190.713C115.794 181.087 110.474 171.54 105.941 161.913C101.461 152.393 97.7277 142.793 95.341 132.98C93.0344 123.5 91.9677 113.82 92.6744 103.793C93.301 94.7266 95.3942 85.3933 99.3009 75.6866C99.3409 75.5933 99.3677 75.5133 99.4077 75.4199C103.234 66.0199 108.501 58.0467 114.687 51.54C121.421 44.42 129.234 39.0466 137.394 35.4466C145.434 31.8866 153.808 30.0466 161.834 29.9666C162.434 29.9532 163.034 29.9666 163.634 29.98C172.314 30.2466 181.261 33.1266 189.594 37.7533C197.834 42.3133 205.474 48.58 211.701 55.7133C216.448 61.14 220.367 67.0733 223.087 73.1533C224.087 75.3799 225.007 77.7132 225.847 80.1932C228.634 88.3799 230.488 98.0333 231.208 109.54C231.768 118.753 231.594 129.167 230.568 140.993C229.714 150.74 228.288 161.433 226.208 173.233C225.808 175.487 225.394 177.78 224.941 180.113C223.234 188.567 221.221 196.767 218.954 204.753C215.927 215.46 212.474 225.78 208.794 235.78C204.901 246.367 200.754 256.607 196.568 266.553C192.088 277.196 187.581 287.515 183.327 297.601C178.687 308.608 174.354 319.337 170.674 329.911C166.581 341.692 163.328 353.283 161.408 364.845C160.168 372.24 159.487 379.624 159.487 387.041C159.487 392.187 159.861 397.439 160.594 402.696C162.341 415.353 166.194 428.041 172.074 439.348C178.608 451.897 187.634 462.744 199.061 469.951C208.367 475.819 219.261 479.277 231.701 479.277C234.954 479.277 238.207 479.008 241.421 478.493C255.047 476.317 268.101 469.591 278.621 458.792C284.247 453.013 289.154 446.076 293.021 438.037C295.341 433.203 297.101 428.161 298.381 423.063C301.794 409.533 301.847 395.599 300.181 384.028Z" fill="#61EAF3"/>
</svg>
