<svg width="325" height="410" viewBox="0 0 325 410" fill="none" xmlns="http://www.w3.org/2000/svg">
<path d="M323.627 16.1064C323.254 14.5851 322.667 13.0731 321.92 11.6251C321.174 10.1771 320.267 8.79443 319.227 7.53177C318.2 6.2691 317.054 5.1278 315.827 4.1638C315.2 3.6678 314.56 3.21846 313.894 2.82246C313.24 2.42779 312.56 2.08778 311.894 1.80911C311.214 1.53045 310.52 1.31314 309.84 1.16647C309.16 1.0198 308.467 0.942445 307.8 0.942445C304.547 0.942445 301.067 2.49312 297.04 5.48912C294.28 7.53179 291.28 10.2398 287.907 13.6118C287.427 14.0958 286.947 14.5825 286.467 15.0691C284.093 17.4665 281.787 19.8838 279.52 22.3225C273.907 28.3718 268.614 34.5464 263.654 40.8318C258.52 47.3278 253.72 53.9438 249.267 60.6611C244.68 67.5825 240.453 74.6131 236.573 81.7358C232.6 89.0478 229 96.4558 225.76 103.941C222.467 111.592 219.547 119.324 217.014 127.117C214.427 135.045 212.253 143.036 210.467 151.072C208.653 159.205 207.253 167.378 206.24 175.565C205.56 181.072 205.067 186.592 204.747 192.098C202.88 192.098 201.014 192.098 199.12 192.098C195.614 192.098 192.067 192.098 188.48 192.098C184.04 192.098 179.56 192.112 175.054 192.112C170.587 192.112 166.107 192.112 161.627 192.125C157.134 192.125 152.654 192.125 148.187 192.138C143.68 192.138 139.2 192.152 134.76 192.165C131.867 192.165 129 192.165 126.147 192.178C124.094 192.178 122.054 192.178 120.027 192.192C119.747 188.098 119.36 184.005 118.867 179.898C117.907 171.765 116.52 163.592 114.707 155.405C113.907 151.845 113.054 148.272 112.08 144.7C111.067 140.357 109.92 136.076 108.667 131.852C106.293 123.837 103.547 116.042 100.52 108.52C97.3737 100.746 93.92 93.2611 90.2667 86.1025C86.44 78.5865 82.3733 71.4345 78.2 64.6998C73.6933 57.4305 69.0534 50.6518 64.4401 44.4225C59.2134 37.3571 54.0001 31.0025 49.0401 25.4572C42.7068 18.3865 36.76 12.6331 31.6667 8.39446C28.52 5.7878 25.7068 3.75178 23.3068 2.33978C21.2534 1.12911 19.5067 0.370471 18.1333 0.102471C17.4667 -0.0281955 16.7869 -0.0308543 16.0802 0.0771457C15.3869 0.183812 14.6671 0.401112 13.9604 0.709112C13.2404 1.01711 12.5335 1.41716 11.8135 1.88782C11.1069 2.35982 10.4001 2.90247 9.70677 3.4998C8.4001 4.62914 7.13344 5.95047 5.97344 7.3358C4.81344 8.72247 3.77354 10.1731 2.88021 11.5624C2.00021 12.9518 1.2801 14.2798 0.773438 15.4198C0.280104 16.5585 0 17.5105 0 18.1465C0 20.0385 0.787083 22.0864 2.62708 24.6144C4.01375 26.5278 6.01354 28.7171 8.74688 31.3225C9.69354 32.2358 10.7335 33.1998 11.8802 34.2225C16.2002 38.1131 20.3604 42.1624 24.3604 46.3598C29.3604 51.6171 34.0935 57.1064 38.5469 62.8011C43.0269 68.5198 47.2267 74.4451 51.1333 80.5558C55.0533 86.6825 58.6802 92.9971 62.0135 99.4691C65.3469 105.949 68.3735 112.588 71.0802 119.362C73.8002 126.134 76.2002 133.042 78.2802 140.06C80.4002 147.204 82.1735 154.458 83.6135 161.805C85.0002 168.938 86.0802 176.152 86.8135 183.432C87.1069 186.365 87.3337 189.312 87.5203 192.258C85.307 192.272 83.1471 192.272 81.0271 192.272C76.2938 192.285 71.8 192.298 67.6 192.312C62.7067 192.325 58.2004 192.338 54.1604 192.352C48.8004 192.378 44.2667 192.392 40.7333 192.405C35.36 192.432 32.307 192.445 32.187 192.445C30.3336 192.552 28.7204 192.965 27.2938 193.605C25.2804 194.512 23.6935 195.898 22.4802 197.578C21.9469 198.312 21.4934 199.098 21.1068 199.925C20.7201 200.752 20.4002 201.618 20.1469 202.512C19.8935 203.392 19.6938 204.312 19.5604 205.245C19.4271 206.165 19.3467 207.112 19.3333 208.045C19.3067 209.072 19.347 210.085 19.4536 211.085C19.547 212.072 19.72 213.045 19.9333 213.978C20.1467 214.898 20.4269 215.778 20.7469 216.605C21.0802 217.418 21.4535 218.178 21.8802 218.845C23.1735 220.912 24.5338 222.325 27.2938 223.285C30.0004 224.218 34.0533 224.712 40.7333 224.952C44.36 225.085 48.7738 225.125 54.1604 225.125C58.0938 225.125 62.5467 225.098 67.6 225.058C71.6667 225.018 76.1338 224.978 81.0271 224.925C83.0404 224.898 85.1334 224.885 87.3068 224.858C87.2401 225.605 87.187 226.352 87.1203 227.098C86.507 234.312 85.5468 241.538 84.2401 248.738C82.9601 255.845 81.3338 262.952 79.3604 270.005C77.4271 276.952 75.1602 283.858 72.5469 290.725C69.9869 297.432 67.1069 304.112 63.8802 310.712C60.7469 317.152 57.2802 323.525 53.4802 329.805C49.7869 335.952 45.7734 342.018 41.4401 347.978C37.2268 353.778 32.7069 359.498 27.8802 365.098C25.4669 367.912 22.9869 370.698 20.4135 373.445C17.9202 376.112 15.3603 378.765 12.7203 381.378C11.5203 382.618 10.6534 383.805 10.0401 384.898C8.2401 388.098 8.60031 390.578 8.98698 391.965C9.25365 392.885 9.66667 393.952 10.2 395.085C10.7333 396.218 11.3869 397.432 12.1469 398.645C12.9202 399.872 13.7869 401.098 14.7469 402.258C15.7069 403.418 16.747 404.525 17.8536 405.512C18.4936 406.072 19.1601 406.592 19.8401 407.058C20.5201 407.512 21.2136 407.925 21.9203 408.272C22.6403 408.605 23.3601 408.885 24.1068 409.085C24.8401 409.272 25.6002 409.392 26.3469 409.405C28.3735 409.458 29.9203 409.138 32.4536 407.312C34.827 405.592 38.08 402.552 43.4 397.232C44.1867 396.445 44.9735 395.645 45.7469 394.832C48.5069 391.992 51.2271 389.058 53.8938 386.032C59.1871 380.018 64.267 373.632 69.1203 366.912C73.8536 360.365 78.3468 353.512 82.5734 346.378C86.7068 339.378 90.5871 332.112 94.1604 324.605C97.6804 317.245 100.894 309.658 103.787 301.872C106.64 294.192 109.174 286.338 111.36 278.312C113.507 270.392 115.307 262.312 116.747 254.112C118.16 246.018 119.2 237.805 119.854 229.498C119.974 227.858 120.094 226.218 120.187 224.578C122.107 224.565 124.08 224.552 126.08 224.552C128.894 224.525 131.787 224.512 134.76 224.498C139.054 224.485 143.534 224.472 148.187 224.458C152.507 224.445 156.987 224.445 161.627 224.445C165.96 224.445 170.427 224.445 175.054 224.458C179.4 224.458 183.88 224.472 188.48 224.485C191.894 224.498 195.36 224.512 198.907 224.538C200.88 224.538 202.88 224.552 204.894 224.565C204.907 224.778 204.92 224.992 204.933 225.218C205.507 233.458 206.467 241.685 207.827 249.872C209.174 257.992 210.907 266.072 213.014 274.085C215.107 282.018 217.574 289.898 220.387 297.685C223.187 305.365 226.32 312.965 229.827 320.458C233.267 327.845 237.067 335.112 241.187 342.272C245.24 349.298 249.614 356.218 254.32 363.005C258.92 369.645 263.84 376.165 269.067 382.538C271.947 386.045 274.92 389.512 277.973 392.925C278.773 393.805 279.56 394.685 280.36 395.552C283.067 398.512 285.6 401.205 288.027 403.432C291.334 406.432 294.454 408.525 297.614 409.072C298.36 409.205 299.12 409.245 299.88 409.192C300.64 409.138 301.4 408.992 302.173 408.738C302.933 408.485 303.72 408.125 304.507 407.645C305.293 407.178 306.093 406.592 306.907 405.872C308.04 404.885 309.2 403.658 310.4 402.165C310.64 401.872 310.867 401.578 311.107 401.258C312.04 400.018 312.854 398.872 313.52 397.805C314.507 396.258 315.214 394.872 315.68 393.578C316.134 392.285 316.347 391.098 316.333 389.952C316.28 387.192 314.893 384.712 312.44 381.738C310.667 379.605 308.36 377.232 305.56 374.325C304.88 373.605 304.213 372.898 303.533 372.178C300.52 368.965 297.627 365.752 294.88 362.538C290.014 356.845 285.547 351.138 281.454 345.445C277.054 339.325 273.08 333.218 269.494 327.165C265.64 320.645 262.24 314.178 259.227 307.792C255.974 300.912 253.187 294.125 250.814 287.498C248.214 280.285 246.107 273.258 244.373 266.458C242.48 258.965 241.053 251.752 240 244.912C238.893 237.778 238.2 231.058 237.787 224.818C239.747 224.832 241.733 224.858 243.733 224.872C247.64 224.912 251.6 224.952 255.654 225.005C259.494 225.045 263.4 225.098 267.387 225.138C267.96 225.152 268.52 225.152 269.08 225.165C274.147 225.232 278.613 225.272 282.507 225.178C288.08 225.072 292.507 224.698 295.947 223.765C299.254 222.872 301.64 221.458 303.254 219.258C303.72 218.618 304.12 217.925 304.467 217.138C304.8 216.365 305.08 215.512 305.294 214.578C305.52 213.658 305.667 212.645 305.773 211.552C305.867 210.525 305.92 209.418 305.92 208.232C305.92 208.165 305.907 208.112 305.907 208.045C305.907 207.058 305.84 206.085 305.707 205.138C305.573 204.205 305.387 203.298 305.133 202.418C304.88 201.552 304.56 200.712 304.187 199.925C303.814 199.138 303.373 198.392 302.867 197.712C301.227 195.458 298.92 193.805 295.947 193.045C295.374 192.912 294.787 192.792 294.173 192.712C293.107 192.578 288.987 192.485 282.507 192.392C278.773 192.352 274.254 192.298 269.08 192.272C264.987 192.245 260.494 192.218 255.654 192.192C251.987 192.178 248.12 192.165 244.094 192.152C242.04 192.152 239.934 192.152 237.787 192.138C238.08 187.792 238.494 183.512 239.014 179.298C239.92 171.872 241.16 164.685 242.68 157.752C244.28 150.445 246.2 143.417 248.373 136.654C250.667 129.546 253.254 122.734 256.054 116.216C259.014 109.344 262.227 102.804 265.614 96.5891C269.2 89.9905 273 83.7624 276.907 77.9038C281.12 71.5984 285.467 65.7185 289.827 60.2718C294.64 54.2531 299.494 48.7611 304.227 43.7918C306.134 41.7785 308.027 39.8504 309.894 38.0091C311.2 36.7304 312.48 35.4891 313.747 34.2945C315.6 32.5398 317.174 31.1624 318.48 29.9758C322.12 26.6931 323.787 24.8745 324.067 20.6411C324.16 19.1585 324 17.6278 323.627 16.1064Z" fill="#61EAF3"/>
</svg>
