<svg width="405" height="413" viewBox="0 0 405 413" fill="none" xmlns="http://www.w3.org/2000/svg">
<path d="M278.252 192.192C281.959 195.717 285.359 199.461 288.452 203.385C295.226 211.962 300.546 221.409 304.346 231.36C306.946 238.154 308.839 245.182 309.999 252.329C310.572 255.809 310.959 259.318 311.186 262.842C311.866 273.533 310.932 284.358 308.346 294.942C306.292 303.313 303.199 311.532 299.039 319.413C298.092 321.466 297.039 323.521 295.906 325.568C291.212 334.045 284.986 342.365 277.586 349.762C277.119 350.238 276.639 350.71 276.146 351.177C272.772 354.441 269.146 357.51 265.332 360.318C261.599 363.062 256.546 366.433 250.026 369.617C242.092 373.484 231.972 377.066 219.359 378.904C213.772 379.717 207.706 380.193 201.119 380.193C196.586 380.193 191.892 379.816 187.132 379.068C176.986 377.473 166.506 374.182 156.426 369.241C146.932 364.593 137.812 358.48 129.626 350.929C128.652 350.029 127.692 349.116 126.746 348.176C120.226 341.694 114.399 334.24 109.612 325.841C104.519 316.912 100.586 306.912 98.2257 295.853C96.6524 288.453 95.7725 280.584 95.7192 272.244C95.7059 269.272 95.8259 266.305 96.0525 263.346C96.8659 252.597 99.2659 241.99 103.253 231.885C105.079 227.282 107.212 222.782 109.679 218.424C112.506 213.416 115.772 208.592 119.466 204.004C126.066 195.805 134.026 188.364 143.319 181.97C145.519 180.453 147.799 178.993 150.159 177.598C156.599 173.782 163.319 170.712 170.212 168.372C177.292 165.964 184.559 164.334 191.866 163.461C193.026 163.322 194.199 163.206 195.372 163.106C198.186 163.305 200.986 163.41 203.799 163.418C206.999 163.426 210.186 163.309 213.372 163.07C214.466 163.161 215.559 163.266 216.653 163.392C216.719 163.398 216.772 163.406 216.839 163.413C226.012 164.473 235.039 166.72 243.706 170.125C251.106 173.04 258.239 176.805 264.946 181.4C269.612 184.597 274.066 188.194 278.252 192.192ZM404.786 11.173C404.666 10.1464 404.359 9.18628 403.839 8.29295C403.306 7.39961 402.559 6.58633 401.532 5.813C399.786 4.50633 396.759 3.51961 392.839 2.95961C388.132 2.26628 382.146 2.19964 375.546 2.91964C368.399 3.70631 360.532 5.43967 352.839 8.34633C346.506 10.7463 340.292 13.9331 334.666 18.0664C334.532 18.1864 334.412 18.3063 334.292 18.4263C327.452 25.1063 321.039 33.3196 314.666 42.253C309.506 49.5063 304.386 57.2397 299.092 65.0397C294.146 72.3064 289.066 79.6264 283.666 86.6664C278.426 93.5064 272.893 100.066 266.919 106.053C261.079 111.906 254.812 117.2 247.972 121.653C246.346 122.72 244.666 123.733 242.972 124.706C237.772 127.64 232.092 130 226.639 131.76C225.066 132.266 223.519 132.733 221.999 133.133C216.172 132.32 210.226 131.88 204.186 131.88C204.119 131.88 204.053 131.88 203.986 131.88C198.426 131.893 192.812 132.28 187.199 133.026C185.212 132.546 183.239 131.986 181.332 131.373C173.452 128.853 166.252 125.293 159.559 120.906C152.919 116.533 146.773 111.333 140.986 105.506C135.079 99.5464 129.533 92.933 124.186 85.8397C119.039 79.0264 114.066 71.773 109.119 64.2797C107.306 61.5463 105.506 58.773 103.692 55.973C100.319 50.7597 97.1057 45.8396 93.8924 41.2263C87.5724 32.1329 81.3057 24.2797 74.0791 17.9463C65.9724 10.8263 56.6392 5.62628 44.6525 2.69295C39.1592 1.35961 33.1057 0.50628 26.3457 0.159614C23.5457 0.0262804 20.6258 -0.0270009 17.5724 0.0129991C13.6124 0.119666 11.0658 0.119666 8.81242 0.746332C7.15908 1.19967 5.65242 1.99964 3.87908 3.45297C2.90575 4.23964 2.17242 5.15972 1.61242 6.13305C1.05242 7.11972 0.67911 8.15972 0.43911 9.19972C0.185777 10.2397 0.0656985 11.2797 0.0256985 12.2397C-0.0276349 13.213 0.0123912 14.1064 0.0523912 14.8664C0.119058 15.7997 0.212443 16.5197 0.23911 16.9331C0.332443 18.1464 0.452417 19.253 0.612417 20.2797C0.892417 22.0263 1.27911 23.5063 1.77244 24.7863C2.27911 26.1063 2.9057 27.1997 3.6257 28.1064C4.3457 29.013 5.15908 29.7329 6.07908 30.2929C7.49242 31.1729 9.13237 31.693 10.959 31.9997C14.2924 32.573 18.2657 32.453 22.6791 32.533C26.9991 32.6264 31.7459 32.9063 36.7192 34.253C41.8392 35.6263 47.2125 38.1196 52.6525 42.653C53.7992 43.6263 54.959 44.6663 56.1056 45.8263C59.639 49.3596 63.2257 54.1197 67.0257 59.7064C71.4924 66.293 76.2792 74.013 81.6525 82.253C86.5992 89.8396 92.0523 97.853 98.239 105.8C104.079 113.306 110.573 120.746 117.919 127.693C125.279 134.68 133.492 141.164 142.746 146.742C140.986 147.613 139.253 148.522 137.519 149.466C133.533 151.645 129.612 154.018 125.812 156.578C119.946 160.517 114.333 164.892 109.053 169.698C104.079 174.217 99.3991 179.117 95.0658 184.368C87.3191 193.766 80.6791 204.305 75.5457 215.901C74.9191 217.328 74.3191 218.776 73.7325 220.233C68.7458 232.685 65.4391 246.284 64.2791 260.934C63.9724 264.82 63.8124 268.777 63.8124 272.806C63.8124 283.058 64.8925 292.958 66.9192 302.437C69.9325 316.525 75.0524 329.673 81.8791 341.626C88.0657 352.48 95.6524 362.353 104.346 371.044C105.519 372.21 106.706 373.349 107.919 374.473C118.146 384.006 129.733 391.977 142.253 398.104C154.773 404.237 168.226 408.528 182.146 410.677C188.932 411.726 195.839 412.268 202.799 412.268C209.972 412.268 217.052 411.689 223.959 410.589C234.612 408.897 244.893 405.958 254.653 401.918C257.759 400.632 260.799 399.23 263.799 397.726C276.346 391.42 287.866 383.252 297.959 373.594C298.732 372.858 299.492 372.114 300.239 371.36C309.332 362.273 317.172 351.95 323.506 340.696C330.172 328.834 335.159 315.933 338.106 302.332C340.106 293.057 341.172 283.46 341.172 273.644C341.172 269.417 340.972 265.224 340.599 261.068C339.346 247.216 336.052 233.818 331.026 221.229C325.932 208.476 319.066 196.556 310.746 185.836C307.626 181.809 304.306 177.946 300.786 174.28C294.839 168.076 288.346 162.422 281.412 157.4C277.719 154.72 273.892 152.22 269.946 149.917C268.399 149.013 266.826 148.142 265.253 147.3C267.813 145.849 270.332 144.305 272.799 142.66C278.986 137.889 284.506 133.173 289.492 128.533C297.532 121.026 304.146 113.72 309.746 106.706C316.319 98.4664 321.492 90.6397 325.972 83.3463C331.212 74.8397 335.506 67.0797 339.972 60.2664C344.252 53.7597 348.666 48.133 354.212 43.5863C354.346 43.4796 354.479 43.373 354.612 43.2664C358.852 39.853 362.906 37.6263 366.732 36.1463C371.319 34.3863 375.572 33.7196 379.479 33.4263C383.799 33.1063 387.666 33.253 391.039 32.8797C394.119 32.5597 396.786 31.7997 398.986 29.9064C399.932 29.0797 400.639 28.2397 401.172 27.373C401.706 26.5064 402.079 25.6263 402.386 24.6797C402.679 23.733 402.906 22.7463 403.159 21.6797C403.266 21.1997 403.386 20.693 403.519 20.173C403.666 19.5997 403.812 19.0397 403.932 18.5064C404.279 17.0797 404.559 15.773 404.719 14.5463C404.879 13.333 404.919 12.213 404.786 11.173Z" fill="#61EAF3"/>
</svg>
