<svg width="465" height="280" viewBox="0 0 465 280" fill="none" xmlns="http://www.w3.org/2000/svg">
<path d="M4.51061 214.412C5.47994 215.226 6.55863 215.812 7.7013 216.252C8.84263 216.692 10.0466 216.972 11.2653 217.159C13.288 217.479 15.3533 217.546 17.2413 217.626C18.0146 217.652 18.8346 217.692 19.7013 217.719C22.3826 217.799 25.4986 217.879 28.9706 217.946C32.3133 218.012 35.9879 218.066 39.9253 218.106C43.8626 218.146 48.0614 218.186 52.4547 218.212C58.6614 218.252 65.2559 218.266 72.0426 218.279C78.8292 218.279 85.8093 218.279 92.7893 218.266C100.121 218.239 107.452 218.212 114.559 218.172C121.665 218.132 128.548 218.079 134.981 218.012C147.999 217.906 159.181 217.759 166.668 217.612C171.1 217.519 174.237 217.426 175.693 217.346C176.16 217.319 176.455 217.292 176.564 217.266C178.487 216.799 179.72 215.812 180.423 214.439C181.773 211.786 181.163 207.692 179.693 203.066C178.223 198.452 175.895 193.292 173.808 188.519C173.251 187.239 172.709 185.999 172.208 184.785C168.407 175.679 165.421 168.492 163.087 161.332C161.549 156.626 160.296 151.932 159.279 146.706C158.263 141.479 157.483 135.706 156.897 128.879C156.684 126.386 156.496 123.746 156.332 120.946C156.067 116.412 155.891 112.45 155.811 108.923C155.664 102.536 155.827 97.6002 156.329 93.4429C157.073 87.2749 158.564 82.8202 160.892 77.8882C161.589 76.4108 162.361 74.8909 163.212 73.2695C165.055 69.7575 167.123 66.4775 169.385 63.4229C172.647 59.0202 176.316 55.0922 180.305 51.6362C184.296 48.1789 188.607 45.1936 193.155 42.6749C197.956 40.0149 203.02 37.8762 208.245 36.2562C213.471 34.6349 218.857 33.5309 224.305 32.9416C229.88 32.3376 235.519 32.2736 241.112 32.7416C246.705 33.2109 252.253 34.2135 257.649 35.7455C262.957 37.2535 268.117 39.2735 273.025 41.8015C277.94 44.3308 282.593 47.3695 286.887 50.9122C290.913 54.2322 294.633 57.9949 297.953 62.1989C301.273 66.4015 304.193 71.0455 306.647 76.1255C308.847 80.7269 310.673 85.6882 312.033 91.0056C313.38 96.3216 314.287 101.995 314.66 108.022C314.727 109.139 314.78 110.266 314.82 111.408C314.953 116.132 314.753 120.826 314.273 125.439C313.673 131.186 312.647 136.826 311.353 142.279C309.5 150.092 307.073 157.532 304.473 164.399C301.887 171.279 299.14 177.586 296.647 183.132C293.993 189.012 291.633 194.026 290.047 197.946C288.767 201.132 287.993 203.599 287.993 205.199C287.993 206.092 288.14 206.906 288.367 207.639C289.033 209.826 290.407 211.292 290.713 211.599C291.287 212.172 292.047 212.612 294.007 212.946C296.94 213.439 302.513 213.706 314.087 213.812C318.567 213.866 323.94 213.892 330.393 213.906C336.86 213.906 344.407 213.906 353.247 213.892C359.18 213.879 365.7 213.866 372.86 213.839C377.127 213.839 381.62 213.826 386.353 213.812C389.26 213.799 392.047 213.799 394.727 213.799C403.94 213.812 411.793 213.879 418.527 213.919C425.273 213.972 430.873 213.999 435.567 213.946C439.593 213.906 442.94 213.799 445.767 213.585C448.593 213.372 450.887 213.066 452.78 212.599C454.687 212.132 456.207 211.519 457.447 210.719C458.7 209.905 459.687 208.906 460.553 207.666C461.033 206.986 461.46 206.159 461.82 205.239C462.18 204.306 462.487 203.279 462.713 202.185C462.927 201.079 463.087 199.919 463.14 198.719C463.207 197.519 463.18 196.292 463.047 195.066C462.953 194.119 462.793 193.172 462.58 192.252C462.353 191.332 462.073 190.426 461.713 189.559C461.353 188.692 460.927 187.852 460.42 187.079C459.927 186.292 459.34 185.559 458.687 184.906C458.167 184.386 457.38 183.919 456.353 183.506C455.327 183.106 454.047 182.746 452.58 182.426C450.447 181.972 447.887 181.612 444.993 181.319C442.087 181.039 438.847 180.826 435.353 180.666C429.447 180.412 422.833 180.319 415.94 180.319C409.047 180.319 401.887 180.412 394.9 180.506C386.9 180.626 379.113 180.746 372.22 180.759C365.34 180.772 359.353 180.679 354.913 180.346C352.313 180.159 350.26 179.892 348.873 179.519C348.393 179.385 348.007 179.252 347.7 179.092C346.487 178.492 345.433 177.892 344.54 177.279C343.593 176.626 342.807 175.972 342.153 175.279C341.513 174.599 341.02 173.879 340.647 173.132C340.207 172.239 339.94 171.279 339.82 170.266C339.7 169.239 339.727 168.146 339.86 166.959C340.113 164.706 340.78 162.119 341.593 159.079C341.7 158.692 341.807 158.292 341.913 157.879C342.553 155.532 343.14 153.199 343.673 150.892C345.567 142.799 346.847 135.012 347.567 127.546C348.287 120.079 348.447 112.923 348.113 106.094C347.687 97.6482 346.5 89.6936 344.62 82.2336C342.753 74.7722 340.193 67.8069 337.06 61.3416C333.487 53.9896 329.167 47.2842 324.233 41.2322C319.287 35.1815 313.74 29.7855 307.713 25.0509C301.62 20.2722 295.06 16.1695 288.153 12.7468C281.247 9.32551 273.996 6.58685 266.551 4.53752C259.193 2.51219 251.645 1.16155 244.044 0.492218C236.443 -0.177115 228.788 -0.165109 221.22 0.536224C213.489 1.25356 205.849 2.68821 198.448 4.85088C191.047 7.01221 183.883 9.90286 177.104 13.5269C170.26 17.1869 163.809 21.5975 157.905 26.7655C152 31.9322 146.641 37.8589 141.98 44.5509C137.836 50.5002 134.243 57.0562 131.311 64.2242C128.377 71.3922 126.103 79.1722 124.595 87.5682C123.403 94.2029 122.689 101.222 122.507 108.628C122.324 116.039 122.672 123.826 123.604 132.026C124.223 137.452 125.097 143.052 126.244 148.826C127.392 154.612 128.812 160.559 130.519 166.679C130.531 166.719 130.541 166.759 130.552 166.799C130.829 167.799 131.056 169.799 130.979 172.026C130.939 173.172 130.82 174.359 130.588 175.506C130.356 176.652 130.011 177.746 129.52 178.692C129.503 178.719 129.489 178.759 129.472 178.785C129.069 179.545 128.683 180.199 128.237 180.785C127.771 181.399 127.239 181.932 126.557 182.385C125.2 183.279 123.244 183.892 120.007 184.306C117.496 184.612 114.215 184.812 109.841 184.919C105.469 185.025 100.008 185.065 93.1387 185.052C88.0507 185.052 82.1919 185.026 75.4306 184.999C68.6679 184.959 61.0053 184.932 52.3107 184.906C48.68 184.906 44.8693 184.892 40.8693 184.892C36.8693 184.892 32.6813 184.892 28.2933 184.892C28.2466 184.892 28.2 184.892 28.1533 184.892C24.4467 184.906 21.0493 184.879 17.9986 184.999C14.9013 185.119 12.1627 185.372 9.82266 185.959C8.58799 186.252 7.46262 186.652 6.45462 187.159C5.44796 187.666 4.5573 188.279 3.79596 189.039C3.2253 189.612 2.72262 190.306 2.28796 191.079C1.85196 191.852 1.48264 192.719 1.17598 193.652C0.870643 194.572 0.626643 195.559 0.442643 196.585C0.25731 197.599 0.133331 198.652 0.0639974 199.719C0.0226641 200.372 0 201.026 0 201.679C0 202.732 0.0452995 203.719 0.131966 204.639C0.283966 206.226 0.562615 207.625 0.946615 208.852C1.34395 210.105 1.85462 211.186 2.45729 212.106C3.05862 213.026 3.75061 213.786 4.51061 214.412Z" fill="#61EAF3"/>
<path d="M464.579 262.745C464.486 261.972 464.366 261.212 464.193 260.452C464.019 259.692 463.806 258.959 463.566 258.225C463.326 257.505 463.046 256.799 462.753 256.132C462.446 255.452 462.113 254.812 461.766 254.199C460.979 252.839 460.193 251.719 459.339 250.785C458.473 249.865 457.566 249.119 456.553 248.532C454.366 247.265 451.713 246.732 448.153 246.505C444.606 246.292 440.166 246.399 434.393 246.439C433.833 246.439 433.246 246.439 432.659 246.439C429.539 246.439 426.433 246.425 423.313 246.425C419.619 246.412 415.926 246.412 412.233 246.399C408.539 246.399 404.846 246.385 401.153 246.385C397.459 246.372 393.766 246.372 390.073 246.359C386.379 246.359 382.686 246.345 378.993 246.345C375.299 246.332 371.593 246.332 367.899 246.319C364.206 246.305 360.513 246.305 356.819 246.292C353.126 246.292 349.433 246.279 345.739 246.279C342.046 246.265 338.353 246.265 334.659 246.252C330.966 246.252 327.273 246.239 323.579 246.239C319.886 246.225 316.193 246.225 312.499 246.212C308.806 246.212 305.113 246.199 301.419 246.199C297.726 246.185 294.033 246.185 290.339 246.172C286.646 246.159 282.953 246.159 279.259 246.145C275.562 246.145 271.869 246.132 268.175 246.132C264.481 246.119 260.787 246.119 257.094 246.105C253.399 246.105 249.706 246.092 246.013 246.092C244.591 246.092 243.171 246.079 241.751 246.079C239.453 246.079 237.185 246.079 234.931 246.079C231.11 246.079 227.353 246.079 223.659 246.079C219.967 246.079 216.337 246.079 212.769 246.079C208.934 246.079 205.17 246.079 201.475 246.079C197.782 246.079 194.158 246.079 190.606 246.079C186.751 246.079 182.979 246.079 179.286 246.079C175.594 246.079 171.981 246.092 168.445 246.092C164.566 246.092 160.781 246.105 157.089 246.105C153.395 246.105 149.795 246.119 146.282 246.119C142.371 246.132 138.571 246.132 134.878 246.145C131.186 246.145 127.601 246.159 124.119 246.172C120.163 246.185 116.342 246.199 112.649 246.212C108.957 246.212 105.394 246.239 101.958 246.252C97.93 246.265 94.0754 246.279 90.3834 246.305C86.6927 246.319 83.1647 246.345 79.7954 246.372C75.6447 246.399 71.7313 246.425 68.042 246.465C64.3527 246.492 60.8874 246.532 57.6328 246.572C53.2114 246.612 49.178 246.679 45.4967 246.732C41.8154 246.799 38.4848 246.852 35.4714 246.919C29.9288 247.052 25.4554 247.199 21.8341 247.345C18.2141 247.505 15.4434 247.679 13.3087 247.879C9.91273 248.185 8.11938 248.532 7.05138 248.919C5.98471 249.319 5.64204 249.759 5.14871 250.252C4.38737 251.012 3.74206 251.892 3.20339 252.839C2.66473 253.785 2.23272 254.825 1.89806 255.905C1.56339 256.999 1.32741 258.132 1.18074 259.292C1.03274 260.452 0.975424 261.639 0.999424 262.812C1.02476 264.092 1.14738 265.372 1.35405 266.612C1.56205 267.839 1.85538 269.039 2.22338 270.132C2.59272 271.239 3.0354 272.265 3.54207 273.172C4.04873 274.079 4.6194 274.852 5.24207 275.479C5.89673 276.132 6.7394 276.679 8.00606 277.132C9.27273 277.585 10.9634 277.945 13.3141 278.239C15.5474 278.505 18.3754 278.719 22.0021 278.865C25.6274 279.025 30.0527 279.132 35.4767 279.199C38.502 279.225 41.838 279.252 45.5193 279.265C49.2007 279.292 53.2288 279.292 57.6381 279.292C60.8968 279.305 64.3633 279.292 68.0527 279.292C71.742 279.292 75.6541 279.279 79.8007 279.279C83.1727 279.265 86.6994 279.265 90.3914 279.252C94.082 279.239 97.9367 279.239 101.963 279.225C105.401 279.225 108.963 279.212 112.655 279.212C116.347 279.199 120.169 279.199 124.126 279.199C127.607 279.199 131.193 279.185 134.885 279.185C138.578 279.185 142.378 279.185 146.289 279.185C149.878 279.185 153.561 279.185 157.339 279.185C157.733 279.185 158.126 279.185 158.521 279.185C161.873 279.185 165.174 279.199 168.45 279.199C172.243 279.199 175.987 279.199 179.681 279.212C183.374 279.212 187.019 279.212 190.613 279.225C194.415 279.225 198.163 279.225 201.857 279.239C205.549 279.239 209.187 279.252 212.775 279.252C216.587 279.265 220.341 279.265 224.034 279.279C227.727 279.279 231.362 279.292 234.938 279.292C238.763 279.305 242.522 279.319 246.215 279.319C249.909 279.332 253.537 279.345 257.099 279.345C260.941 279.359 264.707 279.372 268.401 279.372C272.094 279.385 275.714 279.399 279.259 279.412C283.126 279.425 286.899 279.425 290.593 279.439C294.286 279.452 297.899 279.465 301.419 279.479C305.313 279.492 309.099 279.505 312.793 279.519C316.486 279.519 320.086 279.532 323.593 279.545C327.513 279.559 331.313 279.572 335.006 279.585C338.699 279.599 342.286 279.612 345.753 279.612C349.726 279.625 353.553 279.639 357.246 279.652C360.939 279.665 364.486 279.665 367.913 279.679C371.966 279.692 375.833 279.692 379.526 279.692C383.219 279.705 386.726 279.705 390.073 279.705C394.273 279.705 398.206 279.692 401.899 279.692C405.579 279.679 409.019 279.665 412.233 279.639C416.779 279.612 420.859 279.572 424.539 279.519C428.219 279.452 431.486 279.385 434.393 279.305C440.846 279.119 445.539 278.852 449.046 278.479C452.566 278.105 454.873 277.639 456.566 277.039C457.673 276.639 458.499 276.199 459.219 275.679C459.926 275.172 460.526 274.599 461.166 273.959C461.926 273.212 462.539 272.385 463.033 271.505C463.526 270.625 463.899 269.705 464.166 268.745C464.433 267.785 464.593 266.785 464.646 265.785C464.713 264.785 464.686 263.759 464.579 262.745Z" fill="#61EAF3"/>
</svg>
