<svg width="483" height="240" viewBox="0 0 483 240" fill="none" xmlns="http://www.w3.org/2000/svg">
<path d="M1.71543 110.1C2.1421 111.167 2.70225 112.247 3.40892 113.327C4.11559 114.42 4.96876 115.514 5.9821 116.62C6.3021 116.967 6.63538 117.327 6.99538 117.687C7.79538 118.474 8.56871 119.167 9.32871 119.754C10.4887 120.66 11.6089 121.34 12.7423 121.794C13.8756 122.247 15.0088 122.46 16.1688 122.447C17.3288 122.42 18.5155 122.167 19.7555 121.66C20.8355 121.207 21.9688 120.58 23.1688 119.754C24.3688 118.94 25.6222 117.914 26.9555 116.714C28.8355 115.007 30.8754 112.927 33.1287 110.447C35.382 107.967 37.8488 105.087 40.5821 101.807C42.6621 99.3003 44.9154 96.5536 47.3287 93.575C49.7554 90.5936 52.3555 87.3697 55.1555 83.903C58.3555 79.9364 61.822 75.6523 65.5954 71.0403C68.582 67.3937 71.7421 63.5403 75.1154 59.4777C75.9288 58.5003 76.7154 57.5537 77.462 56.635C80.902 52.447 83.7688 48.867 86.1821 45.8617C88.5954 42.8564 90.582 40.4243 92.262 38.5297C94.0354 36.527 95.4755 35.1284 96.7555 34.2897C98.0222 33.4524 99.1289 33.175 100.222 33.419C101.462 33.6963 102.715 34.647 104.195 36.211C105.675 37.775 107.395 39.951 109.595 42.6803C110.382 43.6443 111.222 44.6763 112.129 45.7777C114.662 48.8297 117.062 51.751 119.369 54.5457C122.529 58.3857 125.502 61.9883 128.276 65.371C132.916 71.0377 137.049 76.0857 140.742 80.587C144.436 85.0884 147.675 89.043 150.569 92.5243C156.702 99.9003 161.236 105.154 164.956 108.994C168.662 112.834 171.569 115.247 174.449 116.954C177.102 118.527 179.742 119.487 182.969 120.394C183.049 120.42 183.142 120.447 183.222 120.474C186.276 121.3 189.409 121.727 192.595 121.767C195.942 121.794 199.342 121.407 202.782 120.594C203.929 120.314 205.075 119.994 206.235 119.62C208.689 118.687 210.689 117.86 212.556 116.82C215.062 115.447 217.342 113.714 220.182 110.9C223.022 108.087 226.435 104.207 231.195 98.527C234.209 94.9203 237.769 90.6017 242.062 85.3777C242.169 85.2443 242.275 85.1096 242.382 84.975C246.235 80.291 249.755 75.995 252.969 72.059C256.955 67.1697 260.489 62.839 263.609 59.0137C266.729 55.1897 269.449 51.871 271.835 49.0083C274.382 45.9457 276.542 43.403 278.395 41.3204C280.249 39.2377 281.795 37.615 283.102 36.3883C284.342 35.2283 285.369 34.4243 286.262 33.9217C287.155 33.419 287.915 33.219 288.595 33.2683C289.555 33.339 290.369 33.9124 291.222 34.839C291.369 35.007 291.529 35.1857 291.689 35.3764C292.276 36.0937 292.849 36.7897 293.435 37.4937C295.609 40.1203 297.716 42.6577 299.742 45.107C301.769 47.555 303.729 49.915 305.609 52.1857C309.662 57.0883 313.382 61.5884 316.795 65.723C320.222 69.859 323.329 73.6283 326.182 77.071C331.315 83.2883 335.569 88.4284 339.115 92.6924C342.662 96.9537 345.502 100.34 347.822 103.06C352.956 109.1 355.502 111.82 357.422 113.46C358.756 114.594 359.782 115.194 361.182 116.034C362.182 116.62 363.196 117.167 364.209 117.66C367.102 119.087 370.036 120.114 372.956 120.807C375.889 121.5 378.795 121.834 381.649 121.874C385.742 121.927 389.702 121.327 393.356 120.22C397.009 119.114 400.369 117.487 403.235 115.46C403.302 115.407 403.369 115.367 403.435 115.314C405.315 113.98 407.302 112.18 409.822 109.54C412.396 106.847 415.516 103.26 419.622 98.3803C420.889 96.8737 422.249 95.2523 423.715 93.491C425.169 91.7297 426.742 89.8337 428.435 87.7883C431.355 84.251 434.635 80.2684 438.329 75.779C442.035 71.2897 446.156 66.2937 450.756 60.7257C453.116 57.887 455.582 54.9057 458.195 51.7617C458.395 51.5217 458.595 51.2817 458.795 51.043C461.582 47.7044 464.369 44.575 466.995 41.6124C469.969 38.251 472.729 35.1057 475.035 32.1124C477.355 29.119 479.222 26.279 480.409 23.5297C481.009 22.147 481.435 20.787 481.662 19.443C481.889 18.0977 481.929 16.7683 481.715 15.447C481.595 14.6163 481.356 13.775 481.009 12.935C480.676 12.0963 480.249 11.259 479.742 10.4404C479.222 9.62035 478.635 8.81766 477.982 8.04699C477.329 7.27633 476.609 6.53635 475.849 5.84302C474.915 5.00035 473.916 4.22566 472.876 3.54432C471.822 2.86299 470.742 2.27368 469.635 1.80435C468.542 1.33502 467.422 0.984323 466.315 0.777656C465.222 0.57099 464.129 0.509695 463.076 0.617695C461.956 0.733695 460.849 1.02704 459.742 1.49237C458.636 1.95637 457.529 2.59234 456.395 3.39367C454.275 4.90034 452.075 6.99502 449.649 9.64035C447.235 12.287 444.609 15.4857 441.635 19.203C440.662 20.4137 439.649 21.6777 438.595 22.9977C436.675 25.4044 435.329 27.1057 433.969 28.7963C431.809 31.4803 429.622 34.1363 425.129 39.5523C422.902 42.235 420.102 45.5977 416.462 49.9764C412.822 54.3564 408.329 59.7523 402.715 66.5043C401.489 67.9777 400.222 69.515 398.889 71.119C397.649 72.5977 396.382 74.1337 395.049 75.731C394.942 75.8617 394.849 75.9844 394.742 76.1124C393.089 78.095 391.702 79.8723 390.489 81.4217C389.262 82.971 388.222 84.2923 387.262 85.3657C386.262 86.4803 385.369 87.3284 384.462 87.8817C383.822 88.275 383.182 88.519 382.502 88.6043C382.142 88.6483 381.822 88.667 381.489 88.6497C380.916 88.6203 380.355 88.479 379.715 88.1497C379.089 87.8203 378.382 87.303 377.529 86.5243C376.649 85.7283 375.609 84.6564 374.329 83.231C373.049 81.8057 371.529 80.0257 369.689 77.811C367.662 75.387 365.249 72.439 362.329 68.8644C359.409 65.2897 355.995 61.0897 351.969 56.1577C348.969 52.4977 345.649 48.435 341.929 43.927C339.635 41.1417 337.195 38.1857 334.595 35.0497C333.182 33.3283 331.822 31.6577 330.515 30.0403C326.449 24.9803 322.915 20.4417 319.449 16.5217C315.982 12.6003 312.595 9.29635 308.835 6.70702C305.875 4.67102 302.689 3.07501 299.049 1.96835C297.222 1.41501 295.289 0.982992 293.222 0.680325C291.369 0.409659 289.475 0.280372 287.569 0.295039C284.355 0.321706 281.089 0.757711 277.795 1.63371C275.062 2.36038 272.316 3.38968 269.556 4.73768C269.022 5.04302 268.515 5.32701 268.035 5.60168C265.475 7.06968 263.702 8.23901 261.076 10.863C258.436 13.487 254.929 17.5657 248.862 24.8577C246.275 27.975 243.222 31.675 239.569 36.1043C238.995 36.799 238.436 37.4843 237.876 38.1603C233.956 42.9097 230.422 47.2084 227.222 51.1097C222.782 56.519 218.982 61.1497 215.729 65.115C212.462 69.0804 209.756 72.3803 207.476 75.1217C205.182 77.8763 203.329 80.0697 201.809 81.8163C200.289 83.563 199.102 84.863 198.142 85.8257C196.542 87.4217 195.555 88.0964 194.702 88.3617C193.915 88.611 193.222 88.5004 192.249 88.4484C192.169 88.4444 192.089 88.4337 192.009 88.419C191.502 88.3283 190.942 88.0163 190.142 87.3137C189.356 86.6123 188.329 85.5203 186.889 83.871C185.769 82.5763 184.382 80.935 182.676 78.8657C180.956 76.7977 178.902 74.303 176.435 71.299C173.849 68.1697 170.822 64.495 167.222 60.1644C166.489 59.2817 165.769 58.4137 165.062 57.5603C161.022 52.6737 157.395 48.279 154.129 44.315C148.769 37.7924 144.382 32.4457 140.729 28.0337C137.089 23.6217 134.195 20.143 131.782 17.3603C125.249 9.779 122.396 7.34171 118.342 5.16971C117.276 4.60305 116.129 4.05371 114.822 3.43638C110.289 1.60705 106.102 0.580365 102.209 0.187031C97.1289 -0.326302 92.5555 0.245664 88.4355 1.55233C84.3155 2.859 80.6356 4.89904 77.3422 7.3257C71.6489 11.515 67.0755 16.8497 63.3021 21.5217C61.8088 23.359 60.4488 25.0937 59.1821 26.6163C56.5954 29.747 54.1156 32.7297 51.7422 35.5803C47.2756 40.9457 43.1956 45.827 39.4756 50.2764C35.7556 54.7257 32.3956 58.7417 29.3423 62.3737C26.1556 66.1883 23.3021 69.5817 20.7821 72.6097C18.2488 75.6363 16.0355 78.2977 14.0889 80.6497C10.6755 84.7937 8.11538 87.979 6.19538 90.519C4.28871 93.0577 3.00887 94.9523 2.15553 96.5137C1.35553 97.9803 0.942096 99.1537 0.71543 100.3C0.502096 101.434 0.475586 102.554 0.475586 103.887C0.475586 104.887 0.568815 105.914 0.768815 106.954C0.968815 107.994 1.27543 109.047 1.71543 110.1Z" fill="#61EAF3"/>
<path d="M481.902 133.087C481.729 131.927 481.382 130.74 480.876 129.54C480.356 128.354 479.689 127.167 478.889 126.02C478.089 124.887 477.156 123.794 476.102 122.807C475.062 121.82 473.902 120.914 472.662 120.167C471.782 119.62 470.849 119.154 469.876 118.78C468.902 118.407 467.902 118.114 466.876 117.927C465.836 117.754 464.782 117.674 463.702 117.727C462.622 117.78 461.529 117.954 460.422 118.26C459.302 118.58 458.462 118.767 457.516 119.287C456.569 119.794 455.502 120.62 453.902 122.207C452.742 123.367 451.316 124.927 449.449 127.047C447.582 129.18 445.275 131.874 442.395 135.314C439.822 138.38 436.795 142.02 433.195 146.367C429.582 150.714 425.409 155.767 420.542 161.647C417.462 165.38 414.102 169.447 410.449 173.86C406.782 178.287 402.822 183.074 398.516 188.26C396.702 190.447 394.822 192.714 392.889 195.047C390.942 197.38 388.942 199.794 386.876 202.274C386.542 202.674 386.209 203.074 385.876 203.487C385.556 203.86 385.249 204.207 384.929 204.5C384.222 205.154 383.502 205.554 382.702 205.66C382.142 205.727 381.556 205.647 380.889 205.394C380.236 205.14 379.502 204.727 378.689 204.114C377.502 203.247 376.116 201.98 374.476 200.26C372.822 198.54 370.902 196.367 368.636 193.687C366.076 190.66 363.089 186.994 359.542 182.594C355.996 178.207 351.902 173.074 347.142 167.114C344.102 163.327 340.809 159.207 337.195 154.727C336.822 154.26 336.449 153.794 336.076 153.327C331.996 148.247 328.409 143.82 325.156 139.954C320.822 134.794 317.062 130.66 313.489 127.407C309.916 124.154 306.516 121.78 302.902 120.14C300.209 118.927 297.396 118.114 294.289 117.647C291.609 117.247 288.702 117.1 285.476 117.18C285.036 117.22 284.609 117.26 284.182 117.3C281.089 117.62 278.342 118.154 275.836 118.9C273.329 119.66 271.049 120.647 268.916 121.86C265.222 123.954 261.942 126.754 258.542 130.3C255.156 133.847 251.649 138.14 247.529 143.22C247.209 143.62 246.889 144.02 246.556 144.434C242.662 149.234 239.062 153.66 235.742 157.74C232.089 162.22 228.769 166.274 225.756 169.967C219.622 177.434 214.729 183.327 210.795 187.994C206.862 192.647 203.889 196.074 201.595 198.567C198.902 201.527 197.156 203.207 195.916 204.154C194.676 205.1 193.942 205.314 193.262 205.34C192.915 205.34 192.582 205.3 192.195 205.274C191.809 205.26 191.409 205.114 190.809 204.674C190.009 204.074 188.862 202.927 186.995 200.807C185.689 199.327 184.022 197.367 181.876 194.794C179.716 192.234 177.076 189.034 173.809 185.074C171.089 181.794 167.956 177.994 164.302 173.58C160.662 169.167 156.502 164.14 151.769 158.42C149.889 156.154 147.916 153.78 145.849 151.287C143.956 148.994 142.182 146.767 140.476 144.62C136.769 139.954 133.409 135.647 129.969 131.887C125.849 127.38 121.622 123.674 116.542 121.087C116.369 121.007 116.209 120.927 116.036 120.847C111.089 118.42 105.475 117.18 99.8621 117.114C95.9821 117.06 92.1022 117.554 88.4356 118.58C86.1956 119.207 84.0357 120.034 82.009 121.047C80.6223 121.754 79.3289 122.527 78.1022 123.354C72.7289 126.98 68.7555 131.754 64.7155 136.687C63.9289 137.647 63.1288 138.62 62.3288 139.594C58.8888 143.754 55.5955 147.674 52.4621 151.407C48.1821 156.487 44.1956 161.194 40.489 165.554C36.7823 169.914 33.3422 173.927 30.1822 177.634C25.2755 183.367 21.0222 188.38 17.3822 192.794C13.7288 197.194 10.7022 201.007 8.23557 204.367C6.6089 206.58 5.23557 208.607 4.10223 210.46C2.9689 212.314 2.07562 214.02 1.42228 215.594C0.902284 216.847 0.528951 218.02 0.288951 219.14C0.0622844 220.247 -0.0309968 221.314 0.00900317 222.34C0.0356698 223.14 0.15567 223.914 0.342337 224.66C0.542337 225.42 0.808951 226.167 1.15562 226.914C1.50228 227.66 1.9289 228.407 2.43557 229.154C2.9289 229.9 3.50234 230.647 4.14234 231.42C4.95567 232.38 5.87557 233.367 6.90223 234.394C7.27557 234.78 7.67567 235.154 8.07567 235.54C8.809 236.14 9.51567 236.66 10.209 237.114C11.4223 237.9 12.5688 238.46 13.7288 238.794C14.8755 239.127 16.0222 239.22 17.1822 239.087C18.3155 238.94 19.4889 238.58 20.7022 237.98C21.9289 237.367 23.2088 236.527 24.5822 235.434C25.9155 234.38 27.3423 233.087 28.8757 231.54C30.4223 229.994 32.0757 228.22 33.8757 226.18C36.6757 223.007 39.8355 219.234 43.4621 214.82C47.0888 210.407 51.1821 205.34 55.8621 199.594C59.1688 195.527 62.7689 191.127 66.7155 186.367C67.3955 185.54 68.1023 184.7 68.809 183.847C72.249 179.7 75.2489 176.034 77.9022 172.78C81.3956 168.514 84.2622 164.967 86.6488 162.06C89.0355 159.14 90.9555 156.86 92.5288 155.114C94.3288 153.127 95.6889 151.834 96.8356 151.06C97.9956 150.3 98.9288 150.074 99.8621 150.234C100.395 150.327 100.929 150.54 101.502 150.86C101.716 150.967 102.222 151.46 102.982 152.274C104.089 153.46 105.755 155.34 107.795 157.7C110.155 160.434 113.036 163.82 116.182 167.567C119.342 171.314 122.769 175.42 126.222 179.58C130.329 184.527 134.489 189.54 138.289 194.14C142.076 198.727 145.515 202.914 148.195 206.167C152.009 210.807 154.289 213.594 153.862 213.074C155.369 214.914 156.742 216.58 157.982 218.087C161.836 222.727 164.556 225.887 167.076 228.274C170.382 231.434 173.316 233.274 177.916 235.42C178.329 235.594 178.729 235.74 179.129 235.9C183.782 237.62 188.449 238.527 193.022 238.62C195.889 238.674 198.716 238.407 201.476 237.82C204.382 237.194 206.875 236.487 209.262 235.407C213.782 233.367 217.969 230.007 224.089 223.434C227.222 220.06 230.875 215.847 235.329 210.527C239.782 205.194 245.049 198.767 251.422 190.98C254.516 187.207 257.875 183.114 261.529 178.674C265.182 174.22 269.129 169.42 273.409 164.26C274.809 162.554 276.249 160.807 277.742 159.02C278.009 158.687 278.289 158.354 278.542 158.034C280.582 155.554 282.062 153.634 283.395 152.314C284.089 151.634 284.742 151.114 285.409 150.78C286.062 150.447 286.742 150.287 287.489 150.314C287.929 150.34 288.396 150.434 288.902 150.58C289.116 150.647 289.302 150.7 289.489 150.767C289.996 150.94 290.449 151.194 291.382 152.114C292.036 152.767 292.916 153.754 294.209 155.26C295.516 156.78 297.222 158.834 299.529 161.634C301.769 164.354 304.582 167.78 308.129 172.1C311.675 176.42 315.942 181.634 321.129 187.94C322.075 189.1 323.062 190.287 324.076 191.527C327.609 195.834 330.769 199.674 333.595 203.087C337.435 207.754 340.662 211.647 343.409 214.927C350.302 223.114 354.209 227.434 357.262 230.114C360.329 232.78 362.555 233.82 366.062 235.474C366.102 235.487 366.142 235.5 366.182 235.514C370.329 237.194 374.196 238.194 377.809 238.647C381.462 239.114 384.875 239.007 388.062 238.447C391.235 237.887 394.182 236.887 396.969 235.54C399.742 234.194 402.342 232.5 404.795 230.58C408.515 227.647 411.916 224.18 415.102 220.554C418.289 216.927 421.262 213.127 424.156 209.554C424.996 208.5 425.849 207.46 426.689 206.447C429.929 202.554 432.982 198.887 435.862 195.434C439.622 190.94 443.075 186.807 446.262 183.007C451.182 177.114 455.462 172.02 459.156 167.58C462.862 163.154 465.996 159.38 468.622 156.14C471.209 152.967 473.316 150.314 475.036 148.06C476.756 145.794 478.089 143.94 479.102 142.354C480.502 140.154 481.289 138.5 481.689 137.06C482.102 135.62 482.102 134.394 481.902 133.087Z" fill="#61EAF3"/>
</svg>
