<svg width="531" height="373" viewBox="0 0 531 373" fill="none" xmlns="http://www.w3.org/2000/svg">
<path d="M438.466 134.265C438.982 133.678 439.51 133.119 440.048 132.572C443.219 129.412 446.66 127.385 450.04 126.425C454.388 125.199 458.635 125.745 462.072 127.932C462.926 128.478 463.731 129.118 464.474 129.865C465.74 131.132 466.81 132.652 467.712 134.359C469.502 137.732 470.622 141.839 471.276 146.159C471.838 149.879 472.056 153.758 472.056 157.465C472.056 158.518 472.039 159.599 472.004 160.692C471.852 165.572 471.358 170.692 470.546 175.985C469.776 181.012 468.722 186.185 467.395 191.479C466.13 196.519 464.618 201.665 462.876 206.852C461.199 211.865 459.306 216.919 457.216 221.999C455.18 226.932 452.96 231.879 450.562 236.785C448.206 241.625 445.68 246.425 442.999 251.172C440.344 255.865 437.536 260.518 434.587 265.065C433.502 266.732 432.392 268.399 431.27 270.039C430.132 266.532 429.126 262.958 428.243 259.332C427.074 254.518 426.119 249.612 425.346 244.625C424.168 237.025 423.416 229.225 422.988 221.319C422.566 213.452 422.46 205.478 422.575 197.452C422.69 189.412 423.022 181.319 423.476 173.239C423.724 168.825 424.008 164.412 424.312 160.012C427.339 152.065 432.008 141.558 438.466 134.265ZM530.344 340.439C530.22 339.092 530.046 337.692 529.823 336.292C529.62 335.012 529.378 333.732 529.102 332.519C528.827 331.292 528.518 330.132 528.182 329.079C527.846 328.025 527.482 327.065 527.096 326.279C526.711 325.492 526.304 324.852 525.88 324.439C524.244 322.799 522.12 322.265 519.226 322.172C517.41 322.105 515.294 322.212 512.796 322.345C511.288 322.412 509.792 322.465 508.306 322.492C504.598 322.559 500.959 322.492 497.4 322.239C493.711 321.985 490.11 321.559 486.602 320.919C483.008 320.265 479.514 319.399 476.131 318.292C472.739 317.185 469.459 315.839 466.3 314.225C463.222 312.639 460.259 310.812 457.423 308.692C454.114 306.239 450.976 303.385 448.026 300.119C448.78 299.159 449.532 298.185 450.274 297.198C453.951 292.332 457.46 287.319 460.795 282.225C464.142 277.105 467.314 271.905 470.298 266.625C473.316 261.292 476.143 255.892 478.774 250.452C481.459 244.905 483.936 239.332 486.199 233.745C488.535 227.999 490.64 222.238 492.506 216.518C494.458 210.545 496.148 204.612 497.563 198.772C499.072 192.532 500.266 186.399 501.135 180.425C502.088 173.879 502.648 167.518 502.796 161.412C502.966 154.425 502.596 147.785 501.659 141.585C500.487 133.852 498.426 126.825 495.428 120.705C494.55 118.919 493.596 117.199 492.556 115.572C488.619 109.852 483.908 105.371 478.742 102.051C470.091 96.4892 460.156 94.1958 450.399 94.8812C445.155 95.2492 439.964 96.4772 435.052 98.5185C432.652 99.5158 430.32 100.705 428.082 102.084C428.124 100.872 428.172 99.6532 428.204 98.4532C428.448 89.3079 428.382 80.5065 427.812 72.1745C427.128 62.1785 425.72 52.8572 423.252 44.4305C420.068 33.5612 415.124 24.1785 407.699 16.7532C407.664 16.7185 407.63 16.6852 407.595 16.6505C399.84 8.93719 389.556 3.35453 378.416 1.09986C367.486 -1.1108 355.734 -0.112141 344.74 5.21986C339.344 7.83853 334.131 11.4959 329.288 16.3385C326.274 19.3532 323.483 22.6932 320.878 26.2758C315.602 33.5345 311.104 41.8198 307.183 50.6131C303.647 58.5385 300.574 66.8691 297.802 75.2131C295.072 83.4278 292.635 91.6505 290.338 99.5185C289.336 102.947 288.36 106.311 287.399 109.572C287.036 110.803 286.651 112.116 286.25 113.492C285.478 108.584 284.703 103.797 283.908 99.1372C283.194 94.9519 282.463 90.8705 281.703 86.8958C280.727 81.7892 279.702 76.8625 278.602 72.1252C277.294 66.4945 275.878 61.1332 274.311 56.0612C271.715 47.6599 268.702 40.0492 265.06 33.3265C262.378 28.3718 259.354 23.8972 255.906 19.9398C253.004 16.6105 249.839 13.8185 246.495 11.5185C237.964 5.64781 228.268 2.99983 218.807 2.92649C211.886 2.87316 205.091 4.19588 198.97 6.64122C196.411 7.66255 193.936 8.8905 191.539 10.2985C184.432 14.4732 178.028 20.2625 172.259 27.1892C167.47 32.9372 163.118 39.4652 159.168 46.5079C155.618 52.8412 152.394 59.5892 149.466 66.5505C146.667 73.2039 144.139 80.0505 141.86 86.9225C139.575 93.8145 137.538 100.729 135.727 107.492C135.626 107.873 135.527 108.251 135.427 108.631C135.424 108.616 135.423 108.6 135.422 108.584C135.036 105.595 134.623 102.591 134.175 99.5825C133.614 95.8198 132.998 92.0532 132.315 88.3052C131.755 85.2359 131.148 82.1799 130.491 79.1505C129.123 72.8399 127.528 66.6452 125.647 60.6852C123.935 55.2625 121.986 50.0332 119.754 45.0905C117.242 39.5318 114.371 34.3372 111.078 29.6292C107.335 24.2785 103.046 19.5625 98.1123 15.6652C94.263 12.6252 90.0269 10.0785 85.3483 8.12785C83.8136 7.48785 82.2656 6.93319 80.7083 6.45585C74.3403 4.50385 67.819 3.89585 61.375 4.46785C55.2296 5.01318 49.1549 6.62786 43.3536 9.18119C40.2589 10.5439 37.2416 12.1705 34.3323 14.0425C31.9123 15.5999 29.7256 17.2052 27.7283 18.8385C22.7523 22.9052 18.9816 27.1385 15.9203 31.2092C12.9883 35.1065 10.7016 38.8532 8.61628 42.1585C8.15895 42.8825 7.6843 43.6265 7.20163 44.3851C4.48963 48.6531 1.55095 53.3985 0.449615 57.6478C-0.241052 60.3172 -0.20904 62.7919 1.06163 64.8305C1.42696 65.4172 1.91095 65.9985 2.48829 66.5652C3.06562 67.1318 3.7363 67.6852 4.4723 68.2172C5.2083 68.7478 6.00962 69.2572 6.85228 69.7372C7.69362 70.2158 8.5763 70.6652 9.47097 71.0745C10.3483 71.4759 11.2376 71.8412 12.1149 72.1612C12.9923 72.4812 13.8576 72.7559 14.687 72.9785C15.5163 73.2012 16.3083 73.3718 17.039 73.4812C17.7696 73.5905 18.439 73.6398 19.0216 73.6212C21.6056 73.5358 23.795 72.5999 25.7563 71.0612C28.7976 68.6759 31.2896 64.8412 33.839 60.4705C34.135 59.9625 34.431 59.4479 34.7296 58.9279C36.4843 55.8692 38.4443 52.9852 40.5603 50.3545C42.879 47.4718 45.387 44.8945 48.0243 42.7252C50.499 40.6879 53.087 39.0092 55.739 37.7758C58.5483 36.4692 61.4283 35.6625 64.3203 35.4545C66.9243 35.2678 69.5376 35.5678 72.1163 36.4265C74.3189 37.1598 76.4976 38.2985 78.6243 39.8945C79.6643 40.6759 80.6923 41.5639 81.7043 42.5665C83.5643 44.5719 85.2709 46.8212 86.8483 49.2772C89.3883 53.2279 91.5856 57.7332 93.5016 62.7106C95.267 67.2999 96.8003 72.2812 98.1403 77.6038C100.204 85.7932 101.824 94.7719 103.183 104.297C104.57 114.012 105.683 124.305 106.722 134.905C108.086 148.825 109.319 163.265 110.86 177.679C112.028 188.599 113.374 199.492 115.088 210.105C113.72 217.465 112.504 224.065 111.427 229.999C109.986 237.945 108.794 244.679 107.815 250.452C106.01 261.079 104.931 268.372 104.363 273.705C103.287 283.799 104.039 286.852 105.15 292.132C105.428 293.305 105.735 294.452 106.064 295.559C108.587 304.092 112.518 310.585 117.084 314.799C129.082 325.878 145.684 321.425 152.27 296.772C153.203 293.265 153.934 289.372 154.418 285.052C154.562 283.545 154.682 282.065 154.778 280.612C155.203 274.159 155.162 268.159 154.754 262.092C154.347 256.039 153.572 249.919 152.524 243.279C151.647 237.705 150.578 231.745 149.372 225.119C148.483 220.239 147.523 214.998 146.51 209.278C147.328 204.558 148.166 199.799 149.023 195.025C150.231 188.292 151.48 181.519 152.779 174.772C154.08 167.999 155.432 161.239 156.84 154.572C158.243 147.919 159.703 141.332 161.227 134.892C162.78 128.319 164.4 121.892 166.095 115.665C167.87 109.134 169.727 102.827 171.676 96.8038C173.755 90.3785 175.939 84.2798 178.239 78.5905C180.744 72.3905 183.388 66.6785 186.184 61.5639C189.267 55.9239 192.535 51.0119 196.007 46.9692C199.579 42.8132 203.367 39.5785 207.392 37.4252C210.919 35.5385 214.628 34.4799 218.535 34.3585C218.786 34.3505 219.036 34.3439 219.288 34.3439C222.874 34.3426 226.05 35.2745 228.911 37.1559C233.392 40.1012 237.099 45.3932 240.372 53.1732C242.704 58.7198 244.818 65.5305 246.835 73.6505C248.242 79.3119 249.603 85.6132 250.959 92.5639C252.039 98.0985 253.118 104.041 254.214 110.412C255.667 118.852 257.154 128.038 258.723 137.985C261 152.425 263.452 168.465 266.23 186.172H266.231C265.39 189.412 264.555 192.652 263.743 195.852C260.935 206.918 258.338 217.612 256.202 227.132C254.447 234.972 253.003 242.012 252.014 247.825C250.955 254.425 250.48 260.425 250.48 265.865C250.482 275.358 251.938 283.158 254.355 289.465C258.475 300.212 265.37 306.625 272.528 309.732C279.876 312.932 287.502 312.639 292.69 309.985C301.518 305.465 304.819 294.559 306.174 284.772C307.028 278.599 307.255 271.705 307.062 264.452C306.895 258.199 306.416 251.692 305.758 245.132C304.996 237.545 303.996 229.905 302.963 222.572C302.219 217.292 301.46 212.185 300.762 207.359C299.639 199.612 298.672 192.599 298.186 186.905C298.823 184.505 299.452 182.145 300.072 179.825C302.286 171.559 304.404 163.745 306.55 155.985C308.718 148.145 310.914 140.345 313.268 132.132C315.422 124.612 317.711 116.759 320.227 108.225C321.018 105.544 321.827 102.804 322.667 99.9785C324.296 94.6305 325.747 89.7052 327.228 84.9932C329.594 77.4678 332.04 70.4878 335.422 63.2158C337.306 59.1638 339.479 55.0212 342.092 50.6425C343.475 48.4025 344.803 46.4025 346.091 44.6185C350.484 38.5265 354.383 34.9625 358.231 33.0532C362.727 30.8198 367.154 30.8465 372.215 31.7398C372.983 31.8745 373.764 32.0292 374.563 32.1985C379.172 33.1812 382.899 35.3225 385.895 38.4678C389.379 42.1238 391.87 47.1425 393.603 53.2839C395.291 59.2625 396.26 66.3038 396.723 74.1958C397.14 81.3158 397.147 89.1238 396.899 97.4625C396.67 105.128 396.227 113.239 395.691 121.679C395.182 129.665 394.59 137.945 394.018 146.412C393.462 154.652 392.923 163.079 392.5 171.572C392.079 180.039 391.772 188.585 391.674 197.118C391.572 205.825 391.688 214.519 392.123 223.079C392.579 232.025 393.382 240.838 394.648 249.398C395.94 258.145 397.718 266.625 400.1 274.732C402.491 282.852 405.496 290.572 409.231 297.785C407.646 299.492 406.042 301.172 404.415 302.798C400.618 306.612 396.708 310.212 392.702 313.585C388.614 317.025 384.424 320.212 380.147 323.105C375.776 326.079 371.315 328.745 366.776 331.079C362.154 333.439 357.451 335.465 352.686 337.092C348.13 338.639 343.515 339.825 338.858 340.612C333.987 341.439 329.07 341.825 324.119 341.745C321.882 341.705 319.638 341.572 317.388 341.332C315.911 341.172 314.6 341.012 313.383 340.932C310.68 340.772 308.446 341.039 305.918 342.732C305.255 343.172 304.62 343.692 304.018 344.265C303.415 344.839 302.844 345.479 302.308 346.172C301.772 346.852 301.27 347.599 300.807 348.359C300.343 349.132 299.918 349.932 299.534 350.759C299.039 351.825 298.614 352.919 298.262 354.012C297.911 355.119 297.634 356.225 297.438 357.319C297.242 358.412 297.126 359.479 297.099 360.492C297.072 361.519 297.132 362.492 297.287 363.385C297.695 365.745 299.267 367.599 301.668 369.025C306.651 371.959 315.215 373.025 324.438 372.919C330.958 372.839 337.803 372.172 343.947 371.159C347.608 370.545 351.02 369.825 353.964 369.025C357.12 368.105 360.239 367.079 363.323 365.945C369.306 363.732 375.151 361.132 380.844 358.185C386.424 355.292 391.862 352.052 397.144 348.519C402.31 345.052 407.328 341.319 412.191 337.319C416.955 333.399 421.567 329.252 426.022 324.892C426.479 324.439 426.93 323.985 427.384 323.532C431.084 327.345 434.983 330.759 439.062 333.799C443.184 336.879 447.491 339.559 451.963 341.879C456.422 344.185 461.043 346.132 465.81 347.745C470.468 349.319 475.266 350.572 480.184 351.519C484.943 352.425 489.814 353.065 494.784 353.439C499.424 353.785 504.146 353.905 508.943 353.812C509.116 353.812 509.283 353.799 509.452 353.799C516.151 353.572 520.86 353.172 524.112 352.412C527.108 351.705 528.871 350.692 529.816 349.212C530.078 348.799 530.266 348.132 530.384 347.279C530.503 346.439 530.554 345.399 530.546 344.225C530.536 343.065 530.466 341.785 530.344 340.439Z" fill="#61EAF3"/>
</svg>
