<svg width="473" height="417" viewBox="0 0 473 417" fill="none" xmlns="http://www.w3.org/2000/svg">
<path d="M441.055 260.193C440.775 263.859 440.201 267.526 439.335 271.099C437.975 276.699 435.908 282.073 433.135 286.899C432.361 288.259 431.521 289.566 430.615 290.833C427.721 294.939 424.228 298.526 420.148 301.339C420.135 301.353 420.108 301.366 420.095 301.379C418.761 302.179 417.281 302.926 415.655 303.619C411.468 305.406 406.388 306.739 400.828 307.193C399.361 307.313 397.855 307.379 396.321 307.366C390.601 307.339 384.508 306.339 378.455 303.939C377.255 303.473 376.055 302.939 374.868 302.353C369.068 299.513 363.855 295.326 359.281 290.299C352.681 283.073 347.428 274.113 343.655 264.926C340.628 257.539 338.561 250.033 337.548 243.153C340.468 238.699 343.548 234.553 346.841 230.793C351.935 224.979 357.561 220.073 363.975 216.326C370.015 212.806 376.748 210.313 384.375 209.073C390.855 208.019 397.988 207.873 405.895 208.753C408.121 209.006 410.295 209.366 412.388 209.833C416.135 210.686 419.908 211.939 423.495 214.166C428.001 216.979 432.188 221.366 435.601 228.513C436.228 229.806 436.815 231.179 437.375 232.659C439.321 237.739 440.521 243.273 441.015 248.966C441.335 252.673 441.348 256.433 441.055 260.193ZM174.361 244.539C173.961 247.739 173.561 251.033 173.148 254.366C173.028 255.313 172.908 256.259 172.788 257.219C172.668 258.166 172.548 259.113 172.428 260.059C172.321 261.019 172.201 261.966 172.081 262.913C171.961 263.859 171.841 264.806 171.721 265.753C171.601 266.779 171.481 267.753 171.361 268.713C172.095 262.379 172.895 255.766 173.748 248.939C174.281 244.726 174.841 240.433 175.415 236.073C175.081 238.779 174.721 241.619 174.361 244.539ZM166.548 311.206C166.588 310.913 166.615 310.619 166.655 310.313C166.655 310.313 166.655 310.326 166.655 310.339C166.615 310.633 166.588 310.913 166.548 311.206ZM165.988 316.006C166.028 315.646 166.068 315.299 166.121 314.939C166.121 314.953 166.108 314.966 166.108 314.979C166.068 315.326 166.028 315.659 165.988 316.006ZM165.428 320.606C165.495 320.139 165.548 319.673 165.615 319.179C165.601 319.206 165.601 319.219 165.601 319.246C165.548 319.713 165.481 320.153 165.428 320.606ZM163.895 331.486C163.895 331.459 163.908 331.433 163.908 331.393C163.908 331.406 163.908 331.406 163.908 331.406C163.895 331.433 163.895 331.459 163.895 331.486ZM163.321 334.406C163.335 334.353 163.348 334.299 163.361 334.233C163.361 334.233 163.361 334.233 163.361 334.246C163.348 334.299 163.335 334.353 163.321 334.406ZM472.228 246.913C471.535 235.699 468.881 224.753 464.188 214.953C464.081 214.726 463.975 214.486 463.855 214.246C458.855 204.086 451.628 195.193 442.055 188.566C438.175 185.886 433.908 183.566 429.241 181.699C428.548 181.433 427.855 181.166 427.161 180.899C421.721 178.899 415.935 177.433 409.961 176.566C399.375 175.033 388.468 175.366 377.788 177.593C367.375 179.753 357.175 183.713 347.668 189.499C342.281 192.766 337.135 196.619 332.281 201.059C332.108 198.953 331.948 196.846 331.801 194.739C331.575 191.433 331.361 188.139 331.175 184.873C330.721 177.099 330.388 169.446 330.081 161.899C329.775 153.966 329.521 146.167 329.228 138.538C328.935 130.435 328.601 122.523 328.161 114.839C327.681 106.529 327.055 98.4821 326.188 90.7501C325.228 82.1487 323.948 73.9367 322.201 66.1714C320.201 57.1967 317.561 48.8247 314.068 41.1487C310.041 32.2861 304.868 24.3501 298.175 17.4994C298.041 17.3581 297.895 17.2221 297.748 17.0821C290.428 9.76475 280.788 4.56207 270.228 1.94074C260.521 -0.468596 250.055 -0.697895 239.921 1.60877C237.015 2.26877 234.135 3.13138 231.308 4.21671C224.535 6.82071 218.375 10.5114 212.735 15.1354C205.868 20.7647 199.788 27.7874 194.361 35.9581C189.828 42.7701 185.748 50.3768 182.028 58.6421C178.775 65.8834 175.815 73.6261 173.068 81.7767C170.561 89.2127 168.241 96.9861 166.081 105.025C165.188 108.358 164.321 111.743 163.468 115.162C163.295 114.303 163.135 113.443 162.961 112.583C162.775 111.65 162.588 110.717 162.401 109.783C161.735 106.529 161.055 103.273 160.335 100.026C159.668 96.9794 158.975 93.9434 158.241 90.9261C157.081 86.1181 155.855 81.3607 154.508 76.6994C153.175 72.0407 151.748 67.4794 150.188 63.0541C148.561 58.4061 146.801 53.9128 144.881 49.6234C142.935 45.2808 140.828 41.1487 138.535 37.2794C135.921 32.8634 133.068 28.7847 129.935 25.1327C126.281 20.8661 122.228 17.1754 117.748 14.1821C112.921 10.9594 107.588 8.5541 101.655 7.1061C96.5481 5.8581 91.0148 5.32474 84.9881 5.61007C83.1481 5.69807 81.268 5.85272 79.348 6.09406C75.868 6.66472 72.4546 7.50473 69.1079 8.56873C64.4146 10.0621 59.8413 12.0101 55.428 14.3261C51.2813 16.4994 47.2546 18.9981 43.3613 21.7487C39.668 24.3621 36.0813 27.1994 32.628 30.2061C29.2946 33.1168 26.0679 36.1834 22.9746 39.3474C19.9079 42.4754 16.9747 45.6981 14.148 48.9648C11.908 51.5674 9.74806 54.1954 7.66806 56.8261C6.98806 57.7088 6.34801 58.5594 5.74801 59.3848C2.58801 63.7541 0.561291 67.3487 0.094624 70.6634C-0.185376 72.7474 0.148061 74.7221 1.20139 76.7088C1.85473 77.9261 2.84129 79.1488 3.89462 80.2514C4.94796 81.3528 6.05462 82.3367 6.96129 83.0794C8.02796 83.9554 8.80129 84.4941 8.82796 84.4941C8.90796 84.5487 9.00134 84.6008 9.08134 84.6541C9.88134 85.1754 10.5881 85.6407 11.2548 86.0581C12.0681 86.5661 12.8147 86.9994 13.5347 87.3607C14.2547 87.7221 14.9612 88.0114 15.7079 88.2341C16.4546 88.4568 17.2413 88.6114 18.148 88.7047C19.0413 88.7981 20.0281 88.8287 21.1881 88.8021C23.9214 88.3154 25.8146 87.3848 27.3613 86.0954C29.468 84.3421 30.9213 81.9261 32.948 79.0648C33.388 78.4314 33.8681 77.7767 34.3881 77.1021C36.0148 75.0421 37.748 72.9448 39.5613 70.8448C41.8813 68.1421 44.3481 65.4367 46.9214 62.8021C49.4014 60.2754 51.9748 57.8141 54.6548 55.4834C57.2548 53.2114 59.9347 51.0661 62.6813 49.1047C65.3747 47.1874 68.1347 45.4501 70.9347 43.9448C72.7347 42.9781 74.5481 42.1034 76.3881 41.3448C77.3481 40.9901 78.2946 40.6861 79.2279 40.4194C81.8413 39.6754 84.3346 39.2781 86.7079 39.2527C89.0546 39.2261 91.3079 39.5634 93.4412 40.2807C95.2279 40.8767 96.9348 41.7381 98.5881 42.8687C100.415 44.1167 102.161 45.6954 103.841 47.6181C105.601 49.6288 107.281 52.0088 108.921 54.7874C110.441 57.3941 111.921 60.3461 113.361 63.6541C115.361 68.2608 117.281 73.5661 119.148 79.5887C120.841 85.0461 122.481 91.0914 124.108 97.7621C125.748 104.517 127.361 111.911 128.975 119.961C129.028 120.229 129.081 120.491 129.135 120.761C130.641 128.595 131.921 135.826 133.081 142.927C134.948 154.433 136.495 165.606 138.135 178.433C138.521 181.459 138.895 184.486 139.268 187.526C140.615 198.406 141.881 209.286 143.068 220.153C143.041 220.326 143.015 220.486 142.988 220.646C141.775 228.206 140.548 236.059 139.388 243.806C138.121 252.353 136.921 260.793 135.908 268.633C134.575 278.806 133.548 287.953 133.015 295.006C132.761 298.393 132.628 301.286 132.628 303.579C132.628 312.233 134.708 320.766 138.961 327.006C143.921 334.313 151.841 338.499 162.841 336.139C168.015 335.019 171.868 332.593 174.708 329.459C184.095 319.126 182.681 301.046 182.695 296.353C182.695 295.939 182.695 295.526 182.695 295.113C182.681 289.393 182.468 282.619 182.028 274.566C181.601 266.619 180.935 257.419 180.001 246.766C179.321 238.939 178.495 230.313 177.508 220.833C178.321 215.033 179.188 209.153 180.108 203.246C181.281 195.699 182.521 188.086 183.855 180.473C185.175 172.886 186.588 165.313 188.095 157.806C189.601 150.286 191.201 142.842 192.895 135.547C194.628 128.102 196.468 120.811 198.415 113.757C200.441 106.431 202.588 99.3594 204.855 92.6247C207.255 85.5207 209.788 78.7914 212.481 72.5448C213.401 70.4234 214.321 68.3554 215.281 66.3487C217.401 61.9767 219.695 58.0674 222.095 54.5928C225.921 49.0688 230.041 44.6527 234.308 41.2807C238.575 37.8914 242.988 35.5554 247.348 34.1874C252.588 32.5501 257.761 32.3034 262.588 33.3234C267.281 34.3168 271.655 36.5101 275.428 39.7767C276.108 40.3607 276.761 40.9768 277.401 41.6288C280.455 44.7781 283.001 48.9888 285.121 54.0781C287.428 59.5821 289.241 66.1154 290.695 73.4887C291.975 79.9994 292.975 87.1621 293.775 94.8247C294.508 101.842 295.068 109.278 295.548 117.031C295.988 124.357 296.348 131.963 296.668 139.754C296.988 147.314 297.268 155.046 297.588 162.873C297.895 170.659 298.215 178.526 298.615 186.406C299.015 194.286 299.495 202.179 300.095 209.993C300.855 219.926 301.815 229.739 303.081 239.246C299.161 246.099 295.548 253.166 292.095 260.326C288.041 268.713 284.201 277.206 280.308 285.633C276.495 293.886 272.628 302.046 268.481 309.953C264.388 317.753 260.028 325.299 255.148 332.393C250.388 339.313 245.161 345.806 239.228 351.699C237.935 352.979 236.601 354.233 235.241 355.459C230.321 359.886 225.255 363.619 220.121 366.779C212.841 371.246 205.401 374.539 198.041 376.939C189.775 379.646 181.588 381.219 173.801 382.086C164.521 383.113 155.801 383.153 148.161 382.873C138.735 382.539 130.935 381.753 125.708 381.819C124.521 381.833 123.415 381.913 122.401 382.073C119.428 382.539 117.148 383.579 115.401 385.153C114.895 385.606 114.428 386.099 114.015 386.633C113.588 387.179 113.215 387.753 112.881 388.379C112.535 389.006 112.228 389.659 111.961 390.366C111.695 391.059 111.455 391.793 111.241 392.579C110.895 393.886 110.641 395.286 110.441 396.793C110.375 397.353 110.308 397.926 110.255 398.513C110.188 399.499 110.175 400.419 110.201 401.286C110.268 402.833 110.495 404.193 110.881 405.393C111.255 406.593 111.788 407.633 112.455 408.539C113.588 410.059 115.108 411.193 116.975 412.059C121.321 414.099 127.508 414.673 134.748 415.339C138.908 415.739 143.041 416.006 147.135 416.153C157.495 416.539 167.641 416.139 177.508 414.926C188.095 413.606 198.361 411.339 208.188 408.059C218.348 404.673 228.041 400.193 237.188 394.566C246.095 389.073 254.481 382.499 262.241 374.753C266.921 370.086 271.375 364.993 275.575 359.459C277.761 356.579 279.855 353.633 281.868 350.633C287.455 342.339 292.415 333.713 296.961 324.979C301.428 316.419 305.495 307.766 309.401 299.233C311.948 293.659 314.428 288.126 316.908 282.726C316.908 282.739 316.921 282.753 316.921 282.779C318.535 286.273 320.175 289.526 321.855 292.553C326.881 301.606 332.268 308.659 338.121 314.299C345.641 321.553 353.935 326.499 363.295 330.379C364.441 330.846 365.615 331.313 366.801 331.766C376.895 335.273 386.321 337.086 395.041 337.473C398.828 337.646 402.468 337.553 405.975 337.206C414.321 336.393 421.935 334.193 428.788 330.899C430.361 330.139 431.895 329.326 433.388 328.446C441.935 323.459 449.161 316.659 454.988 308.673C460.761 300.753 465.161 291.659 468.095 282.019C468.401 281.019 468.695 280.006 468.961 278.979C471.775 268.566 472.881 257.619 472.228 246.913Z" fill="#61EAF3"/>
</svg>
