<svg width="502" height="407" viewBox="0 0 502 407" fill="none" xmlns="http://www.w3.org/2000/svg">
    <path d="M500.804 90.9534C499.564 80.6867 496.644 70.82 492.324 61.6333C488.031 52.5 482.391 44.0334 475.684 36.4867C469.031 28.9934 461.351 22.4067 452.924 16.9667C444.444 11.4733 435.217 7.15342 425.564 4.24675C415.791 1.30009 405.591 -0.193271 395.257 0.0200623C385.191 0.233396 375.004 2.06006 365.004 5.7534C355.897 9.1134 346.937 14.02 338.351 20.6333C331.004 26.3133 323.937 33.2334 317.271 41.5401C314.417 45.1001 311.631 48.9134 308.937 52.9934C307.724 54.8334 306.524 56.7268 305.351 58.6734C304.097 60.7401 302.844 62.8734 301.617 65.06C297.337 72.66 293.217 80.9134 289.244 89.66C285.644 97.62 282.164 106.007 278.817 114.713C275.684 122.9 272.657 131.367 269.751 140.033C266.964 148.393 264.284 156.924 261.724 165.564C259.204 174.043 256.804 182.624 254.511 191.237C252.284 199.589 250.177 207.968 248.164 216.312C247.484 211.619 246.591 206.512 245.524 201.072C244.617 196.476 243.564 191.643 242.404 186.631C241.204 181.492 239.871 176.165 238.417 170.704C237.137 165.912 235.764 161.02 234.311 156.063C232.324 149.313 230.177 142.447 227.871 135.567C225.644 128.887 223.271 122.193 220.764 115.58C218.244 108.873 215.591 102.26 212.817 95.8068C209.937 89.0868 206.937 82.5533 203.817 76.3C200.444 69.5267 196.951 63.1001 193.337 57.1401C189.151 50.2068 184.831 43.9267 180.404 38.5C177.151 34.5133 173.831 30.98 170.484 27.9934C168.044 25.82 165.577 23.7933 163.071 21.9C156.457 16.9 149.644 12.8468 142.724 9.67345C135.164 6.20678 127.484 3.80673 119.791 2.3534C111.697 0.833396 103.604 0.366781 95.644 0.873448C87.5507 1.39345 79.6041 2.91337 71.9641 5.3267C64.3507 7.74004 57.044 11.0334 50.2094 15.1134C43.3587 19.2068 36.972 24.0867 31.2053 29.6333C25.456 35.18 20.324 41.4067 15.9613 48.1934C11.676 54.8734 8.13732 62.1001 5.48932 69.7801C2.93599 77.1934 1.21332 85.02 0.450651 93.1934C0.154651 96.34 0 99.5534 0 102.807C0 107.62 0.395953 112.407 1.11862 117.113C2.35195 125.153 4.55206 132.953 7.45872 140.247C10.5747 148.047 14.4973 155.26 18.8853 161.527C21.8746 165.796 25.0801 169.629 28.3974 172.911C30.7921 175.28 33.8201 176.828 37.0201 177.405C39.6201 177.873 42.3334 177.701 44.916 176.793C45.5307 176.576 46.1094 176.323 46.6547 176.036C47.2014 175.749 47.7133 175.429 48.1947 175.081C48.676 174.733 49.1253 174.356 49.5453 173.955C49.9653 173.555 50.356 173.129 50.7186 172.684C51.3613 171.895 51.9147 171.044 52.3867 170.153C52.8587 169.263 53.2441 168.333 53.5641 167.389C53.8841 166.447 54.124 165.488 54.3107 164.539C54.484 163.588 54.604 162.648 54.6573 161.74C54.804 159.393 54.644 157.587 54.1906 156.031C52.9493 151.673 49.5466 149.287 44.8853 142.5C44.4826 141.913 44.0707 141.3 43.6494 140.647C41.0454 136.593 38.9253 132.513 37.2387 128.46C35.0587 123.207 33.612 117.967 32.8186 112.793C31.9573 107.193 31.8613 101.673 32.428 96.3134C33.0147 90.7667 34.3121 85.3934 36.2027 80.2734C38.1027 75.1268 40.5986 70.2468 43.58 65.7134C46.5706 61.1668 50.044 56.9668 53.884 53.2068C57.8307 49.3401 62.164 45.9401 66.7507 43.0867C70.7507 40.5934 74.9506 38.5267 79.2573 36.9534C80.084 36.6467 80.9107 36.3667 81.7374 36.1C87.0574 34.38 92.404 33.4201 97.684 33.1134C103.124 32.7934 108.497 33.18 113.737 34.1934C119.071 35.22 124.257 36.9 129.231 39.1267C134.297 41.4067 139.124 44.2733 143.617 47.6333C146.817 50.0067 149.857 52.6334 152.697 55.4867C153.711 56.5134 154.724 57.58 155.737 58.7C159.391 62.7533 163.004 67.4734 166.644 73.26C169.697 78.0867 172.777 83.6467 175.924 90.1667C178.511 95.5 181.151 101.473 183.857 108.207C186.137 113.86 188.471 120.047 190.884 126.847C192.644 131.847 194.457 137.167 196.311 142.847C196.631 143.82 196.951 144.807 197.271 145.807C199.151 151.673 201.071 157.936 203.044 164.592C204.697 170.177 206.391 176.049 208.124 182.223C210.377 190.211 212.711 198.703 215.151 207.736C217.457 216.241 219.857 225.229 222.377 234.723C226.137 248.875 230.164 264.155 234.537 280.665C233.644 285.543 232.791 290.34 231.977 295.033C230.537 303.461 229.231 311.571 228.084 319.253C227.977 320.015 227.884 320.756 227.791 321.505C226.431 331.947 225.817 341.231 225.791 349.464C225.777 353.229 225.897 356.767 226.124 360.1C226.497 365.548 227.177 370.433 228.111 374.797C232.151 393.82 240.951 402.951 250.057 405.655C257.031 407.723 264.177 406.036 269.524 402.151C276.911 396.785 280.324 387.317 281.897 378.325C282.924 372.468 283.311 365.989 283.191 359.173C283.111 354.895 282.844 350.484 282.404 346.012C282.004 342.032 281.484 338.004 280.857 333.976C280.324 330.653 279.737 327.331 279.071 324.037C277.471 316.017 275.497 308.173 273.337 300.908C271.324 294.108 269.151 287.817 266.964 282.371C267.444 279.976 267.924 277.523 268.431 275.008C270.031 267.085 271.831 258.593 273.804 249.712C275.604 241.605 277.564 233.176 279.657 224.564C281.657 216.368 283.777 208.007 286.017 199.599C288.217 191.365 290.537 183.087 292.951 174.876C295.391 166.636 297.924 158.467 300.577 150.473C303.284 142.273 306.111 134.247 309.044 126.54C312.137 118.407 315.337 110.62 318.644 103.34C322.257 95.3668 326.004 87.98 329.857 81.3934C331.751 78.1667 333.671 75.1134 335.604 72.2867C338.124 68.6334 340.724 65.1667 343.417 61.9267C348.271 56.1 353.444 50.9934 358.951 46.7801C364.497 42.5401 370.391 39.1934 376.657 36.9134C382.764 34.6868 389.244 33.4734 396.097 33.4201C396.257 33.4201 396.417 33.4068 396.577 33.4068C403.337 33.4068 409.804 34.3401 415.897 36.0468C422.724 37.9534 429.071 40.8334 434.817 44.4867C440.844 48.3267 446.217 53.0067 450.791 58.3267C455.377 63.66 459.164 69.6334 461.991 75.9934C464.737 82.18 466.577 88.74 467.391 95.46C468.164 101.9 468.004 108.473 466.764 115.033C465.564 121.393 463.351 127.727 460.031 133.86C457.324 138.82 453.911 143.647 449.697 148.247C448.831 149.193 448.057 150.1 447.364 150.993C445.551 153.353 444.311 155.593 443.751 157.867C443.457 159.049 443.351 160.239 443.444 161.455C443.537 162.671 443.831 163.912 444.337 165.197C444.844 166.484 445.551 167.813 446.497 169.207C447.431 170.601 448.604 172.057 450.004 173.596C450.191 173.8 450.364 174.001 450.564 174.208C451.431 175.139 452.271 175.975 453.071 176.709C454.084 177.632 455.057 178.392 456.004 178.973C456.977 179.561 457.924 179.967 458.884 180.169C459.844 180.373 460.817 180.376 461.844 180.161C464.404 179.62 467.231 177.691 470.777 174.115C472.657 172.216 474.737 169.859 477.097 166.981C481.511 161.407 485.257 155.78 488.404 150.14C493.697 140.647 497.271 131.1 499.311 121.687C501.591 111.22 501.991 100.9 500.804 90.9534Z"
          fill="#61EAF3"/>
</svg>
