<svg width="410" height="351" viewBox="0 0 410 351" fill="none" xmlns="http://www.w3.org/2000/svg">
<path d="M33.9034 145.022C34.1567 143.075 34.557 141.115 35.117 139.128C35.9703 136.235 36.9168 133.395 37.9435 130.595C39.9968 125.022 42.397 119.622 45.117 114.409C45.317 114.022 45.5302 113.635 45.7302 113.248C52.5302 108.022 61.0501 104.155 70.0367 102.502C77.8634 101.062 86.0369 101.288 93.7302 103.782C98.3302 105.262 102.744 107.555 106.81 110.769C108.05 111.755 109.263 112.822 110.437 113.982C112.797 116.315 114.89 118.809 116.703 121.435C119.557 125.569 121.717 130.008 123.17 134.582C124.703 139.462 125.423 144.489 125.29 149.475C125.157 154.515 124.143 159.515 122.223 164.275C120.41 168.729 117.81 172.955 114.357 176.795C113.183 178.102 111.917 179.382 110.544 180.595C108.17 182.688 105.69 184.475 103.144 185.972C98.8368 188.498 94.3168 190.196 89.7435 191.16C84.9969 192.156 80.1835 192.37 75.4769 191.891C70.6635 191.401 65.9569 190.186 61.5302 188.36C57.0902 186.526 52.9436 184.07 49.2636 181.102C45.6369 178.169 42.4768 174.742 39.9568 170.928C37.4901 167.182 35.6502 163.049 34.5969 158.635C33.5569 154.329 33.2767 149.768 33.9034 145.022ZM11.9034 189.03C16.4634 196.307 22.0101 202.473 28.2235 207.541C34.6635 212.789 41.8368 216.854 49.4235 219.727C57.0768 222.635 65.1568 224.331 73.2901 224.804C81.4901 225.282 89.7436 224.514 97.7302 222.514C105.677 220.522 113.343 217.295 120.37 212.837C127.197 208.502 133.437 202.999 138.744 196.327C143.65 190.164 147.77 183.007 150.85 174.848C151.304 173.635 151.757 172.395 152.17 171.142C154.197 164.169 155.33 157.395 155.664 150.862C156.117 142.275 155.184 134.102 153.13 126.502C150.917 118.315 147.41 110.769 142.89 104.035C140.543 100.529 137.917 97.2351 135.064 94.1951C132.277 91.2084 129.264 88.4619 126.077 85.9685C119.597 80.8885 112.37 76.8485 104.744 74.0352C100.664 72.5285 96.4768 71.3685 92.2235 70.5818C88.7435 69.9418 85.2367 69.5552 81.7034 69.4352C85.0367 66.6885 88.4768 64.0752 92.0235 61.6085C97.0235 58.1552 102.21 55.0084 107.57 52.1951C113.063 49.3018 118.73 46.7552 124.517 44.5818C126.597 43.8085 128.677 43.0751 130.784 42.3951C134.304 41.2484 138.05 40.1951 141.984 39.2218C147.73 37.8085 153.89 36.5684 160.344 35.5284C166.397 34.5551 172.704 33.7551 179.197 33.1284C185.41 32.5284 191.797 32.0885 198.264 31.8218C204.597 31.5685 211.01 31.4618 217.423 31.5418C223.81 31.6085 230.21 31.8484 236.557 32.2618C242.983 32.6884 249.343 33.2751 255.57 34.0618C262.01 34.8618 268.303 35.8618 274.357 37.0752C280.77 38.3418 286.917 39.8352 292.73 41.5685C298.197 43.2085 303.357 45.0485 308.13 47.1019C308.877 47.3419 309.623 47.6084 310.37 47.8618C316.197 49.9418 321.797 52.5684 327.157 55.6618C332.41 58.6751 337.423 62.1285 342.223 65.9019C346.877 69.5685 351.317 73.5552 355.557 77.7418C359.703 81.8618 363.65 86.1818 367.397 90.6218C369.25 92.8351 371.063 95.0618 372.823 97.3284C373.303 97.9551 373.784 98.5818 374.264 99.2085C375.65 101.022 376.77 102.502 377.81 103.675C380.063 106.235 381.997 107.422 385.69 107.715C386.29 107.768 386.957 107.795 387.677 107.822C388.383 107.835 389.143 107.835 389.943 107.822C390.73 107.808 391.557 107.768 392.384 107.715C393.224 107.662 394.077 107.582 394.93 107.475C396.117 107.342 397.317 107.155 398.45 106.902C399.597 106.662 400.703 106.355 401.703 105.995C402.717 105.622 403.637 105.195 404.423 104.702C405.197 104.209 405.85 103.635 406.33 102.982C407.184 101.808 407.29 99.5552 406.584 96.5019C405.744 92.8085 403.717 87.9284 400.41 82.3284C398.303 78.7418 395.65 74.8618 392.45 70.7951C388.33 65.5551 383.277 60.0351 377.237 54.4618C372.197 49.8084 366.464 45.1418 360.01 40.5818C354.37 36.6085 348.183 32.7285 341.423 29.0352C335.37 25.7419 328.85 22.6085 321.85 19.7019C315.517 17.0619 308.783 14.6085 301.637 12.4085C299.917 11.8618 298.17 11.3419 296.397 10.8352C291.584 9.46188 286.41 8.1951 280.984 7.06177C274.384 5.66177 267.397 4.44849 260.103 3.44849C253.33 2.50182 246.304 1.74182 239.117 1.18182C232.237 0.635157 225.21 0.275209 218.103 0.101876C211.143 -0.058124 204.117 -0.0315615 197.09 0.195105C190.063 0.421772 183.037 0.861876 176.077 1.50188C168.984 2.16854 161.97 3.07518 155.103 4.20852C147.93 5.39518 140.93 6.86185 134.17 8.60852C128.437 10.0885 122.89 11.7685 117.57 13.6752C116.17 14.1818 114.797 14.6885 113.423 15.2085C106.437 17.8485 99.8636 20.6752 93.6636 23.7019C86.8902 27.0085 80.5701 30.5551 74.6367 34.3284C68.2634 38.3951 62.3569 42.7285 56.8636 47.3418C51.1169 52.1552 45.8236 57.2618 40.917 62.6752C35.9836 68.1152 31.4501 73.8619 27.2367 79.9019C23.1434 85.7685 19.3701 91.9285 15.8367 98.3818C14.7834 100.302 13.7569 102.248 12.7435 104.222C10.3702 108.848 8.21008 113.515 6.37008 118.235C3.42341 125.755 1.29013 133.435 0.423467 141.382C-0.443199 149.328 -0.0297621 157.542 2.13024 166.128C3.01024 169.688 4.19696 173.302 5.71696 176.995C7.49029 181.302 9.57008 185.306 11.9034 189.03Z" fill="#61EAF3"/>
<path d="M377.784 207.155C377.704 207.726 377.61 208.293 377.477 208.85C376.357 213.545 374.944 218.154 373.277 222.667C371.917 226.323 370.383 229.915 368.69 233.437C363.957 237.987 358.05 241.781 351.53 244.411C342.437 248.077 332.157 249.485 322.21 247.538C315.69 246.261 309.303 243.537 303.503 239.061C301.837 237.775 300.21 236.349 298.65 234.766C296.717 232.805 294.957 230.671 293.384 228.393C290.637 224.415 288.49 219.994 287.05 215.267C285.65 210.67 284.917 205.785 284.97 200.737C284.983 200.585 284.984 200.434 284.997 200.282C285.277 195.146 286.437 190.171 288.37 185.55C290.317 180.862 293.077 176.542 296.517 172.769C299.837 169.155 303.784 166.049 308.277 163.649C312.357 161.462 316.877 159.862 321.784 158.969C326.197 158.155 330.917 157.915 335.903 158.342C337.303 158.475 338.73 158.649 340.17 158.875C343.53 159.422 346.824 160.422 349.984 161.795C354.344 163.689 358.423 166.302 362.023 169.475C365.477 172.515 368.477 176.035 370.877 179.915C373.29 183.811 375.077 188.05 376.077 192.479C377.09 197.015 378.424 202.291 377.784 207.155ZM408.543 186.686C406.997 178.062 403.983 170.142 399.837 163.062C395.557 155.742 390.064 149.315 383.717 143.929C377.424 138.595 370.29 134.275 362.664 131.102C355.104 127.969 347.064 125.969 338.85 125.235C330.637 124.502 322.277 125.049 314.09 126.995C306.17 128.875 298.423 132.075 291.157 136.729C286.37 139.782 281.797 143.462 277.503 147.809C276.037 149.302 274.463 151.115 272.823 153.222C268.663 158.622 264.197 165.955 260.703 174.542C257.77 181.742 255.517 189.851 254.69 198.456C253.943 206.358 254.384 214.683 256.61 223.133C258.597 230.666 261.997 238.297 267.223 245.815C270.063 249.906 273.437 253.963 277.423 257.951C279.557 260.084 281.797 262.077 284.13 263.927C290.157 268.721 296.783 272.546 303.757 275.319C309.197 277.486 314.837 279.01 320.57 279.849C323.877 280.333 327.197 280.589 330.53 280.609C326.064 284.174 321.344 287.526 316.384 290.631C311.25 293.843 305.864 296.799 300.25 299.472C294.69 302.123 288.89 304.497 282.903 306.571C281.823 306.943 280.744 307.31 279.65 307.662C275.184 309.108 270.37 310.417 265.277 311.586C259.41 312.93 253.183 314.09 246.69 315.054C240.557 315.963 234.197 316.697 227.677 317.255C221.384 317.793 214.957 318.165 208.464 318.365C204.717 318.481 200.943 318.542 197.157 318.542C194.463 318.542 191.81 318.513 189.197 318.461C182.49 318.326 176.09 318.018 169.97 317.559C163.263 317.057 156.904 316.369 150.877 315.519C144.224 314.582 137.957 313.448 132.064 312.144C125.517 310.699 119.424 309.046 113.73 307.223C107.384 305.191 101.543 302.951 96.1568 300.554C90.1301 297.87 84.677 294.992 79.717 291.995C74.1436 288.628 69.2103 285.112 64.7836 281.551C61.0103 278.508 57.6235 275.435 54.5435 272.394C53.5302 271.386 52.5568 270.407 51.6368 269.455C46.6234 264.265 43.0502 259.911 40.2769 256.314C37.6369 252.881 35.7436 250.138 34.0503 248.022C32.4236 245.997 30.9968 244.539 29.2901 243.603C28.6635 243.254 27.8101 242.966 26.8235 242.743C25.8235 242.521 24.677 242.365 23.4503 242.279C22.2236 242.194 20.9035 242.181 19.5568 242.243C18.2101 242.306 16.8368 242.446 15.5034 242.667C14.5034 242.835 13.5168 243.049 12.5701 243.311C11.6368 243.574 10.7436 243.886 9.91697 244.25C9.10364 244.613 8.35697 245.027 7.71697 245.497C7.06364 245.965 6.51676 246.487 6.10343 247.066C5.26343 248.206 5.10358 250.355 5.66358 253.275C6.63692 258.299 9.7702 265.607 15.4102 273.987C19.0769 279.446 23.8101 285.356 29.7034 291.39C34.4768 296.28 40.0102 301.248 46.3435 306.118C51.8369 310.328 57.917 314.462 64.6503 318.407C70.6103 321.909 77.0769 325.262 84.0769 328.384C90.3702 331.195 97.1036 333.817 104.264 336.198C107.437 337.251 110.69 338.263 114.037 339.215C117.503 340.203 121.157 341.135 124.957 342.007C131.53 343.519 138.57 344.846 145.93 345.967C152.704 346.999 159.757 347.853 167.01 348.509C173.904 349.133 180.97 349.581 188.144 349.827C195.117 350.069 202.197 350.121 209.277 349.97C216.33 349.819 223.397 349.463 230.41 348.89C237.53 348.308 244.597 347.507 251.517 346.456C258.717 345.364 265.757 344.009 272.57 342.371C279.61 340.681 286.41 338.691 292.864 336.378C293.104 336.29 293.344 336.201 293.584 336.113C300.637 333.562 307.277 330.823 313.544 327.891C320.397 324.683 326.823 321.247 332.823 317.578C339.317 313.615 345.344 309.383 350.944 304.879C356.837 300.15 362.263 295.119 367.29 289.786C372.37 284.401 377.05 278.706 381.397 272.698C385.624 266.849 389.517 260.701 393.17 254.255C394.717 251.503 396.223 248.699 397.69 245.839C399.717 241.886 401.463 237.993 402.943 234.163C406.023 226.25 407.97 218.613 408.957 211.305C410.13 202.601 409.917 194.363 408.543 186.686Z" fill="#61EAF3"/>
</svg>
