<svg width="526" height="395" viewBox="0 0 526 395" fill="none" xmlns="http://www.w3.org/2000/svg">
<path d="M525.635 334.773C524.982 327.266 521.262 322.599 516.369 317.159C515.209 315.853 513.969 314.52 512.702 313.066C511.595 311.813 510.542 310.626 509.515 309.453C506.929 306.506 504.582 303.799 502.435 301.319C499.769 298.253 497.395 295.533 495.288 293.159C492.288 289.799 489.768 287.093 487.555 285C485.448 283.04 483.622 281.653 481.915 280.773C479.648 279.6 477.608 279.359 475.422 279.986C474.808 280.159 474.182 280.413 473.529 280.733C472.875 281.04 472.222 281.426 471.529 281.853C470.835 282.306 470.115 282.813 469.369 283.4C468.609 283.973 467.822 284.6 466.995 285.293C466.689 285.559 466.382 285.826 466.062 286.093C465.755 286.386 465.435 286.693 465.129 287C464.529 287.6 463.969 288.226 463.449 288.906C462.915 289.573 462.448 290.253 462.048 290.986C461.662 291.719 461.355 292.479 461.155 293.253C460.702 295.013 461.115 297.146 462.129 299.519C462.969 301.439 464.195 303.533 465.688 305.693C467.502 308.333 469.729 311.079 472.102 313.826C473.515 315.466 474.995 317.119 476.475 318.719C474.102 317.973 471.768 317.093 469.488 316.053C466.075 314.533 462.782 312.666 459.635 310.466C455.262 307.413 451.142 303.706 447.369 299.306C443.915 295.293 440.729 290.666 437.875 285.44C435.235 280.586 432.862 275.186 430.809 269.213C429.089 264.226 427.595 258.853 426.342 253.053C426.222 252.439 426.129 251.826 426.035 251.226C424.955 245.026 424.168 238.639 423.648 232.106C423.142 225.666 422.862 219.093 422.769 212.426C422.675 205.826 422.755 199.146 422.955 192.4C423.155 185.693 423.462 178.92 423.835 172.146C424.222 165.32 424.675 158.493 425.115 151.693C425.582 144.746 426.035 137.826 426.449 131.013C426.875 123.896 427.235 116.889 427.475 110.016C427.729 102.692 427.822 95.5395 427.688 88.6142C427.542 80.9448 427.102 73.5809 426.262 66.5609C425.289 58.3609 423.769 50.6515 421.515 43.5929C419.435 37.0249 416.715 31.0009 413.222 25.6542C412.008 23.7835 410.675 22.0182 409.275 20.3462C403.115 13.0089 395.302 7.56884 386.849 4.17151C377.969 0.602178 368.409 -0.72447 359.302 0.376863C355.875 0.802197 352.515 1.54488 349.288 2.64621C343.302 4.71554 337.862 8.00617 332.915 12.2528C326.889 17.4142 321.569 23.9822 316.862 31.4129C312.929 37.6355 309.409 44.4422 306.235 51.5542C303.289 58.1622 300.649 65.0088 298.235 71.8688C295.835 78.7155 293.662 85.5622 291.675 92.1569C289.835 98.2075 288.169 104.045 286.595 109.472C286.342 110.374 286.089 111.263 285.835 112.139C285.689 112.63 285.555 113.108 285.409 113.598C284.862 110.162 284.302 106.62 283.702 103.024C283.182 99.9449 282.622 96.8409 282.035 93.6956C281.049 88.4676 279.969 83.1862 278.742 77.9195C277.729 73.5542 276.609 69.2142 275.382 64.9422C273.195 57.4328 270.635 50.1342 267.595 43.3409C264.049 35.4062 259.809 28.1622 254.715 22.0448C254.555 21.8595 254.409 21.6595 254.235 21.4608C247.929 14.0435 240.569 8.82887 232.702 5.84354C223.529 2.38087 213.675 1.94218 203.915 4.65018C195.982 6.83818 188.115 11.0982 180.769 17.4542C179.849 18.2369 178.969 19.0462 178.075 19.8955C174.182 23.9422 170.129 30.3769 166.062 38.4849C163.195 44.1769 160.329 50.7048 157.475 57.8168C155.049 63.8675 152.635 70.3422 150.262 77.1102C148.075 83.3462 145.915 89.8342 143.809 96.4555C141.769 102.825 139.782 109.339 137.849 115.867C137.275 117.818 136.702 119.782 136.129 121.746C135.929 119.609 135.689 117.473 135.449 115.324C135.062 111.926 134.649 108.504 134.182 105.08C133.635 100.953 133.022 96.8141 132.329 92.7008C131.475 87.5915 130.502 82.5102 129.382 77.5075C128.155 72.0675 126.755 66.7342 125.142 61.5582C123.062 54.8715 120.635 48.4756 117.769 42.5316C114.209 35.1809 110.009 28.5062 104.982 22.8275C101.449 18.8209 97.5286 15.3049 93.1286 12.3849C90.6219 10.8329 88.1152 9.51955 85.6218 8.41821C77.1685 4.70221 68.8753 3.56084 60.9686 4.27817C52.7953 5.02084 45.062 7.74086 37.9953 11.6822C31.5153 15.2915 25.6085 19.9222 20.4885 24.9635C15.2485 30.1248 10.8086 35.7249 7.43526 41.0849C3.2486 47.7329 0.675213 54.0222 0.115213 58.7195C-0.164787 61.0408 0.0619314 62.9649 0.835265 64.3582C1.18193 64.9822 1.59529 65.5795 2.06196 66.1368C2.54196 66.7075 3.07529 67.2515 3.66196 67.7422C4.24862 68.2462 4.86196 68.7235 5.52862 69.1622C6.19529 69.5995 6.88857 69.9982 7.60857 70.3555C8.39524 70.7675 9.2086 71.1128 10.0353 71.4168C10.8486 71.7355 11.6886 71.9875 12.5286 72.2008C13.3553 72.4128 14.182 72.5715 14.9953 72.6782C15.7953 72.7968 16.5952 72.8502 17.3552 72.8502C19.2352 72.8502 20.9153 72.4129 22.4353 71.6435C26.8353 69.4142 30.0219 64.3715 33.6752 58.6795C36.2086 54.7382 38.9686 50.4928 42.5019 46.6582C45.4219 43.4995 48.8619 40.6209 53.1686 38.4316C53.9286 38.0329 54.7152 37.6622 55.5552 37.3168C58.3685 36.1355 61.0085 35.4195 63.5152 35.1409C67.0885 34.7289 70.3552 35.2208 73.3419 36.4675C76.5819 37.8342 79.5019 40.0902 82.1286 43.1289C85.8619 47.4142 89.0219 53.2395 91.7152 60.2049C93.5285 64.8889 95.142 70.0768 96.5953 75.6635C98.1286 81.6342 99.4886 88.0568 100.675 94.7701C101.662 100.303 102.555 106.036 103.355 111.874C104.462 119.874 105.422 128.074 106.275 136.306C107.609 148.813 108.742 161.346 109.889 173.146C111.195 186.32 112.502 198.573 114.142 208.839C113.742 210.759 113.369 212.56 113.035 214.2C112.942 214.666 112.849 215.119 112.769 215.573C111.675 221.066 110.369 227.44 109.062 234.28C107.849 240.786 106.635 247.72 105.675 254.706C104.635 262.186 103.862 269.719 103.649 276.893C103.449 283.293 103.689 289.386 104.542 294.866C106.142 305.159 109.942 313.293 117.169 317.2C120.182 318.813 123.795 319.706 128.089 319.706C141.129 319.706 148.769 308.453 151.955 295.586C153.035 291.226 153.689 286.493 153.995 281.533C154.315 276.36 154.275 270.946 153.969 265.426C153.329 253.759 151.542 241.573 149.582 230.213C145.142 204.546 144.995 212.266 147.609 200.946C149.075 194.653 150.595 188.266 152.209 181.839C153.782 175.493 155.422 169.133 157.115 162.773C158.809 156.386 160.555 150.053 162.315 143.786C164.115 137.359 165.969 131.053 167.795 124.89C169.729 118.429 171.649 112.14 173.582 106.129C175.649 99.5862 177.702 93.3769 179.715 87.5649C182.009 80.9049 184.222 74.7875 186.315 69.3742C187.929 65.2342 189.449 61.4928 190.889 58.2422C191.822 56.1448 192.809 54.1289 193.849 52.2315C196.182 47.9715 198.782 44.2436 201.569 41.2849C204.822 37.8342 208.369 35.4195 212.049 34.4248C215.169 33.5888 218.382 33.7475 221.649 35.1542C224.529 36.4009 227.435 38.6035 230.342 41.9209C230.409 42.0142 230.489 42.0942 230.555 42.1862C234.449 46.7115 237.689 52.5622 240.435 59.1435C243.062 65.4329 245.249 72.3729 247.075 79.4715C248.595 85.3502 249.875 91.3208 250.982 97.1061C252.515 105.066 253.715 112.657 254.769 119.118C254.862 119.662 254.942 120.193 255.035 120.71C256.742 131.186 258.462 141.266 260.009 150.56C262.355 164.693 264.315 176.986 265.195 185.919C264.635 188.026 264.115 190.08 263.582 192.093C261.355 200.72 259.409 208.56 257.742 215.746C255.662 224.693 254.009 232.586 252.782 239.64C250.462 252.706 249.542 262.8 249.862 271.04C250.169 278.826 251.555 284.946 253.915 290.413C256.142 295.546 259.102 299.773 262.488 303.04C276.968 316.946 299.702 313.733 305.222 287.28C306.528 281.04 306.955 273.826 306.795 266.053C306.675 259.733 306.155 253.026 305.422 246.16C304.395 236.653 302.915 226.826 301.435 217.213C296.129 183.013 296.622 189.279 299.115 180.173C300.729 174.253 302.422 168.08 304.142 161.626C304.262 161.213 304.382 160.786 304.488 160.36C306.235 153.853 308.022 147.199 309.835 140.506C311.622 133.893 313.462 127.238 315.329 120.657C317.222 114.01 319.168 107.442 321.155 101.06C323.195 94.5182 325.289 88.1756 327.449 82.1649C329.742 75.7436 332.102 69.6928 334.529 64.1728C337.235 58.0288 340.049 52.5355 342.942 47.8915C345.369 44.0168 347.862 40.7275 350.435 38.1528C351.289 37.3035 352.169 36.5342 353.089 35.8315C356.089 33.5489 359.489 32.0222 363.035 31.3596C367.089 30.5902 371.329 30.9742 375.382 32.6995C378.942 34.1995 382.342 36.7462 385.315 40.4355C387.675 43.3542 389.769 47.0035 391.462 51.4222C391.649 51.9262 391.835 52.4435 392.022 52.9608C393.768 57.9888 394.942 63.7488 395.688 70.1168C396.355 75.9955 396.675 82.3635 396.729 89.1715C396.769 95.4475 396.595 102.068 396.275 108.981C395.982 115.482 395.582 122.25 395.102 129.186C394.662 135.879 394.155 142.719 393.675 149.706C393.209 156.519 392.755 163.466 392.382 170.466C391.995 177.44 391.689 184.466 391.515 191.506C391.342 198.639 391.302 205.759 391.449 212.853C391.609 220.133 391.982 227.373 392.622 234.506C393.275 241.959 394.235 249.279 395.569 256.453C396.969 264.026 398.795 271.413 401.129 278.519C403.609 286.079 406.649 293.333 410.369 300.173C414.249 307.306 418.862 313.999 424.342 320.119C429.675 326.106 435.835 331.586 442.915 336.426C447.368 339.466 452.182 342.266 457.395 344.786C458.275 345.213 459.155 345.613 460.049 345.999C466.702 348.853 473.688 350.48 480.782 351.106C480.568 351.346 480.342 351.599 480.142 351.826C477.395 354.879 474.995 357.56 472.888 359.946C470.528 362.64 468.555 364.96 466.955 367.013C465.182 369.253 463.862 371.159 462.929 372.853C460.782 376.773 460.702 379.613 462.182 382.919C462.369 383.333 462.582 383.759 462.822 384.159C463.048 384.573 463.302 384.973 463.582 385.373C463.849 385.76 464.142 386.146 464.449 386.533C464.755 386.919 465.075 387.293 465.422 387.666C466.302 388.613 467.275 389.506 468.302 390.306C469.342 391.106 470.409 391.799 471.475 392.386C472.542 392.973 473.622 393.439 474.662 393.759C475.675 394.066 476.662 394.24 477.555 394.24C479.008 394.24 480.489 393.866 481.982 393.159C483.902 392.253 485.902 390.813 488.022 388.88C490.582 386.573 493.355 383.586 496.449 380.066C498.355 377.879 500.395 375.493 502.609 372.933C502.875 372.599 503.155 372.279 503.449 371.959C506.022 368.973 508.328 366.373 510.422 364.04C513.115 361.013 515.422 358.453 517.342 356.186C523.315 349.159 525.729 344.8 525.729 337.146C525.729 336.333 525.688 335.533 525.635 334.773Z" fill="#61EAF3"/>
</svg>
