<svg width="381" height="398" viewBox="0 0 381 398" fill="none" xmlns="http://www.w3.org/2000/svg">
<path d="M380.4 52.4227C380.293 45.9707 380.093 40.7054 379.733 36.3187C379.227 30.092 378.426 25.6374 377.186 22.096C377.026 21.644 376.853 21.2053 376.68 20.7813C374.627 15.7627 370.667 10.8094 365.16 6.99603C360.907 4.05737 355.733 1.79868 349.76 0.713348C347.36 0.274682 344.826 0.024 342.186 0C342.106 0 339.827 0.00535506 335.88 0.0160217C332.387 0.0253551 327.573 0.040007 321.84 0.0613403C316.587 0.080007 310.573 0.10539 304.053 0.13739C298.426 0.164057 292.44 0.197377 286.267 0.234711C280.44 0.270711 274.467 0.312046 268.48 0.360046C262.493 0.406713 256.52 0.460041 250.693 0.518707C244.52 0.581374 238.52 0.652016 232.893 0.730682C226.347 0.821349 220.32 0.924051 215.093 1.03738C208.827 1.17472 203.72 1.32935 200.293 1.50269C197.64 1.63735 195.987 1.78403 195.613 1.94403C194.733 2.3067 193.973 2.9867 193.333 3.90536C192.693 4.8227 192.16 5.97732 191.747 7.28665C191.333 8.59465 191.027 10.0587 190.813 11.5947C190.613 13.132 190.52 14.7401 190.52 16.3401C190.52 17.6534 190.6 18.9613 190.733 20.2173C190.867 21.472 191.067 22.676 191.333 23.7827C191.587 24.8894 191.92 25.8973 192.293 26.764C192.68 27.6293 193.133 28.352 193.627 28.8867C195.147 30.5027 196.653 31.5027 200.573 32.104C203.64 32.576 208.2 32.8027 215.427 32.892C220.107 32.9493 225.92 32.948 233.16 32.9187C238.307 32.8974 244.187 32.8614 250.907 32.8214C256.267 32.7894 262.16 32.7534 268.653 32.7214C274.146 32.6947 280.053 32.668 286.413 32.648C291.08 32.6333 295.973 32.6201 301.133 32.6121C302.173 32.6107 303.187 32.6094 304.173 32.6067C311.253 32.5947 317.107 32.5854 321.947 32.5854C323.08 32.5854 324.16 32.5854 325.2 32.588C322.387 35.5494 319.6 38.4773 316.827 41.3867C310.787 47.7413 304.84 53.9853 299.027 60.1C292.96 66.4667 287.04 72.696 281.213 78.8067C275.147 85.1774 269.213 91.4094 263.4 97.508C257.32 103.885 251.373 110.117 245.573 116.204C239.48 122.588 233.533 128.821 227.747 134.895C221.64 141.295 215.707 147.515 209.907 153.58C203.787 159.98 197.84 166.22 192.067 172.26C185.933 178.687 179.987 184.9 174.227 190.927C169.067 196.327 164.053 201.567 159.186 206.66C156.56 204.14 154.546 202.233 152.72 200.487C150.253 198.153 148.12 196.113 145.28 193.287C143.32 191.327 141 188.993 138.013 185.927C136.32 184.193 134.413 182.233 132.227 179.967C131.747 179.46 131.28 178.967 130.813 178.487C128.227 175.753 125.867 173.247 123.707 170.953C121.053 168.14 118.707 165.62 116.627 163.407C113.827 160.407 111.507 157.913 109.533 155.86C106.227 152.407 103.933 150.153 102.053 148.709C99.2265 146.536 97.3466 146.145 94.4133 146.145C93.1733 146.145 91.9333 146.292 90.7333 146.567C89.52 146.843 88.3333 147.248 87.2133 147.767C86.0799 148.287 85 148.92 84 149.651C83 150.38 82.0666 151.207 81.2266 152.127C80.6532 152.753 80.1331 153.407 79.6531 154.113C79.1865 154.807 78.76 155.54 78.4 156.3C78.04 157.06 77.7332 157.847 77.4932 158.66C77.2666 159.46 77.0933 160.3 77 161.153C76.64 164.433 76.92 166.967 79.4667 170.913C80.8667 173.087 82.9465 175.673 85.9732 179.033C87.9065 181.207 90.2531 183.687 93.0531 186.593C95.1865 188.793 97.5866 191.247 100.293 193.98C102.52 196.233 104.946 198.673 107.586 201.327C109.44 203.18 111.386 205.127 113.453 207.193C113.933 207.673 114.413 208.153 114.907 208.647C117.24 210.98 119.68 213.407 122.24 215.953C124.587 218.287 127.027 220.727 129.573 223.247C131.84 225.5 134.2 227.847 136.627 230.247C131.093 236.033 125.773 241.593 120.667 246.94C114.4 253.487 108.467 259.7 102.813 265.607C96.4933 272.207 90.5598 278.433 84.9732 284.287C78.5732 290.98 72.6532 297.207 67.1599 302.98C60.6399 309.833 54.7332 316.06 49.3732 321.713C42.6398 328.86 36.7865 335.1 31.7065 340.567C24.4265 348.407 18.7467 354.647 14.3333 359.7C9.92 364.74 6.77313 368.567 4.58646 371.553C1.09313 376.3 0 378.913 0 380.887C0 381.313 0.0932813 381.833 0.279948 382.447C0.466615 383.06 0.746458 383.753 1.11979 384.5C1.47979 385.247 1.93313 386.047 2.45313 386.86C2.98646 387.673 3.58667 388.513 4.26667 389.34C5.09333 390.353 6.02646 391.34 7.05312 392.26C8.07979 393.193 9.21323 394.047 10.4266 394.767C11.6266 395.5 12.9332 396.1 14.2932 396.513C15.6666 396.94 17.1066 397.167 18.6133 397.167C20.2133 397.167 21.8531 396.62 26.2531 392.767C28.8398 390.527 32.3733 387.14 37.4133 382.087C42.0266 377.473 47.8932 371.447 55.4398 363.593C60.5732 358.26 66.4799 352.087 73.2932 344.927C78.6532 339.313 84.5598 333.1 91.1065 326.22C96.5732 320.46 102.493 314.22 108.893 307.487C114.453 301.633 120.36 295.393 126.667 288.753C132.28 282.833 138.2 276.593 144.44 270.007C149.44 264.74 154.653 259.26 160.067 253.54C162.107 255.567 164.173 257.62 166.28 259.727C168.68 262.113 171.12 264.553 173.613 267.047C176 269.42 178.44 271.86 180.933 274.353C183.32 276.74 185.76 279.193 188.253 281.673C190.64 284.073 193.08 286.527 195.56 289.007C197.947 291.407 200.386 293.86 202.853 296.34C205.253 298.753 207.68 301.193 210.147 303.687C212.547 306.1 214.973 308.553 217.44 311.047C217.68 311.3 217.933 311.553 218.186 311.807C220.933 314.58 222.867 316.673 224.907 318.207C226.947 319.74 229.093 320.7 232.267 321.193C233.48 321.18 234.626 321.087 235.72 320.9C236.813 320.713 237.853 320.42 238.88 320.007C239.893 319.593 240.893 319.033 241.893 318.34C242.787 317.7 243.693 316.927 244.613 316.02C244.707 315.927 244.787 315.847 244.867 315.767C245.933 314.687 246.853 313.633 247.627 312.607C248.387 311.593 249.013 310.593 249.493 309.62C249.973 308.647 250.32 307.687 250.533 306.753C250.747 305.807 250.827 304.873 250.8 303.953C250.707 301.247 249.587 298.593 247.693 295.807C246.013 293.313 243.707 290.727 240.947 287.913C238.747 285.66 236.267 283.26 233.573 280.66C231.4 278.553 229.093 276.3 226.693 273.887C226.533 273.713 226.373 273.553 226.2 273.38C223.68 270.847 221.253 268.393 218.92 266.033C216.386 263.473 213.96 261.033 211.627 258.687C209.08 256.113 206.653 253.673 204.333 251.353C201.76 248.767 199.333 246.327 197.027 244.02C194.427 241.42 192 238.98 189.707 236.7C187.2 234.193 184.867 231.873 182.693 229.713C187.573 224.58 192.613 219.273 197.8 213.82C203.547 207.767 209.467 201.54 215.6 195.087C221.347 189.033 227.293 182.793 233.4 176.367C239.173 170.3 245.107 164.06 251.2 157.66C256.987 151.58 262.92 145.341 269.013 138.948C274.813 132.857 280.747 126.624 286.827 120.243C292.64 114.141 298.573 107.916 304.64 101.543C310.453 95.4414 316.4 89.204 322.467 82.848C328.293 76.736 334.24 70.508 340.293 64.156C342.227 62.136 344.147 60.1134 346.107 58.0681C346.627 57.5241 347.093 56.952 347.533 56.344C347.56 60.6267 347.56 65.36 347.533 70.416C347.52 75.988 347.48 81.9454 347.427 88.1014C347.387 93.8987 347.333 99.8693 347.293 105.861C347.24 111.828 347.2 117.812 347.186 123.664C347.16 129.809 347.146 135.807 347.173 141.479C347.186 144.195 347.2 146.84 347.227 149.387C347.28 153.113 347.32 156.42 347.386 159.367C347.586 167.927 347.88 173.42 348.36 177.087C349.12 182.887 350.333 184.113 352.213 185.793C353.013 186.513 353.893 187.087 354.853 187.553C355.8 188.02 356.827 188.38 357.893 188.633C358.973 188.9 360.093 189.06 361.267 189.14C362.427 189.22 363.64 189.233 364.867 189.18C365.16 189.167 365.467 189.14 365.773 189.127C366.733 189.06 367.627 188.953 368.467 188.807C369.613 188.593 370.64 188.313 371.573 187.967C372.52 187.607 373.36 187.167 374.107 186.673C374.853 186.167 375.52 185.593 376.093 184.967C377.947 182.927 378.973 180.22 379.533 177.047C380.413 172.073 380.146 165.9 380.12 159.233C380.12 158.927 380.12 158.633 380.12 158.327C380.12 152.487 380.12 146.901 380.133 141.559C380.147 135.321 380.173 129.417 380.2 123.82C380.227 117.521 380.266 111.615 380.306 106.073C380.346 99.6747 380.387 93.7587 380.413 88.2893C380.467 81.7293 380.493 75.8027 380.507 70.4401C380.52 63.5654 380.493 57.6107 380.4 52.4227Z" fill="#61EAF3"/>
</svg>
