<svg width="24" height="24" viewBox="0 0 24 24" fill="none" xmlns="http://www.w3.org/2000/svg"><path d="M1.5 9.9998C1.5 9.9998 3.96818 5.90665 6.5 5.9998C6.5 5.9998 6.56121 9.9998 8.5 9.9998C10.4388 9.9998 10.9682 5.90665 13.5 5.9998C13.5 5.9998 13.5612 9.9998 15.5 9.9998C17.4388 9.9998 18.9684 5.90121 20.5 5.9998C20.5 5.9998 20.5612 9.99979 22.5 9.99979M1.5 17.9998C1.5 17.9998 3.96818 13.9067 6.5 13.9998C6.5 13.9998 6.56121 17.9998 8.5 17.9998C10.4388 17.9998 10.9682 13.9067 13.5 13.9998C13.5 13.9998 13.5612 17.9998 15.5 17.9998C17.4388 17.9998 18.9684 13.9012 20.5 13.9998C20.5 13.9998 20.5612 17.9998 22.5 17.9998" stroke="#61eaf3" stroke-width="1.5" stroke-linecap="square"></path></svg>