<svg width="24" height="24" viewBox="0 0 24 24" fill="none" xmlns="http://www.w3.org/2000/svg">

  <path d="M18.9712 4.29017C14.6777 1.32821
  6.67396 2.20792 3 5.70692M18.9712 4.29017C17.0312
  3.17009 14.5505 3.8348 13.4304 5.77484C12.3103 7.71488
  12.975 10.1956 14.915 11.3157C16.8551 12.4358 19.3358 11.7711
  20.4559 9.83103C21.576 7.89098 20.9113 5.41026 18.9712
  4.29017ZM5.02877 19.7098C9.32231 22.6718 17.326 21.7921 21
  18.2931M5.02877 19.7098C6.96881 20.8299 9.44954 20.1652 10.5696
  18.2252C11.6897 16.2851 11.025 13.8044 9.08495 12.6843C7.14491
  11.5642 4.66419 12.2289 3.5441 14.169C2.42402 16.109 3.08873 18.5897
  5.02877 19.7098Z" stroke="#61eaf3" stroke-width="1.5" stroke-linecap="square">

  </path>
</svg>